<svg xmlns="http://www.w3.org/2000/svg" viewBox="0 0 2920.55 1492.87"><defs><style>.cls-1{fill:#fff;stroke:#fff;stroke-miterlimit:10;}</style></defs><title>title-hm</title><g id="Слой_2" data-name="Слой 2"><g id="Layer_1" data-name="Layer 1"><path class="cls-1" d="M268,1415.27c2.7,2.7.9,0,2.3,4.7H268Zm14-37.3h4.7c-.8,2.3-1.6,4.7-2.3,7h-2.3C282,1382.67,282,1380.27,282,1378Zm-88.6-30.3v4.7h2.3C194.4,1347.67,196,1350.27,193.4,1347.67Zm84-28h4.7c-.5,5.5-1,5.8-2.3,9.3h-4.7v-2.3h2.3Zm23.3-39.7c-1.7,6.4-.7,5.2-7,7C295.4,1280.57,294.3,1281.77,300.7,1280Zm-32.7-9.3c-.8,2.3-1.6,4.7-2.3,7H268v-2.3c1-1.4,3.8-.3,2.3-4.7Zm-20.9-7c1.2,1,2.9,4.3,7,2.3v-2.3Zm62.9,4.7h-9.3c-2-2.6.3-.3-2.3-2.3v-7a29.07,29.07,0,0,0,11.7-2.3C310,1260.57,310,1264.47,310,1268.37Zm2.4-100.3v4.7c2.3.8,4.7,1.5,7,2.3v-4.7h-2.3C314.4,1167.77,317,1169.47,312.4,1168.07Zm39.6-2.3v4.7h-2.3v-2.3h-2.3v-2.3C348.9,1165.77,350.4,1165.77,352,1165.77Zm-46.6-2.4c-2.3.8-4.7,1.6-7,2.3-.8,4.7-1.6,9.3-2.3,14h2.3v2.3s-4,3.3-4.7,4.7c3.1-.8,6.2-1.6,9.3-2.3v2.3c-1,1.1-4.3,2.9-2.3,7H303V1189h2.3c-1.8-7.5-3.5-5-4.7-14,1.6.8,3.1,1.5,4.7,2.3,1.6-3.5-2.3-4.7-2.3-4.7C303.8,1169.67,304.6,1166.57,305.4,1163.37Zm2.3-9.3v4.7c2.3-.8,4.7-1.6,7-2.3v-2.3C312.4,1154.07,310,1154.07,307.7,1154.07Zm51.3-14c7.2,6.4,2.4,1.7-2.3,9.3h-2.3v-2.3h-2.3v-4.7c1.6.8,3.1,1.6,4.7,2.3C357.4,1143.17,358.2,1141.67,359,1140.07Zm279.8-9.3v4.7h2.3v-4.7Zm-319.5-2.3v9.3h2.3v-2.3h2.3v-7Zm42,11.6c1.5-6.4,4.4-8.6,7-14,2.4,1.8,2.3,2.9,4.7,4.7-1.3,4.7.3,2-2.3,4.7C367.7,1139.87,368.3,1139.27,361.3,1140.07Zm14-16.3H380v4.7h-4.7Zm219.2-11.7c-.8,3.1-1.6,6.2-2.3,9.3h2.3v-2.3c1-1.2,4.3-2.9,2.3-7Zm-2.3-9.3v4.7h2.3v-4.7Zm762.6-2.3v4.7h2.3C1355.8,1100.47,1357.4,1103.07,1354.8,1100.47Zm-690.3-2.4c2.7,2.7,0,.9,4.7,2.3C666.5,1097.77,669.1,1099.57,664.5,1098.07Zm-58.3,4.7v-4.7c-2.6,2-.3-.3-2.3,2.3h-2.3C604.2,1103.07,601.5,1101.37,606.2,1102.77Zm-223.9,2.3c.8-2.3,1.6-4.7,2.3-7h2.3v7c-2.3.8-4.7,1.5-7,2.3v2.3h-2.3v-2.3h-2.3v-2.3Zm235.5-4.6c1.6-6.6,4.2-6.7,7-11.7h-4.7c-2.8,4.3-6.5,5-9.3,9.3-2.6,2-.3-.3-2.3,2.3C611.6,1100.47,614.7,1100.47,617.8,1100.47Zm9.4-16.3v7c6.4-1.7,5.2-.7,7-7Zm-240.2,0h4.7v2.3C387,1085.17,389.6,1086.77,387,1084.17Zm317.1-2.4v-4.7c-2.3.8-4.7,1.5-7,2.3v2.3C699.5,1081.77,701.8,1081.77,704.1,1081.77Zm-303.1-4.6c-.8,2.3-1.5,4.7-2.3,7-2.6-2-.3.3-2.3-2.3-2.6-2-.3.3-2.3-2.3h2.3C399,1076.77,396.3,1078.57,401,1077.17Zm275.1-7c2.7,2.7,0,.9,4.7,2.3C678.2,1069.77,680.8,1071.57,676.1,1070.17Zm91-4.7c-2.7,3.2-4.2,3.6-9.3,4.7v2.3h4.7c2.7-3.2,4.3-3.6,9.3-4.7v-2.3Zm-58.3-2.3c-2.3.8-4.7,1.5-7,2.3.8,1.6,1.6,3.1,2.3,4.7,5.7,2.5,7.5,4.2,16.3,4.7,2.7-2.7,0-.9,4.7-2.3.8-2.3,1.6-4.7,2.3-7h-2.3c-3.3,5.8-4.8,6.7-14,7-2-2.6.3-.3-2.3-2.3Zm685.6-4.7v7h2.3v-7Zm111.9,0v-4.7c-2.6,2-.3-.3-2.3,2.3h-2.3C1504.3,1058.77,1501.7,1057.07,1506.3,1058.47Zm-767.2-7v4.7c-5.5.5-5.8,1-9.3,2.3v2.3h14c.8-2.3,1.6-4.7,2.3-7h-2.3C741.1,1051.17,743.8,1052.87,739.1,1051.47Zm-331.1,4.7v-4.7c2.6,2,.3-.3,2.3,2.3h2.3C410,1056.47,412.6,1054.77,408,1056.17Zm347.4-7h-4.7c2,2.6-.3.3,2.3,2.3v2.3h2.3C755.4,1052.27,755.4,1050.67,755.4,1049.17Zm-102.6,0v7h2.3v-7Zm746.3-2.3c-1.3,4.7.3,2-2.3,4.7.8,2.3,1.6,4.7,2.3,7h2.3v-11.7Zm-681,6.9h7v-7C718.7,1048.47,719.9,1047.47,718.1,1053.77Zm599.4-11.6v4.7h2.3v-4.7Zm-545.7,0v4.7h7v-4.7ZM331,1053.77v-11.7h-4.7c-1.9,3.1-1.6,2.7-4.7,4.7v2.3h2.3C326.6,1053.17,325.5,1052.27,331,1053.77Zm1264-13.9h-4.7c2,2.6-.3.3,2.3,2.3v2.3C1595.3,1041.87,1593.6,1044.47,1595,1039.87Zm-869.9,0c2.7,2.7,0,.9,4.7,2.3C727.1,1039.47,729.8,1041.27,725.1,1039.87Zm1646.4-2.4v7h2.3v-7Zm-1667.4,0c-.8,2.3-1.6,4.7-2.3,7h4.7c-.8,2.3-1.6,4.7-2.3,7h-4.7v-4.7h-4.7c-1.7,6.4-.7,5.2-7,7-2.7,2.7,0,.9-4.7,2.3v4.7c-2.6-2.7-.9,0-2.3-4.7h-4.7c-.8,2.3-1.6,4.7-2.3,7,13.1,1.6,7.6,5.8,14,9.3h4.7c2-2.6-.3-.3,2.3-2.3v-2.3c-2.3.8-4.7,1.6-7,2.3v-2.3h-2.3c-.8-2.3-1.6-4.7-2.3-7,3.1.8,6.2,1.5,9.3,2.3-.8-2.3-1.6-4.7-2.3-7h2.3c2-2.6-.3-.3,2.3-2.3v-2.3c2.2-4.3,2.3,4.7,2.3,4.7h9.3v-7h4.7c.8-2.3,1.6-4.7,2.3-7C709.3,1040,709.8,1039,704.1,1037.47Zm601.7-2.3v4.7h4.7v-4.7Zm-883.8,0c2.7,2.7.9,0,2.3,4.7H422Zm317.1,11.7h4.7c1.9-3.1,1.6-2.8,4.7-4.7-2-2.6.3-.3-2.3-2.3-.8-2.3-1.6-4.7-2.3-7h-2.3v2.3h-7v2.3C737.6,1040.17,738,1041.77,739.1,1046.87Zm1266.3-18.7v4.7h2.3C2006.4,1028.17,2008,1030.77,2005.4,1028.17Zm-1247.6,11.7c.8,3.1,1.6,6.2,2.3,9.3h2.3v-9.3h-2.3c-1.5-2.7-.4-7,2.3-7v-2.3h-4.7c-2-2.6.3-.3-2.3-2.3-1.4,5.6-.7,4.3-4.7,7,2,2.6-.3.3,2.3,2.3C755.8,1040.17,753.1,1038.37,757.8,1039.87Zm-417.5-16.4v4.7h2.3C341.3,1023.47,342.9,1026.17,340.3,1023.47Zm410.5-7c2.7,2.7,0,.9,4.7,2.3C752.8,1016.17,755.4,1017.87,750.8,1016.47Zm95.6-2.3v4.7c2.3-.8,4.7-1.6,7-2.3v-2.3C851.1,1014.17,848.7,1014.17,846.4,1014.17Zm-37.3,0v4.7h4.7v-4.7Zm-30.3,9.3h-4.7v4.7h4.7v-4.7c2.3.8,4.7,1.6,7,2.3v-9.3h4.7v-2.3C783.1,1015.47,780.6,1016.47,778.8,1023.47Zm-37.4-9.3v4.7h4.7v-4.7Zm-30.3,0v7h2.3v-7Zm-361.4,0v7H352v-7Zm445.4-4.7c.8,3.9,1.6,7.8,2.3,11.7h2.3c2-2.6-.3-.3,2.3-2.3,1.3-3.6,1.8-3.8,2.3-9.3C801.3,1009.47,798.2,1009.47,795.1,1009.47Zm-32.7,11.7v-4.7c3.7-2.9.8-2.3-2.3-4.7-2-2.6.3-.3-2.3-2.3v7h2.3v2.3h-2.3C755.5,1022.67,761.1,1020.77,762.4,1021.17Zm91-16.3c.8,2.3,1.5,4.7,2.3,7H858v-7Zm851.2-2.4v4.7h2.3v-4.7Zm-1030.8,7h4.7v-7h-2.3v2.3C673.5,1007.47,675.2,1004.87,673.8,1009.47Zm-11.6-7v7h2.3v-7Zm1205.6-2.3h-7v2.3c7.1,4.8,1,4.3,4.7,9.3h2.3Zm-998.1-4.7a29.07,29.07,0,0,0,2.3,11.7h2.3C874.2,999.27,874.4,998.67,869.7,995.47Zm-60.6,14c6.1-.2,8-.6,11.7-2.3v2.3h2.3c-1.5,3.1-3.1,6.2-4.7,9.3h4.7c2,2.6-.3.3,2.3,2.3-.8-3.1-1.6-6.2-2.3-9.3,0,0,2.9-1,2.3-4.7,0-.2-3.6-.9-2.3-4.7,1.6-.8,3.1-1.5,4.7-2.3v-4.7c-3.3.6-17.9,8-18.7,9.3Zm802.2-18.6v4.7h2.3v-4.7Zm-788.2-2.4v2.3h-2.3c-4.4,2,4.7,2.3,4.7,2.3,2-2.6-.3-.3,2.3-2.3C825.1,988.17,827.7,990,823.1,988.47Zm1086.7-2.3h28v2.3h-2.3v7h-9.3v4.7h-4.7v-4.7h-16.3v-7h2.3v2.3C1909.5,995.27,1909.8,986.17,1909.8,986.17Zm-195.9,0c.8,3.1,1.6,6.2,2.3,9.3h2.3C1717.6,990.47,1717,988.87,1713.9,986.17Zm-846.5,0c2.7,2.7,0,.9,4.7,2.3C869.4,985.87,872,987.57,867.4,986.17Zm-72.3,4.7c-.8,3.1-1.5,6.2-2.3,9.3h4.7c2.6-4.8,3.8-4.1,4.7-11.7-1.6.8-3.1,1.6-4.7,2.3v-2.3c-5.1-1.7-4.8-2.4-7,0h-4.7v2.3C788.9,990.87,792,990.87,795.1,990.87Zm755.6-7v7c3.1.8,6.2,1.5,9.3,2.3v-4.7h-2.3v2.3c-3.7,2.7-2.2-5.7-2.3-7C1553.8,983.87,1552.2,983.87,1550.7,983.87Zm181.9-2.3v7h2.3v-7Zm-49,0v4.7h2.3C1684.6,981.47,1686.2,984.17,1683.6,981.57Zm-830.2,0c.8,2.3,1.5,4.7,2.3,7-3.9-.8-7.8-1.5-11.7-2.3-.8,1.6-1.6,3.1-2.3,4.7-2.8,1.3-6.9,1.3-9.3,2.3,1.3,4.7-.3,2,2.3,4.7v2.3h4.7c2.8-6.5,2.8-8.3,11.7-9.3,2.7,2.6,0,.9,4.7,2.3.8-3.9,1.6-7.8,2.3-11.7Zm-46.7,9.3c7-1.4,8.9-4.2,14-7v-2.3h-7c-.8,2.3-1.6,4.7-2.3,7-3.3.1-.7.5-2.3-2.3C806.6,988.77,808,986.17,806.7,990.87Zm-25.6-9.3c3.9,5,4.7,4.7,4.7,4.7C787.5,983.87,781.7,982.07,781.1,981.57Zm55.9-2.4v7h2.3v-7Zm-149.2-2.3c-3.7,6.4-5.8,4.2-7,14h-2.3v2.3h2.3v7h2.3v-7c.8-2.4,8.2-13.1,7-16.3Zm1056.4-2.3v4.7h2.3v-4.7Zm-909.5,0H830c2,2.6-.3.3,2.3,2.3v2.3C835,976.57,833.3,979.17,834.7,974.57Zm-67.6,0v4.7h2.3C768.1,974.47,769.7,977.17,767.1,974.57Zm974.8,2.3v-4.7a15.8,15.8,0,0,0-7,7h2.3C1739.9,976.57,1737.2,978.27,1741.9,976.87Zm-1077.4-4.7c.8,3.1,1.6,6.2,2.3,9.3h2.3C668.4,974.47,668.8,975.17,664.5,972.17Zm1194,2.4v-4.7h-7v2.3h2.3C1856.5,974.87,1853.8,973.17,1858.5,974.57Zm-855.9-4.7c-.8,2.3-1.5,4.7-2.3,7h2.3v-2.3c1-1.3,3.8-.3,2.3-4.7Zm-303.1-4.7v7h2.3v-4.7h2.3C708.4,965.27,699.5,965.17,699.5,965.17Zm1084.4-4.6v7h2.3c2.7-2.7,0-.9,4.7-2.3v-4.7Zm-944.5,2.3v-4.7c-2.6,2-.3-.3-2.3,2.3h-2.3C837.4,963.17,834.7,961.47,839.4,962.87Zm153.9-7c2.7,2.7,0,.9,4.7,2.3C995.3,955.57,998,957.27,993.3,955.87Zm-158.6-2.3v-4.7c-7.9,2-7.1,4.3-7,14H830v-4.7h2.3v-2.3H830C827.8,952,833.4,953.87,834.7,953.57Zm184.2-7h-4.7c2,2.6-.3.3,2.3,2.3v2.3C1019.3,948.57,1017.5,951.17,1018.9,946.57Zm816.3-4.7c-.8,1.6-1.6,3.1-2.3,4.7.2-.1,6.8-3.7,4.7-4.7Zm104.9-2.3c-.8,2.3-1.5,4.7-2.3,7h2.3c1.9-3.1,1.6-2.7,4.7-4.7C1942.1,939.17,1944.8,941,1940.1,939.57Zm-951.5,14c.8-4.7,1.6-9.3,2.3-14h-2.3v2.3h-2.3c-2.6,3.6.5,8.7-2.3,11.7Zm-286.8-2.4h-7v-7c-2.6,2-.3-.3-2.3,2.3-1.6-.8-3.1-1.5-4.7-2.3v2.3c4.2,2.3,13.8,10,16.3,14,2.6-2,.3.3,2.3-2.3h2.3c-.8-1.6-1.5-3.1-2.3-4.7,4.2-5.9,9.3-4.5,11.7-14h-2.3c-3.1,3.8-6.6,4.8-9.3,9.3h-2.3v2.3h2.3c-.8,1.5-1.6,3.1-2.3,4.7C701.5,953.17,703.2,955.87,701.8,951.17Zm137.6-14v2.3h-2.3v2.3h2.3v9.3h2.3c0-6.7.8-10,2.3-14C842.5,937.17,840.9,937.17,839.4,937.17Zm-139.9,0c2.7,2.7,0,.9,4.7,2.3C701.5,936.87,704.1,938.57,699.5,937.17Zm32.6-2.3h4.7v-2.3c-2.6-2-.3.3-2.3-2.3C731.8,932.87,733.5,930.27,732.1,934.87Zm-354.4-4.7v4.7H380C378.6,930.17,380.3,932.87,377.7,930.17Zm610.9-6.9v7h2.3v-7Zm-261.1-7c.8,2.3,1.5,4.7,2.3,7h2.3C730.7,917.67,731.4,918.87,727.5,916.27ZM394,920.87h4.7v-2.3c-2.6-2-.3.3-2.3-2.3h-2.3C394,917.77,394,919.37,394,920.87Zm-16.3,2.4h4.7v14h2.3c2.6-4,1.5-3.2,7-4.7v-4.7H387c-1.4-8.7-1.4-5.3,0-14h-7v2.3h-2.3Zm650.6,4.6h7v-2.3H1026v-14h-2.3v16.3c2.7,2.7.9,0,2.3,4.7C1028.6,929.87,1026.9,932.57,1028.3,927.87Zm-279.9-18.6V914h7v-4.7Zm-25.6,0V914h4.7v-4.7Zm305.5-2.4v4.7h2.3v-4.7Zm-21,0v4.7h2.3v-4.7Zm-317.2,4.7v-4.7c-2.6,2-.3-.3-2.3,2.3h-2.3C688.1,911.87,685.5,910.17,690.1,911.57Zm1373.6-7c2.7,2.7,0,.9,4.7,2.3C2065.7,904.27,2068.4,906,2063.7,904.57Zm-1354.9,4.7h-7c-1.5,6.4-3.1,5.3-4.7,11.7h2.3c3.8-6.6,9.4-7.9,11.7-16.3h-2.3Zm1394.5-7c2.7,2.7,0,.9,4.7,2.3C2105.3,901.87,2108,903.67,2103.3,902.27Zm-797.5,0V907h4.7v-4.7Zm809.2-2.4h-4.7c2,2.6-.3.3,2.3,2.3v2.3C2115.3,901.87,2113.6,904.57,2115,899.87Zm-874.5,0c2.7,2.7,0,.9,4.7,2.3C1242.5,899.57,1245.2,901.27,1240.5,899.87Zm-515.4-2.3v7h2.3v-7Zm1895.9-2.3V900h2.3C2622,895.17,2623.7,897.87,2621,895.27Zm-440.7,0v7h2.3v-7Zm-1709.4,0v-4.7c2.6,2,.3-.3,2.3,2.3h2.3C472.9,895.57,475.6,893.87,470.9,895.27Zm-107.2-4.7v4.7H366C364.7,890.57,366.3,893.17,363.7,890.57Zm387.1,0v4.7c3.1-1.6,6.2-3.1,9.3-4.7v-2.3h-4.7C752.8,890.87,755.4,889.17,750.8,890.57Zm-289.2-2.3h4.7V893h-4.7Zm739.2,2.3h4.7v-2.3c-2.6-2-.3.3-2.3-2.3C1200.5,888.57,1202.3,885.87,1200.8,890.57Zm-492-4.7v7h4.7v-7Zm-303.2-2.3c2.7,2.7,0,.9,4.7,2.3C407.6,883.27,410.3,885,405.6,883.57Zm-9.3-2.3c-1.3,3.6-1.8,3.8-2.3,9.3h2.3v-2.3c1-1.1,4.3-2.9,2.3-7Zm911.8-4.7c.5,5.5,1,5.8,2.3,9.3h2.3C1312.1,878.87,1312.5,879.57,1308.1,876.57Zm-270.5,0v4.7h2.3v-4.7Zm-46.6-2.3c-.8,2.3-1.5,4.7-2.3,7H991V879c1-1.4,3.8-.3,2.3-4.7Zm-35,4.6h4.7v-2.3c-2.6-2-.3.3-2.3-2.3C955.7,876.87,957.4,874.27,956,878.87Zm-212.2-7c-1.3,3.6-1.8,3.8-2.3,9.3h2.3v-4.7c1-1.3,3.8-.3,2.3-4.7A18.48,18.48,0,0,1,743.8,871.87Zm-314.9-2.3c-.8,3.1-1.5,6.2-2.3,9.3h2.3c2-2.6-.3-.3,2.3-2.3.8-1.5,1.6-3.1,2.3-4.7Zm527.1-2.3V872h2.3C957,867.27,958.6,869.87,956,867.27Zm32.6-2.3v7h2.3v-7Zm-284.5,0c2.7,2.6,0,.9,4.7,2.3C706.1,864.57,708.8,866.37,704.1,865Zm363.8-2.4c2.7,2.7,0,.9,4.7,2.3C1069.9,862.27,1072.6,864,1067.9,862.57Zm-321.8,7c6.4-1.7,5.2-.7,7-7C746.7,864.27,747.9,863.27,746.1,869.57Zm-261.2,0h-7c-.8-2.3-1.6-4.7-2.3-7h7v2.3C485.2,867.57,483.5,865,484.9,869.57Zm1805-9.3h4.7V858h-7c-1.9,3.1-1.6,2.7-4.7,4.7,2,2.6-.3.3,2.3,2.3,1.9,3.1,1.6,2.7,4.7,4.7Zm-422.1-4.7v4.7h2.3C1868.8,855.57,1870.4,858.27,1867.8,855.57Zm-79.3,0c2.7,2.7,0,.9,4.7,2.3C1790.5,855.27,1793.2,857,1788.5,855.57Zm-548,0c-1.1,5.6-2.7,7.3-4.7,11.7h2.3V865c1.5-1.3,6.3-5.5,4.7-9.3A17.7,17.7,0,0,0,1240.5,855.57Zm-44.3,0c3.9,5,4.7,4.7,4.7,4.7C1202.6,858,1196.8,856.17,1196.2,855.57Zm-9.3-2.3V858h2.3C1187.9,853.27,1189.5,855.87,1186.9,853.27Zm-181.9,0v7h2.3v-7Zm1700-4.7v7h2.3v-7Zm-1956.6,7c-.8-2.3-1.6-4.7-2.3-7-2.6,2-.3-.3-2.3,2.3h-2.3c2,2.6-.3.3,2.3,2.3C746.4,855.87,743.8,854.17,748.4,855.57Zm438.5-9.3V851h2.3C1187.9,846.27,1189.5,848.87,1186.9,846.27ZM2546.4,844c-.8,1.6-1.6,3.1-2.3,4.7.2-.1,6.8-3.7,4.7-4.7Zm-1210.3,0c-.8,2.3-1.6,4.7-2.3,7h2.3v-2.3h4.7C1342.4,846.27,1336.8,844.57,1336.1,844Zm1359.6-2.4c.8,2.3,1.6,4.7,2.3,7h2.3C2698.9,843,2699.6,844.27,2695.7,841.57Zm-1166,0c.8,2.3,1.6,4.7,2.3,7h2.3v-4.7C1532.8,843.17,1531.2,842.37,1529.7,841.57Zm1180-2.3c2.7,2.7,0,.9,4.7,2.3C2711.7,839,2714.3,840.67,2709.7,839.27Zm-249.6,0V844h2.3v-4.7Zm-569,0V844h2.3v-4.7Zm-608.6,0V844h2.3C1283.5,839.27,1285.1,841.87,1282.5,839.27Zm-11.7,0v7h2.3v-7Zm-28,0c.8,3.9,1.6,7.8,2.3,11.7h4.7c-.3-7.4-4.6-4.4,2.3-7,1.7,6.4.7,5.2,7,7v4.7c2.3,1.6,4.7,3.1,7,4.7C1261.4,851,1254.6,841.77,1242.8,839.27Zm-748.6,0V844c-2.6-2-.3.3-2.3-2.3-2.6-2-.3.3-2.3-2.3C491.1,839.27,492.7,839.27,494.2,839.27ZM2537.1,837h4.7v-2.3c-2.6-2-.3.3-2.3-2.3C2536.8,835,2538.5,832.27,2537.1,837Zm-1492.5-2.4v4.7c2.3-.8,4.7-1.6,7-2.3v2.3c2.7,2.5,2.8,3.6,4.7,7H1054c-2.6,5.8-5.5,9.3-7,16.3h4.7c.8-2.3,1.6-4.7,2.3-7,3.1-2.3,6.2-4.7,9.3-7v-4.7H1061c-1.3,4.7.3,2-2.3,4.7-.8-7.5-2.1-6.9-4.7-11.7,4.7-1.3,2,.3,4.7-2.3-2.3.8-4.7,1.6-7,2.3v-4.7C1049.3,833.07,1046.9,833.87,1044.6,834.57Zm-650.6,14h7c1.8-7.4,5.2-8.5,7-16.3h-2.3c-2.7,2.7,0,.9-4.7,2.3v2.3h-2.3v9.3h-2.3v-2.3h-2.3C394,845.47,394,847.07,394,848.57Zm2311-14c-2.3-.8-4.7-1.5-7-2.3V830c-3.3-.1.9,2.1-2.3,2.3-3.1-.8-6.2-1.6-9.3-2.3v2.3h4.7c2.2,3.5,4.6,3.9,7,7,2.3-.8,4.7-1.6,7-2.3.8-2.3,1.6-4.7,2.3-7h-2.3C2705,831.47,2705,833.07,2705,834.57Zm-468.7,4.7h-4.7c.5-5.5,1-5.8,2.3-9.3h4.7v2.3h-2.3ZM1511,830c-.8,3.9-1.6,7.8-2.3,11.7h2.3V837c1-1.2,4.3-2.9,2.3-7Zm-270.5,0c-.7,1.9-4.8,7.3-2.3,11.7h2.3c.8-3.9,1.6-7.8,2.3-11.7Zm-209.9,0c-.8,2.3-1.5,4.7-2.3,7C1035.4,834.87,1036.1,834,1030.6,830Zm-538.7,0c2.7,2.7.9,0,2.3,4.7h-2.3Zm1042.4-2.4v4.7h2.3C1535.3,827.57,1536.9,830.27,1534.3,827.57ZM1352.4,823c.4,4.5-.1,7.2,2.3,9.3h2.3c.8-1.6,1.5-3.1,2.3-4.7h2.3v-2.3h-2.3v2.3C1357.1,826.07,1354.8,824.47,1352.4,823Zm-30.3,7h-4.7v4.7h16.3v-2.3h-2.3v-9.3h-4.7c.8,3.1,1.6,6.2,2.3,9.3h-4.7a29.07,29.07,0,0,0-2.3-11.7h-2.3v4.7C1322.4,828,1320.7,825.27,1322.1,830Zm-79.3-9.4v4.7c2.6-2,.3.3,2.3-2.3h2.3C1244.8,820.27,1247.5,822,1242.8,820.57Zm545.7-4.6c1.5,2.3,3.1,4.7,4.7,7h2.3v-4.7h-2.3C1790.5,815.67,1793.2,817.37,1788.5,816Zm-279.8,7h4.7v-2.3c-2.3-1.5-4.7-3.1-7-4.7v2.3C1509,821,1507.3,818.27,1508.7,823Zm-1079.8-2.4h4.7v-2.3c-2.6-2-.3.3-2.3-2.3C428.6,818.57,430.4,816,428.9,820.57Zm923.5-7v7h4.7v-7Zm-606.3,7c-.8-2.3-1.6-4.7-2.3-7h-2.3v11.7h2.3c2.3-7-.2-2.6,7-2.3C748.1,820.27,750.8,822,746.1,820.57Zm1124-11.6v7h4.7v-4.7h4.7V809Zm-832.5,0c2.7,2.6,0,.9,4.7,2.3C1039.6,808.67,1042.3,810.37,1037.6,809Zm-237.9,0c2,2.4,4,3.2,7,4.7C804.1,809.57,805.3,810.47,799.7,809Zm-291.5,0h4.7c-2,2.6.3.3-2.3,2.3v2.3C507.9,811,509.6,813.57,508.2,809Zm674-2.4v9.3h2.3v-9.3Zm165.6-9.3c.8,2.3,1.6,4.7,2.3,7h2.3C1351,798.67,1351.7,800,1347.8,797.27Zm-30.3,4.7h4.7v-2.3c-2.6-2-.3.3-2.3-2.3C1317.1,800,1318.8,797.27,1317.5,802Zm51.2-7c2.7,2.6,0,.9,4.7,2.3C1370.8,794.67,1373.4,796.37,1368.7,795Zm-601.6,2.3v-4.7c-2.6,2-.3-.3-2.3,2.3h-2.3C765.1,797.57,762.4,795.87,767.1,797.27Zm-9.3-4.6c-.8,4.7-1.6,9.3-2.3,14,4,2.6,3.2,1.5,4.7,7h2.3c-.8-3.1-1.6-6.2-2.3-9.3h-2.3c.8-3.9,1.6-7.8,2.3-11.7Zm-32.7,0c1.5,6.4,3.1,5.3,4.7,11.7h2.3C730.9,798,729.6,795.47,725.1,792.67Zm729.9-2.4c2.7,2.7,0,.9,4.7,2.3C1457,790,1459.7,791.67,1455,790.27Zm-734.5,0V795h2.3C721.4,790.27,723.1,793,720.5,790.27Zm576,0h4.7v-4.7c-2.3.8-4.7,1.6-7,2.3-.8,4.7-1.6,9.3-2.3,14h2.3v-2.3h2.3Zm37.3-2.3h7v-2.3C1333.4,785.37,1336.4,781.07,1333.8,788Zm-818.6-4.7h4.7c0,6.7.8,10,2.3,14H510.5c-.8-1.6-1.6-3.1-2.3-4.7C512.8,790,513.7,789.37,515.2,783.27Zm293.9-4.6v4.7h2.3v-4.7ZM778.8,781v4.7c-2.3-.8-4.7-1.6-7-2.3v4.7h2.3c.4.4-1.3,7.9,2.3,4.7v-2.3c2.6,2,.3-.3,2.3,2.3H781v-9.3h2.3v4.7H788v4.7h4.7v-2.3c-3.1-1.9-2.7-1.6-4.7-4.7a15.8,15.8,0,0,0,7-7h-7v2.3C785,781,781.9,781,778.8,781Zm1140.3-4.7V781h2.3C1920.1,776.27,1921.7,779,1919.1,776.27Zm-858.2,0V781h2.3C1061.9,776.27,1063.5,779,1060.9,776.27Zm802.2-2.3v4.7h2.3C1864.1,774,1865.8,776.57,1863.1,774Zm-555,0c.2.5,3.4,8.5,4.7,7v-2.3h2.3C1313.1,776.27,1311.1,775.37,1308.1,774Zm-107.3,0c3.9,5,4.7,4.7,4.7,4.7C1207.2,776.37,1201.5,774.57,1200.8,774Zm-802.2,0v4.7h2.3C399.6,774,401.2,776.57,398.6,774Zm942.2-2.3v4.7h2.3C1341.8,771.57,1343.4,774.27,1340.8,771.67Zm-142.3-7h4.7v-2.3c-2.6-2-.3.3-2.3-2.3h-2.3C1198.5,761.57,1198.5,763.07,1198.5,764.67Zm601.7-2.4h4.7c-2-2.6.3-.3-2.3-2.3v-4.7h-2.3C1800.2,757.67,1800.2,760,1800.2,762.27ZM1350.1,753c-.8,1.5-1.6,3.1-2.3,4.7.2-.1,6.8-3.7,4.7-4.7Zm555-2.3h-4.7c2,2.6-.3.3,2.3,2.3v2.3C1905.4,752.67,1903.7,755.27,1905.1,750.67Zm-1373.5,4.6h-4.7c2-2.6-.3-.3,2.3-2.3v-2.3h2.3C531.6,752.17,531.6,753.77,531.6,755.27Zm865.1-9.3c.7,7,.3,6.3,4.7,9.3-1.2-3.1-.9.6-2.3-2.3v-7Zm-1091.3,4.7v-7c-2.3.8-4.7,1.6-7,2.3v2.3h2.3C303.3,751,300.7,749.27,305.4,750.67ZM1546,739c-2.3,3.1-4.7,6.2-7,9.3h7c.7-2,4.5-5.2,2.3-9.3ZM538.6,750.67h-7V746h2.3c.7-3.2-.5.4-2.3-2.3.8-1.6,1.5-3.1,2.3-4.7h2.3Zm1228.9-14v7h2.3v-7Zm-205.2,32.6h4.7c.8,4.7,1.5,9.3,2.3,14h2.3v-14c-3.1-1.9-2.7-1.6-4.7-4.7,3.1-1.9,2.7-1.6,4.7-4.7,2.3,1.6,4.7,3.1,7,4.7v-11.7c-1.6.8-3.1,1.5-4.7,2.3-1.5-3.5,2.3-4.7,2.3-4.7.6-5.5-1.9-4.9-4.7-7-2-2.6.3-.3-2.3-2.3v4.7h2.3c.9,2.6-4,2.9,0,9.3h-2.3v2.3c-2.7-2.7-.9,0-2.3-4.7h-2.3c-.8-5.4-1.6-10.9-2.3-16.3H1560c-1.2,8.7-2.2,7.4-7,11.7v2.3c-2.3.8-4.7,1.6-7,2.3v7h2.3v9.3h2.3v2.3h2.3v-2.3c2-4.4,2.3,4.7,2.3,4.7-3.1,1.9-2.7,1.6-4.7,4.7,2.3-.8,4.7-1.5,7-2.3v9.3h2.3v-4.7h2.3C1562.3,777.07,1562.3,773.17,1562.3,769.27Zm-167.9-32.6v7h2.3v-7Zm513-2.3v4.7h2.3C1908.4,734.27,1910.1,737,1907.4,734.37Zm-573.6,0v4.7h2.3C1334.8,734.27,1336.4,737,1333.8,734.37ZM2600.1,732c2.6,2.7.9,0,2.3,4.7h-2.3ZM454.6,732c2.7,2.7,0,.9,4.7,2.3C456.6,731.67,459.3,733.37,454.6,732Zm1177.7-2.3v4.7c2.6-2,.3.3,2.3-2.3h2.3C1634.3,729.37,1636.9,731.07,1632.3,729.67Zm256.5-7c2.7,2.7,0,.9,4.7,2.3C1890.8,722.37,1893.4,724.07,1888.8,722.67Zm-270.5-2.3v4.7h2.3C1619.3,720.27,1620.9,723,1618.3,720.37Zm-200.6,0v9.3h2.3v-9.3Zm216.9,2.3c2.3-.8,4.7-1.5,7-2.3v-4.7h-2.3v4.7c-1.6-.8-3.1-1.6-4.7-2.3Zm660-9.3c-.8,1.5-1.6,3.1-2.3,4.7.2-.1,6.8-3.7,4.7-4.7Zm-839.6,0c2.7,2.7,0,.9,4.7,2.3C1457,713,1459.7,714.77,1455,713.37Zm-1100.7,0c-2.3,3.1-4.7,6.2-7,9.3,1.7,2.2,4.1.8,4.7,4.7,3.1-.5,8.3-8.6,4.7-14ZM1655.6,711v4.7h2.3V711Zm-23.3-4.6c1.6,2.3,3.1,4.7,4.7,7h2.3v-4.7H1637C1634.3,706,1636.9,707.77,1632.3,706.37Zm-209.9,0v4.7h4.7v-4.7ZM380,725v4.7h2.3V725H380c2.3-3.1,4.7-6.2,7-9.3-3.4-2.2-6.3-3.2-2.3-7h-7c-2-2.6.3-.3-2.3-2.3v4.7h-2.3v11.7C375.3,723.47,377.7,724.17,380,725Zm172.5-11.6h-7v-2.3c4-2.6,3.2-1.5,4.7-7h2.3Zm1023.8-11.7c.8,2.3,1.6,4.7,2.3,7h2.3C1579.6,703.07,1580.2,704.37,1576.3,701.67Zm-1110,0c-2.5,5.7-4.2,7.5-4.7,16.3,2.6,2,.3-.3,2.3,2.3,4.7-1.3,2,.3,4.7-2.3s.9,0,2.3-4.7h-2.3v-11.7A18.48,18.48,0,0,1,466.3,701.67Zm1786.3-2.3c.8,2.3,1.5,4.7,2.3,7h2.3v-7Zm-312.5,0v4.7h2.3C1941.1,699.37,1942.7,702,1940.1,699.37Zm-475.7,28c4.1.5,4.7,2.3,4.7,2.3,3.1-.8,6.2-1.6,9.3-2.3v2.3c2.7,2.7.9,0,2.3,4.7h-7v2.3c-6.2,7.2,1.1,10.4,0,18.7h-2.3c.8,2.3,1.6,4.7,2.3,7-1.6.8-3.1,1.6-4.7,2.3v4.7h2.3c2.6-4,1.5-3.2,7-4.7-.8-3.1-1.5-6.2-2.3-9.3a6.59,6.59,0,0,0,2.3-7H1476v-9.3h2.3c2.6,4,1.5,3.2,7,4.7v-4.7h4.7c.8-3.9,1.6-7.8,2.3-11.7,1.6-.8,3.1-1.6,4.7-2.3.8-3.1,1.5-6.2,2.3-9.3,1.6-.8,3.1-1.6,4.7-2.3v-7c1.2-3.1,2.2,1,2.3-2.3-1.3-1.9-3.4.8-2.3-2.3h2.3v-2.3H1504c-6.8,7.4-11.5,3.4-21,7v2.3h-4.7v2.3c-2.3-.8-4.7-1.5-7-2.3v2.3h-4.7c-.9.5-2.1,3.3-4.7,4.7.8,1.6,1.6,3.1,2.3,4.7h2.3C1465.9,722.67,1465.1,725,1464.4,727.37Zm1140.3-11.7h4.7c.6-7.2,4.7-15.6,9.3-18.7,2-2.6-.3-.3,2.3-2.3v7h-2.3v7c-1.6.8-3.1,1.6-4.7,2.3v4.7h-2.3c-1.5,4.7-3.1,9.3-4.7,14-2.6-2-.3.3-2.3-2.3h-2.3v-2.3h2.3Zm-648.3-16.3v-4.7c-2.6,2-.3-.3-2.3,2.3h-2.3C1954.4,699.67,1951.8,698,1956.4,699.37Zm-121.2-4.7v4.7h2.3C1836.2,694.67,1837.8,697.37,1835.2,694.67Zm-445.5,0c.8,2.3,1.6,4.7,2.3,7,2.6-2,.3.3,2.3-2.3,2.7-2.7.9,0,2.3-4.7Zm1238.3-2.3h4.7v4.7H2628Zm-1161.3,0c-.2,6.1-.6,8-2.3,11.7h2.3v2.3c2.6-2.7.9,0,2.3-4.7h4.7c-.8-3.1-1.6-6.2-2.3-9.3Zm198.2,9.3h4.7c1.3-3.6,1.8-3.8,2.3-9.3-2.6-2-.3.3-2.3-2.3-2.3.8-4.7,1.6-7,2.3C1663.9,695.87,1664.4,696.17,1664.9,701.67Zm-21-11.7v7h2.3v-2.3c2.7-2.7.9,0,2.3-4.7Zm-83.9-2.3c2.7,2.7,0,.9,4.7,2.3C1562,687.37,1564.6,689.07,1560,687.67Zm711.2,7h4.7c-1.1-5.6-2.7-7.3-4.7-11.7h-2.3v7C2271.6,692.67,2269.8,690.07,2271.2,694.67ZM501.2,683c.5,5.5,1,5.8,2.3,9.3h2.3V683Zm1075.1-2.3v4.7h2.3C1577.3,680.67,1578.9,683.37,1576.3,680.67Zm-1016.8,4.7h-4.7v4.7h-2.3v-7c2.3-.8,4.7-1.5,7-2.3Zm1196.4-7v4.7h2.3C1756.9,678.37,1758.5,681,1755.9,678.37ZM1585.6,711v4.7h2.3v-2.3c3.7-2.7,2.2,5.7,2.3,7-6.6-1.6-6.7-4.2-11.7-7v2.3h2.3v7h2.3c.8,2.3,1.6,4.7,2.3,7h-7c-.8-3.1-1.6-6.2-2.3-9.3h-2.3c-.8,5.4-1.6,10.9-2.3,16.3,2.3,1.6,4.7,3.1,7,4.7v4.7h2.3v-2.3h2.3v2.3c4-.5,3.6-4.2,4.7-4.7h4.7v-9.3c8.3-4.6,19.8-18.5,21-30.3h-14v-2.3c2.7-2.7.9,0,2.3-4.7h7c-.8-2.3-1.6-4.7-2.3-7h4.7c2.5-2.7,1.7-4.4,2.3-9.3-4.9,1.7-2.1,2.4-7,0v2.3c-11,5.8-.7,6.1-9.3,14-2.6-4-1.5-3.2-7-4.7v2.3c5.3,3,6.2,3.8,7,11.7C1592.3,706.87,1592.2,709.27,1585.6,711Zm4.7-34.9v9.3h2.3v-9.3Zm-121.3,4.6h-4.7V683h7v-7H1469Zm762.6-7V676h4.7c-.8,2.3-1.6,4.7-2.3,7h2.3c2-2.6-.3-.3,2.3-2.3.8-1.5,1.5-3.1,2.3-4.7-2.6-2-.3.3-2.3-2.3Zm-618,0c1.2,1,2.9,4.3,7,2.3v-2.3Zm-1061.1-4.6h4.7c-2,2.6.3.3-2.3,2.3v2.3C552.2,671.07,554,673.67,552.5,669.07Zm1051.8-2.4v4.7h2.3v-4.7Zm184.2-2.3v4.7h2.3C1789.5,664.37,1791.1,667,1788.5,664.37Zm-214.5,0v11.7h2.3v-11.7Zm-1016.8,0h4.7v4.7h-4.7Zm1770-2.3v14h2.3v-14Zm-865.2,0v4.7h-4.7c.8,1.6,1.6,3.1,2.3,4.7,2.3.8,4.7,1.5,7,2.3v-11.7Zm1044.8-2.4c-2.4,7.3-1.3,3.5,0,11.7h2.3a29.07,29.07,0,0,1,2.3-11.7Zm-247.2,0V662h-2.3c-4.4,2,4.7,2.3,4.7,2.3,2.7-2.7,0-.9,4.7-2.3v-2.3Zm-704.3,0h-4.7c2.3,7.2,2.2,2.2,0,9.3h2.3v-2.3h2.3C1555.3,664.37,1555.3,662.07,1555.3,659.67Zm771.9,0c.8-2.3,1.6-4.7,2.3-7h-2.3c-1.6,2.3-3.1,4.7-4.7,7Zm-426.7,0v4.7h2.3v-2.3c2-4.4,2.3,4.7,2.3,4.7h-9.3v2.3h2.3v2.3h9.3c.8-4.7,1.6-9.3,2.3-14,1.6.8,3.1,1.5,4.7,2.3v-7h-7V655h2.3C1908,658.57,1904.9,658.67,1900.5,659.67Zm-67.7,0c5.5-.5,5.8-1,9.3-2.3-2.7-2.7,0-.9-4.7-2.3v-2.3h-2.3v2.3C1832.5,657.67,1834.2,655.07,1832.8,659.67Zm510.7-9.3c-2,4-6,4.3-2.3,7v2.3c.8,4.4,2.3-4.7,2.3-4.7h2.3C2344.5,650.37,2346.1,653,2343.5,650.37ZM568.9,676.07h-4.7v-4.7h2.3v-2.3h-2.3c-.5-4.8,2.3-4.7,2.3-4.7,1.1-5-2.3-7-2.3-7,.8-2.3,1.6-4.7,2.3-7h4.7c1.9,3.1,1.6,2.7,4.7,4.7C570.3,664.87,569.3,661.07,568.9,676.07Zm1947.2-28c-1,5.8-2.1,8.6-2.3,16.3h2.3v-2.3c3.3,1.5,1.7,2.7,4.7,4.7C2521.1,657.17,2521.6,651.77,2516.1,648.07Zm-720.6,9.3c.5-5.5,1-5.8,2.3-9.3h-2.3v2.3h-9.3v2.3h7V655h-2.3v2.3h-2.3V655c-4.6-.9-3,.8-4.7,2.3,2.7,2.7.9,0,2.3,4.7h2.3C1791.1,658.07,1790,658.87,1795.5,657.37Zm111.9-11.7v4.7h2.3C1908.4,645.67,1910.1,648.37,1907.4,645.67Zm-352.1,0c2.7,2.7,0,.9,4.7,2.3C1557.3,645.37,1560,647.07,1555.3,645.67Zm545.7,2.4h4.7v-2.3c-2.6-2-.3.3-2.3-2.3C2100.7,646.07,2102.4,643.37,2101,648.07Zm-1569.4-4.7v4.7c2.6-2,.3.3,2.3-2.3h2.3C533.6,643.07,536.2,644.77,531.6,643.37Zm942.1-2.3v4.7h2.3C1474.7,641.07,1476.3,643.67,1473.7,641.07Zm1159,44.3H2628c.8-2.3,1.5-4.7,2.3-7,0,0-3.9-2.6-2.3-7h2.3v-4.7c1.5-.8,3.1-1.5,4.7-2.3v-7h2.3v-4.7c1.6-.8,3.1-1.5,4.7-2.3,3.6-6.3-2.6-4.5,4.7-9.3,2-2.6-.3-.3,2.3-2.3v9.3c-7,6.3-2,10.6-4.7,14C2636,671.77,2632.6,665.47,2632.7,685.37Zm-1291.9-44.3v4.7c-5.4.6-5.9.5-9.3,2.3v2.3c-3.7,1.4-4.5-2.3-4.7-2.3-2.3.8-4.7,1.6-7,2.3v-4.7c-10.6.2-15.2,2.2-21,7-.8,1.6-1.5,3.1-2.3,4.7h-7v2.3c-5.9,4.5-6.9,7.9-16.3,9.3-2.9-4.5-2.4-3.9-9.3-4.7-1.6,3.1-3.1,6.2-4.7,9.3-1.6.8-3.1,1.6-4.7,2.3v4.7c-1.5.8-3.1,1.6-4.7,2.3-1.6,4.7-3.1,9.3-4.7,14h-2.3c-.8,1.6-1.5,3.1-2.3,4.7h-4.7c-5,2.3-3.6,2.8-4.7,9.3h2.3v-4.7h4.7c-2,7.5-4.8,7.3-9.3,11.7v2.3h-4.7c.8,2.3,1.6,4.7,2.3,7h-4.7c3.3,8.5,1.7,12.4,0,21-2.6-2-.3.3-2.3-2.3h-2.3c-1.5-2.6-.1-4.7,2.3-4.7v-2.3h-4.7v11.7h-2.3c-1.5,2.4-6.2,9.4-4.7,14,1.6.8,3.1,1.6,4.7,2.3v4.7h-4.7c.9,10.1,1.6,9.3,0,18.7h4.7c-1.9,3.1-1.6,2.7-4.7,4.7-2,2.6.3.3-2.3,2.3,0-6.2-3.6-14.5,0-16.3h-7c-1.6,4.4-2.3,9.1-2.3,16.3h9.3c1.3,3.6,1.8,3.8,2.3,9.3-2.4,2-3.2,4-4.7,7-2.7-2.7-.9,0-2.3-4.7-2.3.8-4.7,1.5-7,2.3v-4.7h-2.3c.8-1.5,1.6-3.1,2.3-4.7h-2.3c-2,2.6.3.3-2.3,2.3,1.4,3.7,2,5.5,2.3,11.7,2.3-.8,4.7-1.6,7-2.3v2.3h2.3c-.8,4.7-1.5,9.3-2.3,14a15.8,15.8,0,0,1,7,7c6-2,11,.5,16.3-2.3,4.7-5.4,9.3-10.9,14-16.3,3.1-.8,6.2-1.6,9.3-2.3.8-1.6,1.5-3.1,2.3-4.7,5.4-4.7,10.9-9.3,16.3-14,.8-1.6,1.6-3.1,2.3-4.7h7v2.3h9.3c4.7-5.4,9.3-10.9,14-16.3,1.6-.8,3.1-1.5,4.7-2.3v-4.7l11.7-9.3c.8-2.3,1.6-4.7,2.3-7,1.5-.8,3.1-1.6,4.7-2.3.8-3.1,1.6-6.2,2.3-9.3h2.3v-4.7h2.3v-4.7c1.6-.8,3.1-1.6,4.7-2.3v-11.7h2.3c3.5-10.7,2.3-26,2.3-39.6h7c1.9,3.1,1.6,2.8,4.7,4.7-2.3,7.8-4.7,15.5-7,23.3h2.3v-2.3c14.6-11.8,16.2-41.5,11.7-65.3-3.6-1.3-3.8-1.8-9.3-2.3C1342.8,641.37,1345.4,639.67,1340.8,641.07Zm1044.7-4.7v9.3h2.3v-9.3Zm-431.4,0c2.6,4.6,3.3,5.5,9.3,7,2-2.6-.3-.3,2.3-2.3-2.7-2.6,0-.9-4.7-2.3v-2.3C1958.8,636.37,1956.4,636.37,1954.1,636.37Zm-25.7,0c2.7,2.7,0,.9,4.7,2.3C1930.4,636.07,1933.1,637.77,1928.4,636.37ZM897.7,648.07v4.7c13.9-1.6,12.3-9.7,25.7-11.7v-4.7C912.8,639,909.7,646.37,897.7,648.07Zm1455.2-9.4c-2.3-.8-4.7-1.5-7-2.3v2.3c3.1,1.9,2.8,1.6,4.7,4.7h2.3v-4.7h2.3v-7h-2.3Zm-119,0h-4.7c1.3,2.5,6.3,4.9,4.7,9.3h-2.3v4.7c2.3-.8,4.7-1.5,7-2.3,0-8.4,1.2-12.6,2.3-18.7C2234.5,633.37,2235.7,632.37,2233.9,638.67Zm-18.6,11.7h4.7v-4.7h4.7c.9-8.3,2.9-7.1,4.7-14-4.9,1.7-2.1,2.4-7,0V634c-4.7,4.2.2,2.9-2.3,7-2.3.8-4.7,1.6-7,2.3C2213.7,645.67,2214.5,648.07,2215.3,650.37Zm-35-14h4.7v-2.3c-2.6-2-.3.3-2.3-2.3C2180,634.37,2181.7,631.77,2180.3,636.37Zm156.2,4.7h4.7c-1.5-6.4-3.1-5.3-4.7-11.7h-2.3v4.7h2.3Zm-30.3-11.7c-.8,2.3-1.6,4.7-2.3,7h2.3c.8-2.3,1.5-4.7,2.3-7Zm-844.2,28c.8-4.7,1.6-9.3,2.3-14-6.9-4.6-6.7-11.4-16.3-14v2.3c7,4.7,3.2,8.8,2.3,18.7C1455.3,653.17,1455.5,655.67,1462,657.37Zm867.5-25.7V627c-2.6,2-.3-.3-2.3,2.3h-2.3C2327.5,632.07,2324.9,630.27,2329.5,631.67Zm-13.9,2.4h4.7c-2-2.6.3-.3-2.3-2.3v-4.7h-2.3C2315.6,629.37,2315.6,631.67,2315.6,634.07Zm-1343.3-7c-10.2,1.6-24.9,4.7-32.6,9.3-.8,1.6-1.6,3.1-2.3,4.7h-9.3c-1.6,2.3-3.1,4.7-4.7,7-3.1.8-6.2,1.6-9.3,2.3-1.6,2.3-3.1,4.7-4.7,7-3.9.8-7.8,1.5-11.7,2.3V662c29.7.6,58.7-11.3,79.3-21C975.4,636.37,973.9,631.67,972.3,627.07Zm1110.1-2.4v7h2.3v-7Zm566.6,14c.6-7.9,1.9-10.8,7-14,2-2.6-.3-.3,2.3-2.3v11.7C2654.2,636.27,2654.7,637.27,2649,638.67Zm-419.7-9.3h4.7c-.8-2.3-1.5-4.7-2.3-7h-2.3C2229.3,624.67,2229.3,627.07,2229.3,629.37Zm-466.4-7c-.8,1.6-1.6,3.1-2.3,4.7.2-.1,6.8-3.7,4.7-4.7Zm65.3-2.3v4.7h2.3v-4.7Zm-16.4,0c-.8,1.6-1.6,3.1-2.3,4.7h2.3v2.3h2.3C1816.9,623.17,1812.1,620.37,1811.8,620.07Zm412.8-2.3v9.3h2.3v-9.3Zm-242.5,11.6h7v4.7h2.3v-9.3h4.7c-2.7-2.7,0-.9-4.7-2.3v-4.7c-4.6,1.5-4.7,3.1-9.3,0v2.3c-2.6,2-.3-.3-2.3,2.3-2.6,3.8,2.9,10.9,0,18.7-1.6.8-3.1,1.6-4.7,2.3.8,2.3,1.6,4.7,2.3,7h2.3v-9.3h2.3C1982.1,637.17,1982.1,633.27,1982.1,629.37Zm-1037.8-2.3c9.7-.3,11-2.9,18.7-4.7v-4.7c-7.8.1-10.6,1.2-16.3,2.3C945.9,622.37,945.1,624.67,944.3,627.07Zm1714.1-11.7c3.5,2.2,3.9,4.6,7,7v4.7h-2.3c-2-2.6.3-.3-2.3-2.3C2659.3,621.17,2658.9,620.87,2658.4,615.37Zm-426.8-2.3c2.7,2.7,0,.9,4.7,2.3C2233.6,612.77,2236.3,614.47,2231.6,613.07Zm-9.3,0c-.8,1.6-1.6,3.1-2.3,4.7.2-.1,6.8-3.7,4.7-4.7Zm-771.9,0v4.7h4.7c.8,2.3,1.5,4.7,2.3,7h4.7v-2.3c-2.7-2.7-.9,0-2.3-4.7h-4.7v-4.7Zm615.6-4.7c-.8,1.6-1.5,3.1-2.3,4.7,1.6.8,3.1,1.6,4.7,2.3v-4.7h2.3C2075,608.47,2066,608.37,2066,608.37Zm606.4-2.3c2.7,2.7.9,0,2.3,4.7h-2.3Zm-869.9,0v4.7h4.7v-4.7Zm415.1,4.7h4.7v-7H2220v2.3C2217.3,608.77,2219,606.07,2217.6,610.77Zm-207.5-7v4.7h2.3v-4.7Zm410.4-2.4v4.7h2.3v-4.7Zm-326.5-2.3v4.7h2.3C2095,599.07,2096.6,601.67,2094,599.07Zm277.5,2.3h4.7v-4.7h2.3c-.8-1.5-1.6-3.1-2.3-4.7-2.6,2-.3-.3-2.3,2.3h-2.3C2371.5,596.77,2371.5,599.07,2371.5,601.37Zm-293.8-9.3c2.7,2.7,0,.9,4.7,2.3C2079.7,591.77,2082.3,593.47,2077.7,592.07Zm-116.6,0c-.8,1.6-1.6,3.1-2.3,4.7h2.3v2.3h2.3C1966.1,595.27,1961.3,592.37,1961.1,592.07Zm-517.7-2.3c.2,9.4,7.2,13,2.3,18.7h4.7c.8-1.6,1.6-3.1,2.3-4.7h2.3c1.2-3.1-1.1-.5-2.3-2.3C1451.1,594.77,1448.4,592.57,1443.4,589.77Zm979.4-2.4c-1.5,6.4-3.1,5.3-4.7,11.7,7.2-1.8,7.9-4.4,9.3-11.7Zm-14,0c-.4,7.1-.9,17-4.7,21h4.7c2.6,9.5,4.8,4.7,9.3,11.7,2.6-2,.3.3,2.3-2.3,2.7-2.7.9,0,2.3-4.7-6.5,1.3-.2,1.8-7,0-1.5-4.6-4.3-11.7,0-16.3H2411v-7c1.6.8,3.1,1.6,4.7,2.3C2413.2,588.07,2414.4,588.87,2408.8,587.37Zm-198.2,0c-3.4,7.6-8.1,11.4-9.3,21h2.3v-2.3c1.9-4.2,2.3,9.3,2.3,9.3h2.3v-4.7c4.9-4.4-.1-1.6,2.3-7C2213.6,597.07,2219.7,595.37,2210.6,587.37Zm354.5-4.6c.8,2.3,1.6,4.7,2.3,7h4.7C2571,586,2568.1,584.67,2565.1,582.77Zm-132.9,7h4.7c-2-2.6.3-.3-2.3-2.3v-4.7h-2.3C2432.2,585.07,2432.2,587.37,2432.2,589.77Zm-49-7v4.7h2.3v-4.7Zm-342.8,21v-9.3c-5-2.9-6.8-6.3-9.3-11.7h-2.3v4.7h2.3c2.5,4.4-2.2,7-2.3,9.3,1.1,2,4.7.8,4.7,4.7h-2.3v2.3h2.3v-2.3C2035.7,602.17,2038,603,2040.4,603.77ZM816.1,587.37h4.7v-2.3c-2.6-2-.3.3-2.3-2.3h-2.3C816.1,584.27,816.1,585.87,816.1,587.37Zm-179.6-4.6v4.7h2.3v-4.7Zm1742-4.7c-.8,2.3-1.6,4.7-2.3,7h2.3v-2.3c1-1.3,3.8-.3,2.3-4.7Zm-42,0v4.7h2.3C2337.5,578.07,2339.2,580.77,2336.5,578.07Zm-1709.3,0v4.7h2.3C628.2,578.07,629.8,580.77,627.2,578.07Zm1471.5-2.3c1.1,1,2.9,4.3,7,2.3v-2.3Zm-1602.1-2.3v4.7h4.7v-4.7Zm1902.9,4.6c-5.7-1.3-5.1-2.4-9.3-4.7,5.1,13.4-4.1,13.3-2.3,23.3,1.6.8,3.1,1.6,4.7,2.3v2.3h-4.7V606c-2.7-2.7-.9,0-2.3-4.7-2.7-2.7-.9,0-2.3-4.7-2.7,2.7-.9,0-2.3,4.7h-2.3c-4.3,2.2,4.7,2.3,4.7,2.3v7c1.6.8,3.1,1.6,4.7,2.3-1.5,7-3.1,14-4.7,21h2.3v-7c2.3-.8,4.7-1.5,7-2.3v4.7h2.3c3.3,6.9-6.2,8.4-4.7,11.7h2.3c2.7,2.7,0,.9,4.7,2.3V634h2.3v2.3c5.2-3.7-.3-3.9,2.3-7h2.3V634c2.6,2.7.9,0,2.3,4.7h2.3c.2-8.8,2.1-10.7,4.7-16.3-6.4-1.7-5.2-.7-7-7-6.8-1.6-7.6-2.6-9.3-9.3h2.3c.8-3.9,1.6-7.8,2.3-11.7,1.6-.8,3.1-1.6,4.7-2.3.1-3.6-4.8-6.1-4.7-11.7h2.3c-.3-4.2-4.2-2.5,0-4.7v-2.3h-2.3v-2.3h-2.3Zm-53.6-7v4.7c2.6-2,.3.3,2.3-2.3h2.3C2347.9,570.77,2350.5,572.47,2345.9,571.07Zm-1529.8,0v7h2.3v-2.3c2.7-2.7.9,0,2.3-4.7Zm1541.4,2.4c5.7,1.3,5.1,2.4,9.3,4.7v-4.7c-2.3-.8-4.7-1.6-7-2.3v-2.3h-2.3Zm-445.4,51.2c6.2-18.7,12.4-37.3,18.7-56-3.6-1.3-3.8-1.8-9.3-2.3v2.3h-18.7c-11.3,3.4-29.5,7.3-35,16.3-6.1,6.1-2.7,15.6-2.3,28h2.3c3.7-3.5,18.9-6.4,25.7-7,1.1,2.2,4.6,4.5,4.7,4.7V620c.3.6,5.4,4.2,7,7C1907.4,626.27,1909.8,625.47,1912.1,624.67Zm457.1-65.2v4.7c2.6-2,.3.3,2.3-2.3h2.3C2371.2,559.07,2373.8,560.87,2369.2,559.47Zm-1704.7,2.3v7h4.7c.5-5.5,1-5.8,2.3-9.3h-2.3C666.5,562.07,669.1,560.37,664.5,561.77Zm-172.6-2.3v7h2.3c2.7,2.7,0,.9,4.7,2.3v-7h-2.3C493.9,559.07,496.6,560.87,491.9,559.47Zm1998.6-4.7c-.8,1.6-1.6,3.1-2.3,4.7h9.3v-2.3C2495.1,556.27,2492.8,555.57,2490.5,554.77Zm-135.3,0c-.8,2.3-1.6,4.7-2.3,7h2.3v-2.3c1-1.4,3.8-.3,2.3-4.7Zm4.7-2.3v4.7h2.3C2360.9,552.37,2362.5,555.07,2359.9,552.47Zm46.6-2.4c2.7,2.7,0,.9,4.7,2.3C2408.5,549.77,2411.2,551.47,2406.5,550.07Zm-1704.7,0v4.7h7v-4.7Zm-53.6,7h-4.7v4.7c4.7-1.6,9.3-3.1,14-4.7v-2.3c-6.4-1.7-5.2-.7-7-7h-2.3Zm58.3-16.3v4.7h2.3C707.5,540.77,709.1,543.37,706.5,540.77Zm-28,0v4.7c4.2-2.2,3.7-3.2,9.3-4.7v-4.7C683.6,538.27,684.1,539.37,678.5,540.77Zm1527.4,0h4.7c-.8-2.3-1.6-4.7-2.3-7H2206C2205.9,536.07,2205.9,538.47,2205.9,540.77Zm-1700-11.7c1.7,6.4.7,5.2,7,7,2.7,2.7,0,.9,4.7,2.3-2.7-2.7,0-.9-4.7-2.3v-7Zm1704.7-2.3v4.7h2.3v-4.7Zm-1408.5,7c-2.7-.1-9.3-2.3-9.3-2.3-.8,1.5-1.5,3.1-2.3,4.7h-4.7v-2.3c2.7-2.7.9,0,2.3-4.7,3.9-.8,7.8-1.5,11.7-2.3C800.5,529.07,801.3,531.47,802.1,533.77Zm-282.2-4.7h4.7v-2.3c-2.6-2-.3.3-2.3-2.3C519.6,527.07,521.3,524.47,519.9,529.07Zm186.6-4.6c-.8,2.3-1.6,4.7-2.3,7h2.3v-2.3h7c.8-2.3,1.5-4.7,2.3-7h-4.7C708.5,524.77,711.1,523.07,706.5,524.47Zm-198.3,2.3v-4.7c-2.6,2-.3-.3-2.3,2.3h-2.3C506.2,527.07,503.6,525.37,508.2,526.77Zm-14-4.7c.8,2.3,1.6,4.7,2.3,7h2.3v-7Zm1308.3,4.7c-6.4,1.5-5.3,3.1-11.7,4.7v4.7h-4.7c-1.5,2.3-3.1,4.7-4.7,7h-2.3c-2.2,3.7.6,6.8-2.3,9.3-2.3.8-4.7,1.6-7,2.3-.8,3.1-1.6,6.2-2.3,9.3-3.1,2.3-6.2,4.7-9.3,7-4.6,6.4-2.6,9.3-11.7,11.7v11.7h-9.3c-1.3,3.1-.9-.7-2.3,2.3v7c-1.6.8-3.1,1.6-4.7,2.3-5.1,5.6-9.6,9.9-11.7,18.7,22.7.3,53-9.2,70-16.3.8-2.3,1.5-4.7,2.3-7h2.3v-16.3h2.3v-11.7c5.7-17.6,13.1-35.2,14-58.3h-2.3v2.3C1804,520.17,1803.6,521.67,1802.5,526.77Zm-963.1,14h7v2.3c2.7,2.7.9,0,2.3,4.7,3.1.8,6.2,1.6,9.3,2.3,1.8,8.7,6.6,13.3,11.7,18.7,1.6.8,3.1,1.6,4.7,2.3v4.7c2.3,1.6,4.7,3.1,7,4.7.8,3.9,1.5,7.8,2.3,11.7H886v4.7h2.3v2.3H886v9.3h-2.3c-.8,3.1-1.6,6.2-2.3,9.3h2.3v2.3h7v-2.3h11.7v-2.3c5.4-.8,10.9-1.6,16.3-2.3v-2.3h7v-2.3H935v-2.3h11.7c32.9-10.6,63.5-15.2,93.3-25.7h9.3v-2.3c6.2-.8,12.4-1.6,18.7-2.3v-2.3c2.6-.4,6.1,4.1,11.7,2.3v-2.3h7c1-.4,1.7-6.2,4.7-4.7v2.3c5.9,4.8,1,5.6,11.7,7v-4.7c2.6,2,.3-.3,2.3,2.3h2.3c.8,4.7,1.6,9.3,2.3,14-3.6,1.3-3.8,1.8-9.3,2.3-2.7-2.7,0-.9-4.7-2.3v4.7c-21,1.6-42,3.1-63,4.7v2.3h-4.7v2.3H1012v2.3h-7v2.3h-7v2.3c-6.8,2.7-23.2.4-28,4.7-2.7,2.7-.9,0-2.3,4.7,2.3-.8,4.7-1.6,7-2.3,0,0,2,3,4.7,2.3v-2.3h7v-2.3c6.7-2.3,31,.5,35,2.3v2.3h4.7v2.3c1.6.8,3.1,1.6,4.7,2.3,1.7,3.1.2,6.2,2.3,9.3h-2.3c-3.6,5.3-10.5,8.8-16.3,11.7h-4.7v2.3h-4.7v2.3h-7v2.3h-4.7V655h-7v2.3h-7v2.3h-4.7v2.3c-4.7.8-9.3,1.6-14,2.3v2.3h-7v2.3h-7v2.3h-7v2.3h-7v2.3h-7V678c-4.7.8-9.3,1.6-14,2.3v2.3c-16.3,4.7-32.7,9.3-49,14-.3,13.7-5.5,23-9.3,32.7-.8,4.7-1.6,9.3-2.3,14h-2.3V748h-2.3c-.8,4.7-1.6,9.3-2.3,14h-2.3v7h-2.3c-1.6,4.7-3.1,9.3-4.7,14h-2.3c-1.6,7-3.1,14-4.7,21h-2.3v-2.3h-2.3c.8,2.3,1.6,4.7,2.3,7h-2.3v4.7c-4.7,3.9-9.3,7.8-14,11.7q-9.3,24.45-18.7,49h-4.7c-.8,11.2-14.2,32.7-23.3,35v-7h-2.3v2.3H758c.8,2.3,1.6,4.7,2.3,7H765c-.8,1.6-1.5,3.1-2.3,4.7-1.6.7-8.3,1.8-9.3,2.3-.3.2-3.5,8.7-4.7,7v-4.7c-3.3-2.9-3.6-6.5-7-9.3v2.3c-2.3.8-4.7,1.6-7,2.3v2.3h4.7c2.7-2.7,0-.9,4.7-2.3.8,7.8,1.6,15.5,2.3,23.3h-2.3V944h-2.3c-.8,3.9-1.6,7.8-2.3,11.7h-14c-1.5,2.3-3.1,4.7-4.7,7h-2.3v4.7c-1.6.8-3.1,1.6-4.7,2.3-.8,3.1-1.6,6.2-2.3,9.3-1.5.8-3.1,1.5-4.7,2.3V986c-1.6.8-3.1,1.6-4.7,2.3-.8,3.1-1.6,6.2-2.3,9.3-1.6.8-3.1,1.6-4.7,2.3-.8,2.3-1.5,4.7-2.3,7h7v-2.3h4.6v-2.3c3.1-2.2,4.1-1.8,9.3-2.3,2.7,2.7,0,.9,4.7,2.3v14h2.3c.6-14.5,5.2-9.9,9.3-18.7-.8-2.3-1.6-4.7-2.3-7H730c3.7-4.2,4.5-2.1,9.3-4.7v-2.3H744c.8-1.6,1.6-3.1,2.3-4.7,3.1-.8,6.2-1.6,9.3-2.3v-2.3h4.7V972c4.7-1.6,9.3-3.1,14-4.7V965h7c1.6-2.3,3.1-4.7,4.7-7h4.7v-2.3h4.7v-2.3c6-3,7-1.4,11.7,0v-4.7h2.3v4.7c2.3.8,4.7,1.6,7,2.3-1.3-5.7-2.4-5.1-4.7-9.3,6.8-1.2,14.9-4.8,18.7-9.3,4,2,.8.3,2.3,4.7H835v-4.7c6.3-5.3,5.2-10.3,16.3-11.7,3.4-11.3,14.4-8.8,21-16.3,4.7,1.3,2-.3,4.7,2.3,9,6.1,9.6,17.1,14,28h2.3v7h2.3v4.7h2.3v7h2.3c1.6,4.7,3.1,9.3,4.7,14h2.3v4.7h2.3c.8,3.1,1.5,6.2,2.3,9.3,1.6.8,3.1,1.6,4.7,2.3v4.7h2.3c-.8,2.3-1.5,4.7-2.3,7-2.3.8-4.7,1.6-7,2.3v2.3h-7v2.3h-7c-5.7,2.5-9,7.4-16.3,9.3-.8-2.3-1.5-4.7-2.3-7-10,7.9.7,5.4-14,4.7v-4.7h-2.3V1021h-2.3v-2.3H856v4.7h7c.8-2.3,1.6-4.7,2.3-7,2.3.8,4.7,1.6,7,2.3-2.3,7.2-2.2,2.2,0,9.3-11.6,3.3-6.3,6.2-11.7,14h-2.3c-2.3,3.1-4.7,6.2-7,9.3h-4.7c-.8,1.6-1.6,3.1-2.3,4.7-6.1,5.7-17.6,18.8-25.7,21,.6-5.3.2-6.2,2.3-9.3h2.3V1063h2.3v-4.7c1.5-.8,3.1-1.5,4.7-2.3v-4.7c1.6-.8,3.1-1.6,4.7-2.3.8-3.1,1.6-6.2,2.3-9.3,1.6-.8,3.1-1.6,4.7-2.3,1.6-4.7,3.1-9.3,4.7-14-12,2.5-14.9,10-28,11.7v4.7c-4.7,1.6-9.3,3.1-14,4.7v2.3c-1.6-.8-3.1-1.6-4.7-2.3v2.3c-4.4,3-4.4,3.7-11.7,4.7v4.7c-6.4,1.7-5.2.7-7,7,7.9-1.6,9-5.1,16.3-7-3.6,10.7-1.2,3-9.3,7v2.3h-4.7v2.3h-4.7c-.8,1.6-1.5,3.1-2.3,4.7-3.9.8-7.8,1.6-11.7,2.3-.8,1.5-1.5,3.1-2.3,4.7h-4.7v2.3h-7c-.8,1.6-1.5,3.1-2.3,4.7-3.9.8-7.8,1.6-11.7,2.3-.8,1.5-1.5,3.1-2.3,4.7h-4.7c-.8,1.6-1.6,3.1-2.3,4.7-4.7,1.6-9.3,3.1-14,4.7v2.3c-2.3.8-4.7,1.5-7,2.3-.8,1.6-1.6,3.1-2.3,4.7h-4.7v2.3h-4.7v2.3h-4.7v2.3h-4.7v2.3h-4.7c-.8,1.6-1.5,3.1-2.3,4.7h-4.7v2.3H669c-2.3,3.1-4.7,6.2-7,9.3-11.3,8-24.6,7-25.7,25.7,2.8-.8,12-4.6,11.7-7h2.3v4.7c-6.3,1.4-11,4.6-14,9.3H634c-.8,5.4-1.6,10.9-2.3,16.3h-2.3v14h-2.3v4.7h-2.3c-.8,2.3-1.5,4.7-2.3,7-2.7-2.7-.9,0-2.3-4.7h-2.3V1196h2.3c2-7.3-3.1-15.5-2.3-18.7h2.3c.8-4.7,1.6-9.3,2.3-14-2.6-2-.3.3-2.3-2.3h-2.3c-1.4,1.6-2.2,9.7-4.7,11.7h-4.7l-9.3,11.7h-4.7l-9.3,11.7h-2.3c-4.1,6.8,3.4,9.4-2.3,16.3-2.7,2.7,0,.9-4.7,2.3v7h-2.3v-2.3c-3.3-2.8-5.1-7.6-7-11.7-2.3.8-4.7,1.6-7,2.3-1.4-6.2-4.5-10.6-7-16.3h-7v-7h-4.7c-1.2-13.2-8.9-19.6-11.7-32.7-9.7.3-11,2.9-18.7,4.7v4.7c-9.9,2.3-14.4,8.5-23.3,11.7v-2.3c-3.1-.8-6.2-1.6-9.3-2.3v-14c3.1-1.5,6.2-3.1,9.3-4.7.8-1.6,1.6-3.1,2.3-4.7h4.7c2.3-3.1,4.7-6.2,7-9.3h4.7c.8-1.6,1.6-3.1,2.3-4.7,2.3-.8,4.7-1.6,7-2.3.8-3.1,1.6-6.2,2.3-9.3,3.1-2.3,6.2-4.7,9.3-7,.8-1.5,1.6-3.1,2.3-4.7h4.7v-2.3c2.3-.8,4.7-1.6,7-2.3,1.6-2.3,3.1-4.7,4.7-7,3.1-.8,6.2-1.6,9.3-2.3v-2.3c2.3-.8,4.7-1.6,7-2.3.8-1.6,1.6-3.1,2.3-4.7h4.7c1.6-2.3,3.1-4.7,4.7-7h4.7c.8-1.6,1.6-3.1,2.3-4.7h4.7c.8-1.6,1.6-3.1,2.3-4.7,3.1-.8,6.2-1.6,9.3-2.3,1.6-2.3,3.1-4.7,4.7-7h4.7c.8-1.6,1.6-3.1,2.3-4.7h4.7c.8-1.6,1.6-3.1,2.3-4.7,3.1-.8,6.2-1.6,9.3-2.3,7.2-3.9,11.6-9.5,21-11.7-3.2-8.6-.5-10.7,2.3-18.7v-9.3c1.6-.8,3.1-1.6,4.7-2.3-.8-2.3-1.5-4.7-2.3-7h2.3c2.6-8.8-2.8-6.6,4.7-11.7,2-2.6-.3-.3,2.3-2.3v7h2.3v-2.3h7v-2.3c-3.1-.8-6.2-1.5-9.3-2.3.8-2.3,1.6-4.7,2.3-7-1.6.8-3.1,1.5-4.7,2.3v-9.3h2.3c1.6-7.8,3.1-15.5,4.7-23.3h2.3v-7H669v-7h2.3v-7h2.3v-9.3h2.3v-7h2.3v-7h2.3v-7h2.3v-7c1.6-.8,3.1-1.5,4.7-2.3.8-2.3,1.6-4.7,2.3-7h2.3v-2.3h-2.3c1.6-7.8,3.1-15.5,4.7-23.3h2.3c2.3-7,4.7-14,7-21,2.4,1.8,2.3,2.9,4.7,4.7-.8-3.1-1.5-6.2-2.3-9.3h-2.3c-1.9-6.1,5.5-24,7-28,1.6-8.5,3.1-17.1,4.7-25.7h2.3c4.9-13,6.6-25.3,11.7-37.3H690c.8,2.3,1.6,4.7,2.3,7H690v2.3c-1.6-.8-3.1-1.6-4.7-2.3-.8,1.6-1.6,3.1-2.3,4.7-3.9,1-4.2-2.2-4.7-2.3-2.3.8-4.7,1.6-7,2.3-.8-1.5-1.6-3.1-2.3-4.7H650.3c-1.1-6-2.2-10.3-2.3-18.7h-7c-1.5-2.3-3.1-4.7-4.7-7H634c-.8-3.9-1.6-7.8-2.3-11.7h-2.3v-7h-2.3v-4.7c-.7-1.1-3.2-2-4.7-4.7,5.3-3,6.1-3.8,7-11.7,3.1-.8,6.2-1.5,9.3-2.3.8-1.6,1.6-3.1,2.3-4.7a5.78,5.78,0,0,1,7,2.3c10.9-.8,21.8-1.6,32.6-2.3v-2.3c8.5-1.6,17.1-3.1,25.7-4.7v-2.3h7v-2.3h9.3v-2.3c9.4-3.5,16-4.3,28-4.7v-14c4.7-3.9,9.3-7.8,14-11.7,9.6-2.8,15.5,9.6,21,11.7,10.4,3.8,23-5.4,30.3-7v2.3c-3.1,1.9-2.7,1.6-4.7,4.7h9.3c4.2-4.2,18-6.4,25.7-7v-4.7c-5.1.8-12.1,3-18.7,0-.8-1.6-1.6-3.1-2.3-4.7H813.5c-1.6-2.3-3.1-4.7-4.7-7-3.9.8-7.8,1.6-11.7,2.3v-2.3l-11.7-9.3v-7c6.4-5.8,7.6-15,11.7-23.3h2.3v-7h2.3v-4.7H804v-7h2.3c.8-4.7,1.6-9.3,2.3-14,3.1-2.3,6.2-4.7,9.3-7,.8-3.1,1.6-6.2,2.3-9.3h2.3c3.9-4.7,7.8-9.3,11.7-14h2.3v4.7C840.5,523.47,839.6,533.47,839.4,540.77Zm-289.2-25.7v4.7h7v-2.3C554.9,516.67,552.5,515.87,550.2,515.07Zm1585.8-4.6v-7c-5.6,1.1-7.3,2.7-11.7,4.7v2.3ZM501.2,491.77c-.8,6.2-1.5,12.4-2.3,18.7h4.7v-11.7h4.7C506.6,492.37,507.6,493.57,501.2,491.77Zm1807.4,128.3v-9.3c6.4-1.5,5.3-3.1,11.7-4.7,1.5-4.7,3.1-9.3,4.7-14,1.6-.8,3.1-1.6,4.7-2.3.8-4.7,1.6-9.3,2.3-14,1.6-.8,3.1-1.6,4.7-2.3.8-2.3,1.5-4.7,2.3-7,2.3-1.6,4.7-3.1,7-4.7-.8-2.3-1.5-4.7-2.3-7,2.3-8.2,6.3-12.2,7-23.3,2.3.8,4.7,1.5,7,2.3v-4.7c3.3-3.9.4-12.2,0-21h-7v-2.3h2.3c2.7-2.7,0-.9,4.7-2.3-.1-2.6-2.3-9.3-2.3-9.3,1.6-.8,3.1-1.6,4.7-2.3,1.4-2.8,1.3-6.8,2.3-9.3h-9.3v2.3h-9.3c-3.4,1.3-24.6,11.9-25.7,14v11.7c4.5,4.7,4.8,16,4.7,25.7-5.7,3.7-1.4,2.6-4.7,7l-11.7,9.3c-.8,2.3-1.6,4.7-2.3,7l-11.7,9.3v2.3c-2.3-.8-4.7-1.5-7-2.3v4.7c-1.6.8-3.1,1.5-4.7,2.3v4.7l-11.7,9.3v7h-2.3v4.7h-2.3v4.7h-2.3c-.8,3.1-1.5,6.2-2.3,9.3h-2.3c-.8,3.9-1.6,7.8-2.3,11.7h-2.3V632h-2.3c-1.6,7.8-3.1,15.5-4.7,23.3h2.3v2.3h11.7c6.9-8.3,19-10,28-16.3.8-1.5,1.6-3.1,2.3-4.7l11.7-9.3c.8-2.3,1.6-4.7,2.3-7A29.58,29.58,0,0,1,2308.6,620.07ZM93.1,482.47c-5.5-.5-5.8-1-9.3-2.3v4.7c1.5.8,3.1,1.6,4.7,2.3v2.3h2.3v-2.3C93.5,484.47,91.7,487.17,93.1,482.47Zm457.1-7c.8,6.2,1.6,12.4,2.3,18.7h7v-4.7h-4.7c1.4-8.7,1.4-5.3,0-14Zm-410.4-16.3v4.7h2.3C140.8,459.17,142.4,461.77,139.8,459.17Zm16.3-2.4v4.7h4.7v-4.7Zm-7,0v7h2.3v-7Zm74.6-11.6v4.7H226C224.7,445.17,226.3,447.77,223.7,445.17Zm-25.6,0v4.7h4.7v-4.7Zm701.9-4.7h4.7c-.8,2.3-1.5,4.7-2.3,7h-4.7v-2.3C900.3,442.47,898.6,445.17,900,440.47Zm-692.6,0v4.7h4.7v-4.7Zm340.5-2.3v7h4.7v-7Zm995.8-2.3h4.7v4.7h-4.7Zm100.2-4.7h4.7v4.7h-4.7Zm-30.3,7c-2.3.8-4.7,1.6-7,2.3,0,0-.4-5-2.3-2.3v4.7c-3.1.8-6.2,1.6-9.3,2.3v2.3h-11.7v2.3c-3.9.8-7.8,1.6-11.7,2.3v2.3c-4.4-1,0-5.2-4.7-4.7V452h-4.7v-4.7c3.9-.8,7.8-1.6,11.7-2.3v-2.3c1.6.8,3.1,1.6,4.7,2.3v-2.3h4.7c.8-1.5,1.6-3.1,2.3-4.7h9.3v-2.3c3.9-.8,7.8-1.6,11.7-2.3v-2.3c4.7-.9,2.9,1.2,4.7,2.3C1613.9,436.17,1612.2,433.47,1613.6,438.17Zm-1492.5,21c-1.3,7.3-2.3,9.8-9.3,11.7.8,2.3,1.5,4.7,2.3,7h4.7c1.4-2.6,4.1-3.7,4.7-4.7v-7c1.6.8,3.1,1.6,4.7,2.3v-4.7c2.3-.8,4.7-1.6,7-2.3,1.6-2.3,3.1-4.7,4.7-7h4.7c.8-1.6,1.6-3.1,2.3-4.7h4.7c.8-1.6,1.6-3.1,2.3-4.7,5.4-3.9,10.9-7.8,16.3-11.7v-2.3h-4.7c-4.1,4.7-5.1,1.9-9.3,4.7-.8,1.6-1.6,3.1-2.3,4.7h-4.7c-1.5,2.3-3.1,4.7-4.7,7h-4.7v2.3c-7.7,2.3-8.1-4.4-9.3-4.7-4.7,1.6-9.3,3.1-14,4.7,2.3,3.6,4,4.3,7,7C125.9,459,124.1,457.77,121.1,459.17Zm790.6-23.3H907c.8-2.3,1.6-4.7,2.3-7h2.3C911.7,431.17,911.7,433.47,911.7,435.87Zm-347.5-9.4v4.7h4.7v-4.7Zm-321.8,0c-.8,2.3-1.6,4.7-2.3,7h4.7v-2.3c2.7-2.7.9,0,2.3-4.7Zm-14,0v4.7h2.3C229.4,426.47,231,429.17,228.4,426.47Zm1396.9-2.3c4.1.6,4.7,2.3,4.7,2.3,2.3-.8,4.7-1.6,7-2.3v2.3h2.3c.8,1.6,1.6,3.1,2.3,4.7-3.1-.8-6.2-1.5-9.3-2.3v2.3h2.3c2.7,3.6-3.8,2.1-4.7,2.3v-2.3c-4.7.8-9.3,1.6-14,2.3v-2.3h4.7c2.7-2.6,0-.9,4.7-2.3Zm625-2.3c2.7,2.7,0,.9,4.7,2.3C2252.3,421.47,2254.9,423.27,2250.3,421.87Zm459.4-2.4c2.7,2.7,0,.9,4.7,2.3C2711.7,419.17,2714.3,420.87,2709.7,419.47Zm-1112.4,7c-2.3-.8-4.7-1.6-7-2.3v-2.3c3.6-1.3,3.8-1.8,9.3-2.3v2.3C1597,424.47,1598.7,421.87,1597.3,426.47Zm-1417.9,2.4h7v2.3c4.2,1.9,1.8,2.9,4.7,0h2.3v-7c-1.5.8-3.1,1.6-4.7,2.3-.8-1.6-1.6-3.1-2.3-4.7-2.9-1.4-6.8-1.2-9.3-2.3v4.7C179.7,426.87,178,424.17,179.4,428.87Zm1478.5-11.7c1,1.4,3.8.3,2.3,4.7h-2.3s-2.4,5.6-4.7,2.3C1654.8,421.87,1656.4,419.47,1657.9,417.17Zm-46.6-2.3v4.7c-5.6-1.4-4.3-.7-7-4.7Zm-1422.5,0v4.7h4.7v-4.7Zm1490.1,2.3v4.7c-7.8.1-10.6,1.2-16.3,2.3v-2.3c7.1-4.8,1-4.3,4.7-9.3h2.3C1672.5,417,1671.9,416.37,1678.9,417.17Zm-23.3-4.7c2.7,2.7.9,0,2.3,4.7h-2.3Zm-1389.9,0v4.7H268C266.7,412.47,268.3,415.17,265.7,412.47Zm-21,0v4.7H247C245.7,412.47,247.3,415.17,244.7,412.47Zm2250.4-2.3c2.7,2.7,0,.9,4.7,2.3C2497.1,409.87,2499.8,411.57,2495.1,410.17Zm-865.2,0h4.7v2.3C1629.9,411.17,1632.6,412.77,1629.9,410.17Zm-14,0h11.7c-1.9,7.5-2.8,6.8-11.7,7Zm-1380.5,0v4.7h2.3C236.4,410.17,238,412.87,235.4,410.17Zm2471.9-2.3c2.7,2.7,0,.9,4.7,2.3C2709.3,407.57,2712,409.27,2707.3,407.87Zm-338.1,0v7c5.8.6,11.1,1.3,14,4.7.8,2.3,1.6,4.7,2.3,7h4.7v7c1.8.9,4.7,4.7,4.7,4.7h16.3v2.3h4.7v2.3c2.3.8,4.7,1.6,7,2.3,1.6,7.9,5.1,9,7,16.3,5.5-.3,5.9-.7,9.3-2.3v2.3h2.3v7c1.6.8,3.1,1.6,4.7,2.3v11.7c3.1,1.6,6.2,3.1,9.3,4.7-.8,2.3-1.6,4.7-2.3,7h2.3c2.7,2.7,0,.9,4.7,2.3.8,3.9,1.5,7.8,2.3,11.7h2.3c1.1,4.1-7.7,39.4-9.3,42-2.3,1.6-4.7,3.1-7,4.7-.8,5.4-1.6,10.9-2.3,16.3h-2.3v9.3h-2.3v4.7h-2.3v18.7c-2.3.8-4.7,1.6-7,2.3.8,2.3,1.5,4.7,2.3,7h-4.7v9.3h-2.3c-2.7-2.7,0-.9-4.7-2.3-2.3,12.3-11.7,22.7-21,28v2.3h-2.3v-2.3h-2.3v2.3c-1.6-.8-3.1-1.6-4.7-2.3v2.3c.5.2,8.5,3.4,7,4.7h-2.3l-30.3,32.7h-4.7c-.8,1.6-1.6,3.1-2.3,4.7h-4.7c-2.3,3.9-4.7,7.8-7,11.7H2346V702h-2.3c-.8,1.6-1.6,3.1-2.3,4.7h-9.3c-.8,1.6-1.5,3.1-2.3,4.7-3.9.8-7.8,1.6-11.7,2.3-1.5,2.3-3.1,4.7-4.7,7h-4.7c-9.5,4.7-4.9,3.1-16.3,2.3-1.8,7-1.4,6.1-9.3,7-.8-2.3-1.6-4.7-2.3-7h-2.3v4.7c-7.8.8-15.5,1.5-23.3,2.3v-2.3h-4.7v-2.3c-3.1-.8-6.2-1.5-9.3-2.3-.8-1.5-1.6-3.1-2.3-4.7h-4.7c-.8-1.6-1.5-3.1-2.3-4.7h-4.7c-5.4-6.2-10.9-12.4-16.3-18.7-3.9-3.3-2.9-1.2-7,0l-9.3-11.7c-1.6-.8-3.1-1.5-4.7-2.3v-4.7c-1.6-.8-3.1-1.6-4.7-2.3-3.1-15.5-6.2-31.1-9.3-46.6,1.6.8,3.1,1.6,4.7,2.3v-2.3c-1.4-1.7-2-14.8,0-21h2.3v-9.3h2.3v-4.7h2.3v-7h2.3v-9.3h2.3c3.1-4.5,3.5-4.4,4.7-11.7-2.3.8-4.7,1.6-7,2.3V562c3-2.9,6-11.4,7-16.3h7v-2.3c-5.8-4.3-3-1.8-2.3-9.3,3.9-3.3,9.1-11.8,11.7-16.3v-4.7c1.6-.8,3.1-1.5,4.7-2.3.8-3.1,1.6-6.2,2.3-9.3h2.3c.8-2.3,1.5-4.7,2.3-7,1.5-.8,3.1-1.6,4.7-2.3v-4.7c2.3-1.5,4.7-3.1,7-4.7v-4.7h2.3l9.3-11.7h4.7v-2.3c3.5-3.2,3-1.2,4.7-7h7c4.2-7.2,12.8-10.7,18.7-16.3,1.6-2.3,3.1-4.7,4.7-7,3.9-.8,7.8-1.6,11.7-2.3v-7h2.3v2.3c4.9,1.5,8.9-5.2,11.7-7v-2.3h9.3v2.3c3.1-.8,6.2-1.6,9.3-2.3.8-2.3,1.6-4.7,2.3-7,4.7.8,9.3,1.6,14,2.3v-2.3h4.7v-2.3C2360.1,404.57,2360.8,407.27,2369.2,407.87Zm-690.3-2.4c-.8,2.3-1.6,4.7-2.3,7-2.7-2.7-.9,0-2.3-4.7-2.6-2-.3.3-2.3-2.3Zm-23.3,0h4.7v2.3C1655.6,406.47,1658.2,408.17,1655.6,405.47Zm622.6-2.3c2.7,2.7,0,.9,4.7,2.3C2280.2,402.87,2282.9,404.57,2278.2,403.17Zm-1723.3,0v4.7h2.3v-4.7Zm1086.7-2.3h4.7v2.3c2.3-.8,4.7-1.5,7-2.3-.8,8.6-1.9,9.8-9.3,11.7C1643.2,408.57,1642.4,404.77,1641.6,400.87Zm-708.9,0v4.7c-5.6-1.4-4.3-.7-7-4.7Zm755.5-4.7h4.7v2.3h-2.3c.5,4,4.2,3.6,4.7,4.7v4.7c-2.6,2-.3-.3-2.3,2.3-2.6-2-.3.3-2.3-2.3h-2.3C1688.2,404,1688.2,400.07,1688.2,396.17Zm1016.8-7v4.7h2.3C2706,389.17,2707.6,391.87,2705,389.17Zm7,11.7h4.7c-.1-2.7-2.3-9.3-2.3-9.3.8-.9,3.7.7,7-4.7-2.6-2-.3.3-2.3-2.3-1.6.8-3.1,1.6-4.7,2.3-1.6,3.1-3.1,6.2-4.7,9.3h2.3Zm-988.8,39.6h7c.8-2.3,1.6-4.7,2.3-7h2.3v9.3c-3.9,3.3-5.8,8.1-7,14h4.7c2.1-.9,1.3-6.6,7-4.7v2.3h2.3c-.8,2.3-1.6,4.7-2.3,7h-2.3v4.7c-1.6.8-3.1,1.6-4.7,2.3.8,3.1,1.5,6.2,2.3,9.3h-7V480h-2.3v7a23.76,23.76,0,0,1,9.3,9.3c-4.7-.8-9.3-1.6-14-2.3v2.3c-7.8,3.1-9.8,2.6-14,9.3v4.7c-4.7,3.9-9.3,7.8-14,11.7v4.7c-1.6.8-3.1,1.6-4.7,2.3-.8,2.3-1.5,4.7-2.3,7h-2.3v4.7c-1.6.8-3.1,1.6-4.7,2.3-.8,3.1-1.6,6.2-2.3,9.3-1.6.8-3.1,1.6-4.7,2.3-1.8,4,3.1,8.4,2.3,9.3h-4.7c-1.6,2.3-3.1,4.7-4.7,7h-2.3c.8,3.9,1.5,7.8,2.3,11.7h-2.3c-2.7,2.7,0,.9-4.7,2.3-.7,4.9-2.1,4.1-2.3,4.7-1.7,4.8,4.1,1.3,0,7-1.6.8-3.1,1.6-4.7,2.3-1.4,3,1.7.1,2.3,2.3-.8,3.9-1.6,7.8-2.3,11.7h-2.3v4.7h-2.3v4.7c-1.5.8-3.1,1.6-4.7,2.3.8,1.6,1.6,3.1,2.3,4.7h-2.3c-.8,3.9-1.6,7.8-2.3,11.7h-2.3c-.8,2.3-1.6,4.7-2.3,7h14v2.3c1.4.1,4.3-2.1,9.3-2.3,2.3-3.1,4.7-6.2,7-9.3h2.3V634c1.6-.8,3.1-1.6,4.7-2.3V627c1.6-.8,3.1-1.5,4.7-2.3V620c1.5-.8,3.1-1.6,4.7-2.3V613h2.3c.8-2.3,1.6-4.7,2.3-7,1.6-.8,3.1-1.6,4.7-2.3V599c2.3-1.5,4.7-3.1,7-4.7v-4.7h2.3c.8-2.3,1.6-4.7,2.3-7,1.6-.8,3.1-1.5,4.7-2.3v-4.7c2.3-1.6,4.7-3.1,7-4.7v-4.7c1.6-.8,3.1-1.6,4.7-2.3v-4.7c2.3-1.6,4.7-3.1,7-4.7v-4.7c3.1-2.3,6.2-4.7,9.3-7v-4.7c3.1-2.3,6.2-4.7,9.3-7v-4.7c3.1-2.3,6.2-4.7,9.3-7v-4.7c2.3-1.5,4.7-3.1,7-4.7v-4.7c2.3-1.6,4.7-3.1,7-4.7v-4.7c2.3-1.6,4.7-3.1,7-4.7v-4.7c3.1-2.3,6.2-4.7,9.3-7v-4.7h2.3l9.3-11.7h14c3.7,3.8,5.8,5.1,11.7,2.3v-2.3c2.3-.8,4.7-1.6,7-2.3.8-1.6,1.6-3.1,2.3-4.7,3.9-.8,7.8-1.5,11.7-2.3v2.3c3.9.8,7.8,1.6,11.7,2.3v2.3h4.7V463h4.7v2.3h4.7c.8,1.6,1.6,3.1,2.3,4.7h4.7c1.5,2.3,3.1,4.7,4.7,7,2.3.8,4.7,1.6,7,2.3V484h4.7c.8,5.3.4,5.9,2.3,9.3h2.3c1.8,4.4-5.6,34.7-7,37.3-1.6.8-3.1,1.5-4.7,2.3v4.7h-2.3v4.7h-2.3c-2.5,5.7-2.5,13.3-4.7,18.7h7c5.9-6.3,8.7-3.5,16.3-7v-2.3c3.1-.8,6.2-1.6,9.3-2.3v-2.3h7v-2.3h4.7v-2.3h4.7v-2.3h4.7v-2.3c9.2-5,18-4.9,21-16.3h2.3v-16.3h2.3c.8-3.1,1.6-6.2,2.3-9.3h2.3c2.3-10.1,4.7-20.2,7-30.3,3.8-10.5,10.2-19.4,11.7-32.6,2.3-.8,4.7-1.6,7-2.3,0-13.1,3.4-17.1,4.7-28-11.4,1-24.8,8.3-35,11.7h-11.7v2.3h-9.3v2.3h-7v2.3h-7v2.3h-7V426h-4.7c-.8,1.6-1.6,3.1-2.3,4.7-3-.2-4.1-4.2-9.3-2.3-1.6.6-1.1,5.4-4.7,4.7-.8-1.6-1.6-3.1-2.3-4.7-6.8-1.4-4.7,3.4-7,4.7h-4.7v2.3h-11.7v-2.3c-2.3.8-4.7,1.5-7,2.3v-2.3c-9.8-5.7-2.8-5.2-7-11.7-5-7.6-10.7,2.1-11.7-16.3H1835c-2.3-5.4-4.7-10.9-7-16.3h-11.7c-2.1,1.8-23.6,2.1-30.3,0v-2.3h-7v-2.3c-8.8-2-7.5,3.9-9.3,4.7h-16.3s-.3,1.6-4.7,2.3C1740.5,406.37,1724.5,419.37,1723.2,440.47Zm-1513.5-21c4.7-.8,9.3-1.6,14-2.3,2.3-3.1,4.7-6.2,7-9.3.7-.4,8-1.8,9.3-2.3v-2.3h-9.3c-.8-3.9-1.6-7.8-2.3-11.7,2.3-.8,4.7-1.6,7-2.3v-4.7h-2.3c-7.2,12.1-13.3,7.3-23.3,14v2.3c-4.7,3.9-9.3,7.8-14,11.7v2.3h2.3c2.6,4,1.5,3.2,7,4.7v-2.3c1.6-.8,3.1-1.5,4.7-2.3C209.7,416.37,209.7,418,209.7,419.47Zm165.6-37.3v4.7h2.3v-4.7Zm2369.3-4.6c2.7,2.7,0,.9,4.7,2.3C2746.6,377.17,2749.3,379,2744.6,377.57Zm-18.6-2.4c-2.3,7.2-2.2,2.2,0,9.3h2.3v-9.3Zm-2511.6-2.3v11.7h2.3c3.7-4.5,8.5-6.3,11.7-11.7-3.6-1.3-3.8-1.8-9.3-2.3C216.4,373.17,219.1,371.47,214.4,372.87Zm2276.1-11.7c.8,3.1,1.5,6.2,2.3,9.3h2.3C2494.4,363.47,2494.8,364.17,2490.5,361.17Zm-1546.2,0c2.8,2.5,6.4,1.7,2.3,4.7v2.3c-2.6,2.1-2-2-2.3-2.3H942C942.8,364.27,943.6,362.77,944.3,361.17Zm-636.6-2.3c.8,4.7,1.5,9.3,2.3,14-2.3.8-4.7,1.6-7,2.3v2.3h4.7c2.6-4,1.5-3.2,7-4.7v-11.7C312.4,360.47,310,359.67,307.7,358.87Zm-60.6-2.3h-7v2.3h2.3v2.3c1.6.8,3.1,1.6,4.7,2.3Zm2506.9-2.4c-2.2,4.2-3.2,3.7-4.7,9.3h2.3c2.2-4.2,3.2-3.7,4.7-9.3Zm-585.4,0c-.8,2.3-1.6,4.7-2.3,7H2178v-4.7c5.7,1.3,5.1,2.4,9.3,4.7v-4.7c-2.3-.8-4.7-1.6-7-2.3v-2.3C2176.4,352.67,2172.5,353.47,2168.6,354.17Zm597-4.6v11.7c7-1.8,6.1-1.4,7-9.3C2770.3,351.07,2768,350.37,2765.6,349.57Zm-555,0v4.7c3.1.8,6.2,1.6,9.3,2.3v-4.7C2216.8,351.07,2213.7,350.37,2210.6,349.57Zm541-2.4v4.7h4.7v-4.7Zm-263.5,7h4.7c-.8-2.3-1.6-4.7-2.3-7h-2.3C2488.1,349.57,2488.1,351.87,2488.1,354.17Zm-328.8,0c-6.2.8-12.4,1.6-18.7,2.3v2.3c-1.6-.8-3.1-1.5-4.7-2.3v2.3h-2.3v2.3h2.3c2.3,3.9-3.4,2-4.7,2.3v7h-2.3c-4.3,4.7-2.4-.3-7,2.3-1.5,2.3-3.1,4.7-4.7,7-2.9,1.5-1.4-1.4-2.3-2.3-4-2.6-3.2-1.5-4.7-7h-4.7v7c-9.1-.8-10.5-3.8-16.3-7v4.7c2.7,2.7.9,0,2.3,4.7h-7c-.8-1.6-1.6-3.1-2.3-4.7-6.6-1.6-5.1,3.9-7,4.7h-11.7v2.3h-14v2.3h-2.3v9.3h2.3c1.6,9.3,3.1,18.7,4.7,28h-2.3v14h2.3v7c-6.4,1.7-5.2.7-7,7-5.8,5.7-4.9,18.7-4.7,30.3,8.5-2.3,17.1-4.7,25.7-7,.8-1.5,1.5-3.1,2.3-4.7,3.1-.8,6.2-1.6,9.3-2.3.8-1.6,1.6-3.1,2.3-4.7,5.4-1.6,10.9-3.1,16.3-4.7v-2.3h4.7V452c6.3-3.5,8.9-4.2,18.7-4.7,2.4-9.4,1-3,7-7,.8-1.6,1.6-3.1,2.3-4.7h11.7v-7c2.3.8,4.7,1.6,7,2.3.8-1.5,1.6-3.1,2.3-4.7,4.7-1.6,9.3-3.1,14-4.7.8-1.6,1.5-3.1,2.3-4.7h7l9.3-11.7h11.7c1.5-2.3,3.1-4.7,4.7-7h4.7c1.6-2.3,3.1-4.7,4.7-7h4.7c.8-1.6,1.6-3.1,2.3-4.7h4.7c1.5-2.3,3.1-4.7,4.7-7h4.7c1.6-2.3,3.1-4.7,4.7-7,2.3-.8,4.7-1.5,7-2.3v-9.3h-4.7c-.8,1.6-1.6,3.1-2.3,4.7-6.2-.8-12.4-1.6-18.7-2.3-.8,1.5-1.6,3.1-2.3,4.7-7.7,2.5-7.2-5.3-11.7-4.7v2.3c-2.3.8-4.7,1.6-7,2.3v2.3h-7c-.8,1.6-1.6,3.1-2.3,4.7-7-.8-14-1.5-21-2.3v-4.7c-2.6,2-.3-.3-2.3,2.3h-2.3v7c-8-1.5-16.7-7-18.7,0h-7v-4.7h4.7v-7c12.8-6.6,5.8-1.9,21,0,.8-4.7,1.6-9.3,2.3-14-2.3-1.6-4.7-3.1-7-4.7V349C2159.6,352.17,2157.9,349.57,2159.3,354.17Zm-1891.3-7c-2,2.4-4,3.2-7,4.7v2.3h2.3v2.3c1.6-.8,3.1-1.6,4.7-2.3.8-2.3,1.6-4.7,2.3-7Zm1924,18.7h4.7c-.8-3.1-1.6-6.2-2.3-9.3,2.6-2,.3.3,2.3-2.3h7c.8-3.1,1.6-6.2,2.3-9.3h-2.3c-4.6,7-8.5,5.1-14,7C2190.4,356.57,2191.2,361.17,2192,365.87Zm-1599.8-21v9.3c6.4-1.7,5.2-.7,7-7C596.9,346.47,594.5,345.67,592.2,344.87Zm1623.1-2.3v4.7h2.3C2216.3,342.57,2217.9,345.17,2215.3,342.57Zm527-2.4v4.7h2.3C2743.3,340.17,2744.9,342.87,2742.3,340.17Zm14-4.6c-.8,1.5-1.6,3.1-2.3,4.7.2-.1,6.8-3.7,4.7-4.7ZM296,330.87h7v-2.3h2.3v-2.3H303V324c-4.7,1.3-2-.3-4.7,2.3S297.4,326.27,296,330.87Zm2567.6-9.3v4.7h-7c-.9,12.7-1.6,7.4-7,14h-2.3v7c-7.2,1.9-7.9,4.4-9.3,11.7h-4.7c-2.8,1.8-2.8,8.9-4.7,11.7l-11.7,9.3v9.3h-2.3v2.3h-7c-2.2,8.4-9,12.7-14,18.7h-2.3V415c-2.3,1.6-4.7,3.1-7,4.7v4.7c-2.3,1.6-4.7,3.1-7,4.7v4.7c-2.3,1.5-4.7,3.1-7,4.7-.8,3.1-1.6,6.2-2.3,9.3-1.6.8-3.1,1.5-4.7,2.3-.8,4.7-1.6,9.3-2.3,14-5.5-.5-5.8-1-9.3-2.3v11.7c-3.1,2.3-6.2,4.7-9.3,7-.8,2.3-1.6,4.7-2.3,7h-7c.8,4.7,1.6,9.3,2.3,14a15.8,15.8,0,0,0-7,7c-2.3-.8-4.7-1.6-7-2.3-2.6,10.2-11.2,13.1-14,23.3h-4.7c-2.1,18-19,23.7-23.3,39.6h-7c0-17.1,8-24.1,16.3-32.6,2.3-1.6,4.7-3.1,7-4.7v-7c1.6-.8,3.1-1.6,4.7-2.3v-4.7l11.7-9.3v-2.3h-2.3c1-7,3.1-7.6,9.3-9.3v-4.7h4.7c-.8-3.1-1.5-6.2-2.3-9.3h7v-7c7.4-4.3,7.1-7.1,11.7-14,1.5-.8,3.1-1.6,4.7-2.3v-7c4.7-3.9,9.3-7.8,14-11.7v-7c5.4-4.7,10.9-9.3,16.3-14v-7c3.1-2.3,6.2-4.7,9.3-7v-7c2.3-.8,4.7-1.6,7-2.3v-2.3c1.6-.8,3.1-1.6,4.7-2.3v-4.7c1.5-.8,3.1-1.5,4.7-2.3v-2.3c1.6-.8,3.1-1.6,4.7-2.3v-4.7h2.3c2.7-3.4,3.3-4.1,4.7-9.3h4.7c9.8-17.3,27.7-26.8,37.3-44.3A52.56,52.56,0,0,1,2863.6,321.57Zm-1546.1,95.6h-4.7c-1,10.5-5.6,12-9.3,18.7-.8,3.1-1.6,6.2-2.3,9.3-2.3,1.6-4.7,3.1-7,4.7v4.7c-1.6.8-3.1,1.6-4.7,2.3-1.6,4.7-3.1,9.3-4.7,14-3.1,2.3-6.2,4.7-9.3,7v4.7c-2.6,4.5-6.7,9.3-9.3,14h7v-4.7c7.8-1.9,12.1-8,18.7-11.7v4.7c-2.3,1.6-4.7,3.1-7,4.7v4.7l-11.7,9.3v4.7c-2.3,1.6-4.7,3.1-7,4.7v4.7l-11.7,9.3v4.7c-5.4,4.7-10.9,9.3-16.3,14V555c-1.6.8-3.1,1.6-4.7,2.3-.4.5-4.7,4.7-4.7,4.7v4.7l-11.7,9.3v4.7c-3.1,2.3-6.2,4.7-9.3,7v4.7c-1.6.8-3.1,1.6-4.7,2.3v4.7c-1.6.8-3.1,1.6-4.7,2.3v4.7c-1.5.8-3.1,1.6-4.7,2.3v4.7c-1.6.8-3.1,1.6-4.7,2.3-.8,3.1-1.6,6.2-2.3,9.3-1.5.8-3.1,1.6-4.7,2.3-.8,3.1-1.6,6.2-2.3,9.3h-2.3c-.8,3.1-1.6,6.2-2.3,9.3h-2.3v7h-2.3c-.8,3.1-1.5,6.2-2.3,9.3h-2.3c-1.6,7-3.1,14-4.7,21h-2.3c-.8,3.9-1.5,7.8-2.3,11.7h-2.3v4.7H1152v7h-2.3c-.8,3.1-1.6,6.2-2.3,9.3h-2.3v7h-2.3c-.8,3.1-1.5,6.2-2.3,9.3h-2.3v7h-2.3v4.7h-2.3v7c-1.6.8-3.1,1.6-4.7,2.3v4.7c-1.5.8-3.1,1.6-4.7,2.3-.8,3.1-1.6,6.2-2.3,9.3-1.6.8-3.1,1.5-4.7,2.3v4.7h-2.3c-.8,3.1-1.5,6.2-2.3,9.3h-2.3v7H1108c-.8,3.1-1.6,6.2-2.3,9.3h-2.3c-.8,4.7-1.5,9.3-2.3,14h-2.3v4.7h-2.3c-.8,5.4-1.6,10.9-2.3,16.3-1.6.8-3.1,1.5-4.7,2.3v4.7h-2.3v7c-3.1,2.3-6.2,4.7-9.3,7v9.3c-1.6.8-3.1,1.5-4.7,2.3-2.7,4.4.1,5.3-4.7,9.3-1.9-3.1-1.6-2.8-4.7-4.7v7h4.7c-1.7,8.8-6.4,12.4-9.3,18.7v7c-2.3,1.5-4.7,3.1-7,4.7v7h-2.3v4.7h-2.3v4.7h-2.3v4.7H1043v4.7h-2.3v4.7h-2.3v4.7h-2.3v4.7h-2.3v4.7h-2.3V961h-2.3v4.7h-2.3v4.7c-1.6.8-3.1,1.6-4.7,2.3v4.7a42.58,42.58,0,0,1-14,14c-10.9,11.4-39-1.5-53.6-4.7-.8-2.3-1.6-4.7-2.3-7-1.6-.8-3.1-1.6-4.7-2.3v-4.7h-2.3c-1.6-4.7-3.1-9.3-4.7-14h-2.3c-.8-4.7-1.6-9.3-2.3-14h-2.3c-5.4-28-10.9-56-16.3-84v-37.3h-2.3c-.8-14.8-1.6-29.5-2.3-44.3-.1-.6-3.1-.7-2.3-4.7h2.3c.8-2.3,1.6-4.7,2.3-7h-2.3c-.8-4.7-1.6-9.3-2.3-14h-2.3v-18.7h-2.3V730c-1.5-.8-3.1-1.6-4.7-2.3.8-7.8,1.6-15.5,2.3-23.3,2.6-2,.3.3,2.3-2.3,5,1.5,6.8,2.4,14,0v-2.3h9.3v2.3c3.9-.8,7.8-1.6,11.7-2.3.8,3.1,1.6,6.2,2.3,9.3,3.1.8,6.2,1.6,9.3,2.3,1.7,7.2,7.2,12.1,9.3,18.7v16.3h-2.3c1.6,7.8,3.1,15.5,4.7,23.3-5.5-.3-5.9-.7-9.3-2.3v2.3h2.3c4.7,8.7-6.4,11.8,2.3,21,2.7-2.7,0-.9,4.7-2.3v11.7h2.3c2.5,8.1-3.4,22-2.3,25.7,1.6.8,3.1,1.5,4.7,2.3,0,0-4,11.9-2.3,16.3,1.5.8,3.1,1.6,4.7,2.3-.8,2.3-1.6,4.7-2.3,7h-2.3c1.5,3.1,3.1,6.2,4.7,9.3-1.9,1.7-10.2,1.1-4.7,4.7a26.88,26.88,0,0,0,9.3,7v-2.3c6.6-5.8,7.2-15.2,11.7-23.3h2.3v-4.7c.8-1.2,3.2-2,4.7-4.7h2.3c1.6,5.4,3.1,10.9,4.7,16.3h2.3c1.3-1.3.3-9.1,4.7-7v2.3c9.3,7.3-3,16.7,11.7,25.6v-2.3H1018v-2.3c.8-1.6,1.6-3.1,2.3-4.7h7c-.8-3.1-1.6-6.2-2.3-9.3,2.8.1,9.3,2.3,9.3,2.3,3.3-2.3-2-1.8,2.3-4.7v9.3h-2.3c-4.1,1.6,7,2.3,7,2.3v-2.3c1.6.8,3.1,1.5,4.7,2.3-.6-1.4-11.7-18.7-11.7-18.7h-4.7c-1.6,6.8-2.6,7.6-9.3,9.3v-4.7c-1.5.8-3.1,1.5-4.7,2.3v-7c-1.6.8-3.1,1.6-4.7,2.3v-2.3h-2.3V844c-2.3-2.6-4.7-1.7-9.3-2.3-.8-3.1-1.6-6.2-2.3-9.3h2.3v-4.7h2.3c1.6-4.7,3.1-9.3,4.7-14,1.6-.8,3.1-1.6,4.7-2.3v-4.7h2.3V802c1.6-.8,3.1-1.6,4.7-2.3.8-2.3,1.6-4.7,2.3-7,2.3-1.5,4.7-3.1,7-4.7v-4.7c1.6-.8,3.1-1.6,4.7-2.3v-4.7c1.6-.8,3.1-1.6,4.7-2.3v-4.7h2.3v-4.7c1.6-.8,3.1-1.5,4.7-2.3,1.6-4.7,3.1-9.3,4.7-14,1.6-.8,3.1-1.6,4.7-2.3v-4.7c2.3-1.6,4.7-3.1,7-4.7v-4.7c1.6-.8,3.1-1.6,4.7-2.3v-4.7c2.3-1.5,4.7-3.1,7-4.7v-4.7c2.3-1.6,4.7-3.1,7-4.7v-4.7c1.5-.8,3.1-1.6,4.7-2.3v-4.7c1.6-.8,3.1-1.6,4.7-2.3v-7c1.6-.8,3.1-1.6,4.7-2.3,2.3-3.1,4.7-6.2,7-9.3h2.3v-4.7c2.3-1.6,4.7-3.1,7-4.7v-4.7h2.3v-4.7c1.6-.8,3.1-1.6,4.7-2.3.8-3.1,1.6-6.2,2.3-9.3,1.6-.8,3.1-1.6,4.7-2.3v-4.7c3.1-2.3,6.2-4.7,9.3-7v-4.7c1.6-.8,3.1-1.6,4.7-2.3v-4.7c2.3-1.6,4.7-3.1,7-4.7.8-4.7,1.6-9.3,2.3-14,1.6-.8,3.1-1.6,4.7-2.3v-2.3h-2.3c.8-1.5,1.5-3.1,2.3-4.7,1.6.8,3.1,1.6,4.7,2.3,3.8-3-2.6-4.4,7-7,1.7-7.9,5.1-11.1,9.3-16.3h2.3c.8-3.1,1.6-6.2,2.3-9.3h2.3c.8-2.3,1.6-4.7,2.3-7,1.6-.8,3.1-1.5,4.7-2.3v-4.7l11.7-9.3c.8-3.1,1.6-6.2,2.3-9.3l11.7-9.3v-4.7c2.3-1.6,4.7-3.1,7-4.7v-4.7c2.3-1.6,4.7-3.1,7-4.7v-4.7c2.3-1.5,4.7-3.1,7-4.7V489c2.3-1.6,4.7-3.1,7-4.7v-4.7l11.7-9.3v-4.7l11.7-9.3v-4.7c3.1-2.3,6.2-4.7,9.3-7v-4.7c2.3-1.6,4.7-3.1,7-4.7v-4.7c2.3-1.5,4.7-3.1,7-4.7v-4.7c2.3-1.6,4.7-3.1,7-4.7v-4.7c1.6-.8,3.1-1.6,4.7-2.3v-4.7c1.6-.8,3.1-1.6,4.7-2.3.8-2.3,1.5-4.7,2.3-7,2.3-1.6,4.7-3.1,7-4.7V386c3.1-2.3,6.2-4.7,9.3-7v-4.7c5.4-4.7,10.9-9.3,16.3-14v-4.7c1.6-.8,3.1-1.6,4.7-2.3,5.1-5.4,11.7-10.6,14-18.7h4.7c3.3-6.3,7.8-12.8,14-16.3V323c-4.9,4.4-5.7,10.6-9.3,16.3-1.6.8-3.1,1.6-4.7,2.3v9.3c-1.6.8-3.1,1.6-4.7,2.3-.8,3.1-1.5,6.2-2.3,9.3-3.1,2.3-6.2,4.7-9.3,7v4.7h-2.3v4.7c-1.5.8-3.1,1.6-4.7,2.3-.8,3.1-1.6,6.2-2.3,9.3-2.3,1.5-4.7,3.1-7,4.7-.8,2.3-1.5,4.7-2.3,7h-4.7c.8,2.3,1.6,4.7,2.3,7C1321.4,411.67,1319.1,410.27,1317.5,417.17ZM312.4,323.87v-4.7h-2.3v2.3h-2.3C310.3,324.17,307.7,322.47,312.4,323.87Zm130.5-11.6V317h4.7v-4.7Zm2343.7-2.4v9.3h2.3v-9.3ZM363.7,291.27c-.8,2.3-1.6,4.7-2.3,7h2.3V296c1-1.4,3.8-.3,2.3-4.7Zm-4.7-2.4h-4.7v2.3h2.3v2.3h2.3C359,292.07,359,290.47,359,288.87Zm1891.3,7v4.7c3.9.8,7.8,1.6,11.7,2.3v2.3h4.7c.8,1.6,1.5,3.1,2.3,4.7h7v2.3c7.8-.8,15.5-1.6,23.3-2.3-.8,7.8-1.6,15.5-2.3,23.3h2.3v4.7h2.3v23.3c1.6.8,3.1,1.6,4.7,2.3-.8,3.1-1.6,6.2-2.3,9.3h2.3v2.3H2304c-1.5,2.3-3.1,4.7-4.7,7H2297c-.8,4.7-1.6,9.3-2.3,14h-2.3c-2.7,2.7,0,.9-4.7,2.3.8,3.1,1.6,6.2,2.3,9.3h-2.3c-2.7,2.7,0,.9-4.7,2.3-2.1,7.9-2.9,4.5-7,9.3h-2.3v9.3c-1,1.5-11.2,6.3-14,7-.8,2.3-1.6,4.7-2.3,7-2.3-.8-4.7-1.5-7-2.3-.8,3.1-1.6,6.2-2.3,9.3-1.5.8-3.1,1.6-4.7,2.3-3.9,4.7-7.8,9.3-11.7,14H2227c-7,7.8-14,15.5-21,23.3h-4.7c-1.6,2.3-3.1,4.7-4.7,7h-4.7c-.8,1.6-1.5,3.1-2.3,4.7-2.3.8-4.7,1.6-7,2.3v2.3h-4.7c-.8,1.6-1.5,3.1-2.3,4.7h-4.7c-.8,1.6-1.6,3.1-2.3,4.7h-4.7c-.8,1.6-1.5,3.1-2.3,4.7h-4.7c-.8,1.6-1.6,3.1-2.3,4.7h-4.7c-.8,1.6-1.5,3.1-2.3,4.7-3.9.8-7.8,1.6-11.7,2.3v2.3h-4.7v2.3h-7v2.3c-1.6-.8-3.1-1.6-4.7-2.3-.8,1.6-1.6,3.1-2.3,4.7a46.85,46.85,0,0,1-16.3,7,111.05,111.05,0,0,0,11.7,35h2.3v4.7h2.3c.8,3.1,1.6,6.2,2.3,9.3,1.6.8,3.1,1.6,4.7,2.3v4.7c3.4,6,7.4,10.5,9.3,18.7h4.7c2.7,10.9,10.1,12.8,11.7,25.7,2.3-.8,4.7-1.6,7-2.3.3,5.9.2,8.2,2.3,11.7h2.3v7c2.3,1.6,4.7,3.1,7,4.7v4.7c1.5.8,3.1,1.6,4.7,2.3v4.7c3.1,1.6,6.2,3.1,9.3,4.7v9.3c1.5.8,3.1,1.6,4.7,2.3,2.3,3.9,4.7,7.8,7,11.7h7c2.1,10.5,10.8,24.5,16.3,32.7,1.6.8,3.1,1.5,4.7,2.3.8,3.1,1.5,6.2,2.3,9.3,4.7,3.9,9.3,7.8,14,11.7v4.7c1.5.8,3.1,1.5,4.7,2.3v4.7h2.3c.8,1.6,1.6,3.1,2.3,4.7h4.7v2.3c3.5,3.2,3,1.2,4.7,7h9.3c1.4,3.7,2,5.5,2.3,11.7h-2.3v7c3.1,2.3,6.2,4.7,9.3,7,4.5,7.2-4.2,5.9,7,9.3v4.7c10.4,9.1,7.9,23,28,23.3v-2.3h11.7c-.8,1.5-1.6,3.1-2.3,4.7h2.3c1.5-2.3,3.1-4.7,4.7-7h16.3v-2.3c10.1-.8,20.2-1.6,30.3-2.3,3.3.4-1,2.3,2.3,2.3v-2.3h2.3v2.3h2.3v-2.3c1.6.8,3.1,1.6,4.7,2.3v-4.7c2.3.8,4.7,1.6,7,2.3.8-1.6,1.5-3.1,2.3-4.7,5.4-2.2,9,2.4,11.7,2.3v-2.3c4.7-.8,9.3-1.6,14-2.3v-2.3c6.1-1.9,10.9,2,14,2.3v-2.3h4.7v-2.3h11.7v-2.3c4.7.8,9.3,1.6,14,2.3v-2.3h4.7V828c2.3.8,4.7,1.6,7,2.3V828h7v-2.3h4.7v-2.3c3.9.8,7.8,1.5,11.7,2.3v-2.3h9.3v-2.3h21v-2.3h14v-2.3c3.9.8,7.8,1.6,11.7,2.3.8-1.6,1.6-3.1,2.3-4.7h2.3v2.3h2.3v-2.3h7c.2,0,1,3,4.7,2.3v-2.3h7v-2.3c2.3.8,4.7,1.5,7,2.3v-2.3h21v-2.3c3.9-.8,7.8-1.6,11.7-2.3v2.3h4.7c.8,1.5,1.6,3.1,2.3,4.7,3.1-.8,6.2-1.6,9.3-2.3v2.3l21,2.3v-2.3h4.7v-2.3h14v-2.3c7.2-2,16.5.5,21,2.3v2.3c3.8,1.2,4.4-2.3,4.7-2.3,3.2-.6-.9,1.6,2.3,2.3,7.9,1.8,19-1.1,23.3-2.3,9.1-2.6,33.7,2.3,35-4.7v4.7c9.4-.7,11.4-3.1,18.7,0v2.3c1.5-.8,3.1-1.6,4.7-2.3,1.6,2.3,3.1,4.7,4.7,7h4.7v2.3c6.2,4,4.4-2.3,7,7h2.3v4.7h2.3c.8,2.3,1.6,4.7,2.3,7a3.71,3.71,0,0,0-2.3,4.7h2.3c.8,6.2,1.5,12.4,2.3,18.7h-2.3v2.3c-2-1.2-6.9-7-7-7-3.1.8-6.2,1.6-9.3,2.3-.8-1.6-1.5-3.1-2.3-4.7-2.3.8-4.7,1.6-7,2.3-.8-1.6-1.6-3.1-2.3-4.7-9.3.8-18.7,1.5-28,2.3-.8,4.7-1.6,9.3-2.3,14h-7c-1.4.8-5.3,17.2-11.7,7v4.7h-4.7v7h-2.3v2.3H2717c-1.6,2.3-3.1,4.7-4.7,7-7,1.6-14,3.1-21,4.7v2.3c-3.9.8-7.8,1.6-11.7,2.3v2.3c-3.1.8-6.2,1.5-9.3,2.3v2.3h-7v2.3c-3.9.8-7.8,1.6-11.7,2.3v2.3c-2.7,2.7-.9,0-2.3,4.7-2.3.8-4.7,1.6-7,2.3v2.3h-7c-1.6,2.3-3.1,4.7-4.7,7h-2.3v-2.3h-4.7c-3.5,11.1-2.1,2.3-9.3,7-.8,1.6-1.6,3.1-2.3,4.7h-2.3c-1.9,2.7-1.8,9.8-4.7,11.7h-7v2.3c-9,4.6-13.3,2.9-16.3,14-6.4,1.7-5.2.7-7,7H2570v2.3h2.3c-1.6,4.7-3.1,9.3-4.7,14-1.6-.8-3.1-1.6-4.7-2.3-.8,3.1-1.6,6.2-2.3,9.3-2.3-.8-4.7-1.6-7-2.3-.8,1.6-1.6,3.1-2.3,4.7H2549v9.3h-2.3v2.3c-1.6-.8-3.1-1.6-4.7-2.3v2.3h-2.3v7h4.7c-1.5,5.4-2.1,5.5-4.7,9.3h-2.3v9.3h-2.3c.8,3.9,1.6,7.8,2.3,11.7h2.3v25.7c-3.1,1.9-2.7,1.6-4.7,4.7-24.9-4.7-49.8-9.3-74.6-14h-16.3v-2.3h-18.7v-2.3h-16.3V1066h-9.3v-2.3c-3.9.8-7.8,1.5-11.7,2.3v-2.3h-9.3v-2.3h-9.3v-2.3c-2.3.8-4.7,1.6-7,2.3v-2.3h-11.7s.2-1.9-4.7-2.3h-14c-2.1,1.7.9,3.2-2.3,2.3-.8-1.5-1.6-3.1-2.3-4.7-5.3-1.9-6.5,2.9-9.3,2.3v-2.3c-3.9-.8-7.8-1.6-11.7-2.3v-2.3c-3.8-1-4.4,2.3-4.7,2.3-8.5-.8-17.1-1.6-25.7-2.3-1.5-2.3-3.1-4.7-4.7-7h-32.6c-.8-1.6-1.6-3.1-2.3-4.7-3.3.3.9,1.9-2.3,2.3-7.8-.8-15.5-1.6-23.3-2.3v-2.3h-2.3v2.3h-18.7v-2.3c-4.7.8-9.3,1.5-14,2.3v-4.7c-10.1,1.5-20.2,3.1-30.3,4.7v-2.3h-14s-.2-1.5-4.7-2.3c-2-2.6.3-.3-2.3-2.3v-7h-4.7v7h-11.7v-4.7c-4,1.5-7,.8-11.7,2.3v2.3h-30.3v2.3h-21v2.3c-1.6.2-6.1-3.8-11.7-2.3v2.3h-16.3v2.3h-4.7v2.3c-3.6,1.1-4.6-2.3-4.7-2.3-1.6.8-3.1,1.6-4.7,2.3-9.8,1.4-51.7,1.4-56-2.3,5.5-.5,5.9-.6,9.3-2.3v-2.3c4.7.8,9.3,1.5,14,2.3v-2.3h7v-2.3h14v-2.3c3.1-.8,6.2-1.6,9.3-2.3v-2.3c1.5.8,3.1,1.6,4.7,2.3,6.9.1,5.7-4.3,7-4.7,2.3,1.5,4.7,3.1,7,4.7v-2.3c4.4-2.9,3.9-2.4,4.7-9.3-3.6-1.3-3.8-1.8-9.3-2.3v2.3h-14v2.3h-2.3c.8,1.6,1.5,3.1,2.3,4.7h-2.3v2.3c-15-5.8-15.3,3.1-23.3,2.3v-2.3c-9.7-2.4-15.9,3.1-21,4.7h-16.3v-2.3h-2.3v2.3h-4.7v2.3c-2.3-.8-4.7-1.5-7-2.3v2.3c-4.7.8-9.3,1.6-14,2.3v2.3h-11.7v2.3c-7.2,3.4-8.1,4.2-18.7,4.7,2.3-7.2,2.2-2.2,0-9.3h-4.7v2.3h2.3v7h-25.7v-2.3h2.3v-7c3.9.8,7.8,1.5,11.7,2.3.8-1.6,1.6-3.1,2.3-4.7-3-1.4-5-2.3-7-4.7,8.3.4,12.6,2.4,16.3,0,.8-1.6,1.6-3.1,2.3-4.7h7c9.8-1.2,14.1-2.9,16.3-11.7,2.3-.8,4.7-1.6,7-2.3v-2.3c-7.4.3-4.4,4.6-7-2.3,3.7-1.4,5.5-2,11.7-2.3-.8,3.1-1.6,6.2-2.3,9.3,6.4-.9,7.2.3,9.3-4.7,0,0,.5-5.1,2.3-2.3v4.7c3.9-.8,7.8-1.6,11.7-2.3v-2.3h9.3v-2.3c3.1-.8,6.2-1.6,9.3-2.3.8-1.6,1.6-3.1,2.3-4.7h4.7c.8-1.6,1.6-3.1,2.3-4.7,4.7-1.5,9.3-3.1,14-4.7-2-2.6.3-.3-2.3-2.3-3.1-14.1-16.6-25.9-35-25.7-1.1,1.2-14.4,7.8-16.3,7v-2.3c-3.1-.8-6.2-1.5-9.3-2.3v4.7c-2.3.8-4.7,1.5-7,2.3-.8,1.5-1.6,3.1-2.3,4.7h-4.7c-.8,1.6-1.6,3.1-2.3,4.7h-4.7c-.8,1.6-1.6,3.1-2.3,4.7h-4.7v2.3c-2.3.8-4.7,1.6-7,2.3,2.7,2.7,0,.9,4.7,2.3v4.7h-2.3c.8,2.3,1.6,4.7,2.3,7-2.3.8-4.7,1.6-7,2.3,1.3,4.7-.3,2,2.3,4.7s0,.9,4.7,2.3v4.7c-7.7-2-6.8-5.3-11.7-9.3,0,6.7-.8,10-2.3,14h-4.7V1015c-3.3,0,1,2.2-2.3,2.3-4.7-.8-9.3-1.5-14-2.3v-2.3c9.5-4.7,5.3-.7,4.7-11.7h-2.3v2.3c-4.4,2.5-7-2.1-9.3-2.3v2.3h-4.7v2.3c-8.6,3-23.3-3.3-28-2.3v2.3h-4.7v2.3c-3.6.8-3.1-4-4.7-4.7h-7v-4.7h-2.3v7c-8.3.7-9.2,3.1-16.3,4.7v-4.7h-2.3c-.8,2.3-1.5,4.7-2.3,7-3.3,1.1-3.4-4.4-4.7-4.7-4.7.8-9.3,1.5-14,2.3,0,0-2-3.3-7-2.3v2.3c-5.9,1.4-8.5-2-11.7-2.3-6.5,3.4-27.2,4.7-37.3,4.7v4.7c-1.6-.8-3.1-1.5-4.7-2.3v-2.3c-3.5-.9-3.3,4.4-4.7,4.7-2.3-.8-4.7-1.5-7-2.3v4.7c-9.3.8-18.7,1.5-28,2.3v4.7c-8.7-1.4-5.3-1.4-14,0v4.7c-10.1-3.5-14.5,1-23.3,4.7h-7c-.8,1.5-1.6,3.1-2.3,4.7h-4.7c-2.3,3.9-4.7,7.8-7,11.7-3.9-.8-7.8-1.6-11.7-2.3v-4.7h-9.3c-1.7,6.4-.7,5.2-7,7v4.7c3.9.8,7.8,1.6,11.7,2.3,1.6-2.3,3.1-4.7,4.7-7,4.3-1.9,7,2.3,7,2.3,10.7,2.3,13.9.3,16.3-7-3.1-1.9-2.7-1.6-4.7-4.7h7c1.4,2.6,1.7,5.8,4.7,7,1.7-2.2,1.8-6.1,7-4.7.8,1.6,1.6,3.1,2.3,4.7h4.7c-2,2.6.3.3-2.3,2.3v2.3c-3.5,1.6-4.7-2.3-4.7-2.3-2.3.8-4.7,1.6-7,2.3.8,1.6,1.6,3.1,2.3,4.7h-2.3c-2.7,2.7,0,.9-4.7,2.3v7c2.6-2,.3.3,2.3-2.3,4.7,1.6,9.3,3.1,14,4.7v-2.3h7v-2.3h14v2.3h-2.3c-3.5,4-4.1,2.5-9.3,4.7v2.3c-3.1-.8-6.2-1.6-9.3-2.3v2.3h-7v2.3h-16.3v2.3c-4,1.2-11.3-2.6-11.7-2.3v4.7c-3.2.6-.9-.1-2.3-2.3-6.7,4.9-1,6.4-14,7-.8-1.5-1.6-3.1-2.3-4.7,2.3-1.6,4.7-3.1,7-4.7v-2.3h7v-2.3c-4.4-1.6-9.1-2.3-16.3-2.3v2.3h-7v2.3h2.3v2.3h9.3v2.3c-2.6,2-.3-.3-2.3,2.3-2.6,1.4-3.6,4-4.7,4.7h-4.7v2.3h-11.7v2.3c-6.6,3-9.7,4.1-18.7,4.7v-2.3h-7v-2.3h2.3c1.5-2.6.1-4.7-2.3-4.7v-2.3h4.7c2.7-2.7,0-.9,4.7-2.3.8,2.3,1.6,4.7,2.3,7h7v-9.3h-21c-.8,1.6-1.5,3.1-2.3,4.7h-4.7v-4.7c-5.4.8-10.9,1.6-16.3,2.3v2.3c-3.9.8-4.1-2.2-4.7-2.3h-11.7c-.8-4.7-1.6-9.3-2.3-14h2.3v-11.7h-2.3v4.7h-2.3c-1.8,3.4,2.3,4.7,2.3,4.7-.8,1.6-1.5,3.1-2.3,4.7-2.6,2-.3-.3-2.3,2.3h-2.3c-.8-3.1-1.6-6.2-2.3-9.3h2.3v-2.3h-4.7c-2-2.6.3-.3-2.3-2.3.8,1.9,5,9.5,2.3,14h-2.3c-2.7-2.7,0-.9-4.7-2.3-.8,6.2-1.6,12.4-2.3,18.7-6,1.1-10.3,2.2-18.7,2.3.8,2.3,1.6,4.7,2.3,7h-2.3c-7.3-11.9-5.9-1.4-14,0-7.7-10.5-11.5-.5-18.7,2.3h-11.7c-.8,1.6-1.5,3.1-2.3,4.7h-2.3V1104c-7,.8-14,1.5-21,2.3v2.3c-3.1.8-6.2,1.6-9.3,2.3v2.3c-2.3-1.6-4.7-3.1-7-4.7v2.3h-7v2.3h-4.7v2.3c-3.1-.8-6.2-1.5-9.3-2.3v2.3c-3.1.8-6.2,1.6-9.3,2.3v-9.3h-2.3c-2.3,3.8-5.4,9.7-11.7,9.3v-2.3h-7c-.8,1.6-1.6,3.1-2.3,4.7h-4.7v2.3h-9.3v2.3h-11.7c-3.2.8.9,2-2.3,2.3v-2.3h-2.3v2.3c-4.7.8-9.3,1.6-14,2.3v2.3c-3.9-.8-7.8-1.6-11.7-2.3v2.3h-4.7v2.3h-21c1.7-6.4.7-5.2,7-7v-2.3c5.4-.8,10.9-1.6,16.3-2.3V1120h9.3v-2.3c3.9-.8,7.8-1.6,11.7-2.3.8-1.5,1.6-3.1,2.3-4.7,3.1.8,6.2,1.6,9.3,2.3v-2.3c5.4-2,8.8-2.1,16.3-2.3v-4.7c2.5.9,4.6,4.1,9.3,2.3.8-1.6,1.6-3.1,2.3-4.7h4.7V1099h14v-2.3c9.5-2.9,14.7,1.8,21-4.7h2.3v-7c-2.6-2-.3.3-2.3-2.3-1.5.8-3.1,1.6-4.7,2.3v-2.3c-4.3-3.8-5.8-12-7-18.7-5.8-1.2-17-5-25.7-2.3v2.3h-9.3v2.3c-7.8,2.7-13.4,1.2-18.7,0v2.3c-6.4,3.4-7.2,5.3-14,2.3v4.7c-1.7.9-4.7-4-9.3-2.3v2.3H1247v2.3h-7v2.3c-7.1,2.8-40.6,8-44.3,4.7v4.7c-4.3,3.7-3.2.3-9.3,0,.8-2.3,1.6-4.7,2.3-7,2.3-.8,4.7-1.6,7-2.3V1078h4.7v-2.3c8.3-3.2,12.7,1.4,18.7-4.7-26.6.1-45,13.5-70,16.3v7h-2.3c-2.7,2.7,0,.9-4.7,2.3v2.3c-4.7-.8-9.3-1.6-14-2.3-15-1.2-30.1,1.4-42,2.3-1,5.1-1.5,6.6-4.7,9.3v-2.3a32,32,0,0,1-11.7-11.7c-10.7,5.9-13.3,13.6-30.3,14-2.3-2.8-6-5.2-9.3-7-1.5,6.4-4.4,8.6-7,14-7.8-1.5-15.5-3.1-23.3-4.7-16.4,4.2-25.3,8-44.3,4.7.8,3.1,1.6,6.2,2.3,9.3h-2.3c-4.9-9-11.2-11.9-25.7-11.7-4.6,5.5-12.3,7.8-16.3,14-1.9-.9-4.7-4.7-4.7-4.7-9-4.1-20.9,1.8-28-4.7h-2.3v-7c2.6-2,.3.3,2.3-2.3,11.3-.2,19.7-4.3,28-7,7-.8,14-1.5,21-2.3v-2.3h11.7s.1,4.7,2.3,2.3v-4.7c2.7-2.7.9,0,2.3-4.7h9.3v-2.3h35c1.6-2.3,3.1-4.7,4.7-7,3.9-.8,7.8-1.6,11.7-2.3v-2.3c12-3.9,28.6,2.1,39.6-2.3v-2.3h4.7v-2.3h4.7c6.1-3.2,10.5-7.4,18.7-9.3-.8,2.3-1.5,4.7-2.3,7h2.3V1064c4.7-.8,9.3-1.6,14-2.3v-2.3h7v-2.3h7v-2.3h7v-2.3c5.4-.8,10.9-1.6,16.3-2.3v-2.3c10.9-1.6,21.8-3.1,32.6-4.7v-2.3c4.7-.8,9.3-1.6,14-2.3v-2.3h4.7V1034h4.7v-2.3c4.7-1.5,9.3-3.1,14-4.7v-2.3h7v-2.3c13.9-5.1,37,2,51.3-2.3,16.3-5.4,32.7-10.9,49-16.3,16.3-1.5,32.6-3.1,49-4.7,11.7-3.9,23.3-7.8,35-11.7.8,1.6,1.6,3.1,2.3,4.7,13.2-2.3,26.4-4.7,39.6-7v7h2.3c5.3-6.2,14.8-6.1,23.3-9.3v-2.3h4.7v-2.3c3-1.4,1.3,1.2,2.3,2.3,4.5,2.9,3.9,2.4,4.7,9.3H1464v7c3.1-.8,6.2-1.6,9.3-2.3a4.16,4.16,0,0,0,4.7,2.3v-2.3h11.7v-2.3h14v-2.3h9.3v-2.3c1.6.8,3.1,1.6,4.7,2.3v-2.3h7v-2.3h18.7V983c4.7-.8,9.3-1.6,14-2.3v-2.3h2.3v2.3h9.3V983c17.9-1.6,35.8-3.1,53.6-4.7.8-1.6,1.5-3.1,2.3-4.7h18.7v-2.3c7.8-.8,15.5-1.6,23.3-2.3v-4.7c17.9-1.6,35.8-3.1,53.6-4.7v-4.7c19.6.3,39.3.2,53.6-4.7h9.3c.8-1.6,1.6-3.1,2.3-4.7,9.6-2.7,6.6,13,11.7,2.3h4.7v-2.3c2.3-1.6,4.7-3.1,7-4.7v4.7c3.1-.8,6.2-1.6,9.3-2.3v-2.3c2.6-.7,4.1,3.8,9.3,2.3v-2.3h9.3v-2.3h11.7v-2.3c3.9.8,7.8,1.5,11.7,2.3v-2.3h4.7V934h16.3v-2.3h18.7v-2.3h2.3c2.3.8,4.7,1.6,7,2.3.8-1.6,1.6-3.1,2.3-4.7.4-.1,7,3.7,11.7,2.3,9.6-2.7,15.3-6.6,28-7v-4.7c2.7,2.7.9,0,2.3,4.7,9.1-.7,14.5-4.8,21-7H1998V913q35-5.85,70-11.7c1.1.5.9,3.9,4.7,4.7.8-1.5,1.6-3.1,2.3-4.7,5.4-.8,10.9-1.6,16.3-2.3v-2.3c6.2-.8,12.4-1.6,18.7-2.3v-2.3c4.7.8,9.3,1.6,14,2.3.8-1.6,1.5-3.1,2.3-4.7,5.3-2.2,9,2,11.7,2.3v-2.3h4.7v-2.3h9.3v-2.3h2.3v2.3h4.7v-2.3h2.3v2.3h4.7c.7.4,2.3,3.4,4.7,4.7-1.3-3.6-1.8-3.8-2.3-9.3h2.3c4.8,4.4,14.5.5,23.3,0v-4.7c7.8-2.3,15.5-4.7,23.3-7H2229v-2.3c7-.8,14-1.6,21-2.3v-2.3c4.7-1.4,13.9,2.4,14,2.3.8-1.6,1.5-3.1,2.3-4.7,3.1.8,6.2,1.6,9.3,2.3-3.9-4.9-8.8-5.5-14-9.3-7-8.6-14-17.1-21-25.7h-7v-7h-2.3c-2.7-2.7,0-.9-4.7-2.3-1.4-5.6-.7-4.3-4.7-7-1.4-.9-8.6-2.2-16.3-2.3,2.2-8,3-4.4,7-9.3-2.3-1.6-4.7-3.1-7-4.7v-4.7c-10.1-9.3-20.2-18.7-30.3-28l-9.3-11.7h-9.3c.3-5.5.7-5.9,2.3-9.3h-2.3c-2.7-2.7,0-.9-4.7-2.3v-4.7c-5-2.8-5.1-5.3-11.7-7v-4.7c-9.3-8.5-18.7-17.1-28-25.7v-4.7c-14.8-14-29.5-28-44.3-42-.8-2.3-1.6-4.7-2.3-7-2.3-1.6-4.7-3.1-7-4.7-4.7-5.4-9.3-10.9-14-16.3-4.7-3.9-9.3-7.8-14-11.7.8-1.5,1.6-3.1,2.3-4.7h-2.3v2.3c-3.1.8-5.9-6.5-7-7h-7a42.64,42.64,0,0,0,2.3,11.7h-2.3V619c-1.6.8-3.1,1.6-4.7,2.3-.8,3.1-1.6,6.2-2.3,9.3-1.5.8-3.1,1.5-4.7,2.3-1.6,4.7-3.1,9.3-4.7,14-1.6.8-3.1,1.6-4.7,2.3-.8,3.1-1.5,6.2-2.3,9.3-1.6.8-3.1,1.5-4.7,2.3v4.7c-2.3-.8-4.7-1.6-7-2.3v2.3h4.7c-1.2,5.9-9.8,12.3-4.7,16.3h-4.7c-1.3-1-.3-3.8-4.7-2.3v2.3c-3.1,2.9-1.7.4,0,4.7-3,3-3-2.6-4.7,2.3.1.2,4.4,2.2,2.3,7-1.6.8-3.1,1.6-4.7,2.3v7h-2.3v4.7c-2.3,1.6-4.7,3.1-7,4.7.8,1.5,1.5,3.1,2.3,4.7h-2.3c-.8,4.7-1.6,9.3-2.3,14h-4.7c.8,1.6,1.6,3.1,2.3,4.7h-2.3v4.7h-2.3v4.7c-1.6.8-3.1,1.6-4.7,2.3v7h-2.3v4.7h-2.3v7c-1.6.8-3.1,1.5-4.7,2.3v4.7c-1.6.8-3.1,1.6-4.7,2.3v4.7h-2.3c-.8,2.3-1.5,4.7-2.3,7-1.6.8-3.1,1.6-4.7,2.3v4.7c-3.1,2.3-6.2,4.7-9.3,7-.8,2.3-1.6,4.7-2.3,7h-4.7c-.8,2.3-1.6,4.7-2.3,7h2.3V822h2.3c.8,4.7,1.6,9.3,2.3,14h7v2.3c-1.6.8-3.1,1.5-4.7,2.3,1.6,5.4,3.1,10.9,4.7,16.3h-2.3v2.3h-9.3c-2.7-2.7,0-.9-4.7-2.3.2,3.1,2.3,9.3,2.3,9.3h-2.3a109.47,109.47,0,0,1-4.7,11.7c-2.3-.8-4.7-1.5-7-2.3-2.2-6.6-2.7-21.2-7-25.7v4.7c-5.3,3-6.1,3.8-7,11.7-7.5-1.7-8.5-3.2-9.3-11.7h-4.7c.8-3.1,1.5-6.2,2.3-9.3a28.44,28.44,0,0,0-16.3,7c-.8,1.5-1.6,3.1-2.3,4.7-2.3.8-4.7,1.6-7,2.3-1.6,2.3-3.1,4.7-4.7,7h-7c.8-4.7,1.6-9.3,2.3-14,1.6-.8,3.1-1.6,4.7-2.3v-7h2.3c3.9-16.3,7.8-32.7,11.7-49h4.7c.2-6,.3-8.2,2.3-11.7h2.3c.8-5.4,1.6-10.9,2.3-16.3h2.3v-4.7h2.3c.8-3.1,1.5-6.2,2.3-9.3h2.3c.8-5.4,1.6-10.9,2.3-16.3h2.3c1.4,3,2.3,5,4.7,7-.8-12.4-2.1-16.3,2.3-28h2.3c.8-4.7,1.6-9.3,2.3-14,2.3-1.6,4.7-3.1,7-4.7.8-3.9,1.5-7.8,2.3-11.7h2.3c2,2.6-.3.3,2.3,2.3-2.2-3.5-4.6-3.9-7-7,4-2.6,3.2-1.5,4.7-7h-2.3c-1.3,4.7.3,2-2.3,4.7v-4.7c-3.1-.8-6.2-1.6-9.3-2.3a3.87,3.87,0,0,1-4.7,2.3c-.6-.1-.7-3.3-4.7-2.3v2.3h-7c-5.2,2-9.8,5.5-16.3,7-.4,13.2-5.9,20.9-9.3,30.3l-9.3,39.6h-4.7c-1.4,7.6-3.4,4.5-4.7,7,.8,2.3,1.5,4.7,2.3,7h2.3c-1.6,7.8-3.1,15.5-4.7,23.3h-2.3v7h-2.3c-.8,5.4-1.5,10.9-2.3,16.3h-2.3c-1.6,7.8-3.1,15.5-4.7,23.3h-2.3v4.7c-1.6.8-3.1,1.5-4.7,2.3v9.3h-2.3c.8,2.3,1.6,4.7,2.3,7h-2.3V866l-9.3,21h-4.7v2.3h-16.3v-4.7c-6.2-2.3-12.4-4.7-18.7-7-1.6-2.3-3.1-4.7-4.7-7-6.3-4.4-11.1-6.3-21-7-.8-3.1-1.6-6.2-2.3-9.3h-2.3c-1.9-5.8,11.8-34.3,14-39.6v-7h2.3v-7h2.3v-7h2.3c.8-5.4,1.6-10.9,2.3-16.3h2.3v-9.3h2.3v-7h2.3v-9.3h2.3v-9.3h2.3v-4.7h2.3v-2.3h-2.3v-2.3h2.3v-9.3c1.6-4.9,7.8-14.3,4.7-23.3h-2.3c-1.6-4.7-3.1-9.3-4.7-14h-2.3v7c-8.7.2-19,2.7-25.7,4.7h-23.3v2.3h-4.7v2.3h-7v2.3h-7v2.3c-2.3,1.6-4.7,3.1-7,4.7-2.2,3.5.9,7.2-2.3,9.3h-9.3v2.3h2.3c3.3,7.6-5.7,9.3-7,11.7v7c-1.6.8-3.1,1.5-4.7,2.3,1.6,2.3,3.1,4.7,4.7,7h-7c-.8,4.7-1.6,9.3-2.3,14h-4.7c-3.9,4.7-7.8,9.3-11.7,14h-2.3c-.8-2.3-1.6-4.7-2.3-7H1617v2.3c-1.5-.8-3.1-1.6-4.7-2.3v2.3h2.3v2.3c2.3-.8,4.7-1.6,7-2.3a29.07,29.07,0,0,0,2.3,11.7c-2.3-.8-4.7-1.6-7-2.3-.8,1.5-1.5,3.1-2.3,4.7H1610v2.3c2.7,2.7.9,0,2.3,4.7h-4.7c-.8,1.5-1.6,3.1-2.3,4.7H1596v-2.3c-3.2,0-3.9,3.9-9.3,2.3v-2.3h-7v-2.3c-2.3-.8-4.7-1.6-7-2.3,2-2.6-.3-.3,2.3-2.3,2.7-2.7,0-.9,4.7-2.3v4.7h2.3v-4.7h-2.3c1.5-5.4,3.1-10.9,4.7-16.3h-7v14c-1.4.6-4.7,4.7-4.7,4.7-7.3,2.8-5.7-9.2-14,2.3-5.1,5.5-1.7,12.3-4.7,18.7-1.6.8-3.1,1.5-4.7,2.3-.8,3.9-1.6,7.8-2.3,11.7h-4.7c.8,2.3,1.6,4.7,2.3,7h-2.3v4.7H1540c-.8,3.9-1.6,7.8-2.3,11.7-2.3,1.6-4.7,3.1-7,4.7v9.3h-2.3c-.8,1.6-1.6,3.1-2.3,4.7h-4.7c.5,3.3.3-.3,2.3,2.3-2.3,3.1-4.7,6.2-7,9.3h-7v2.3H1505v2.3h-4.7c-3.1,5.4-6.2,10.9-9.3,16.3h-4.7v2.3c-2.3.8-4.7,1.6-7,2.3v-2.3c-2.4-3.4.3-19.4,2.3-25.7h-2.3c-3.1-11.7-12.5-12.6-21-18.7-.8-1.6-1.6-3.1-2.3-4.7-3.1-2.3-6.2-4.7-9.3-7-2.3-6.2-4.7-12.4-7-18.7h14v-2.3c-2.3-.8-4.7-1.6-7-2.3-.8-8.6-1.6-17.1-2.3-25.7.4-3,4.3-9.9,2.3-16.3h-2.3v-7h-2.3c-.8-12.4-1.6-24.9-2.3-37.3h4.7c-4-5-4.7-1.3-7-9.3h4.7v-2.3c-7.2-4.9-7.3-17.9-7-30.3h-4.7c-2.3,14-4.7,28-7,42h-2.3v-2.3c-2-4.4-2.3,4.7-2.3,4.7h-4.7v16.3c-5.6,1.4-4.3.7-7,4.7h-2.3v7h2.3v2.3h-9.3c-.8,2.3-1.6,4.7-2.3,7h2.3c.8,1.6,1.5,3.1,2.3,4.7h-7v4.7h7v7h-14v4.7c1.6-.8,3.1-1.6,4.7-2.3v11.7h-2.3c-.8-1.5-1.6-3.1-2.3-4.7-3.1,2.3-6.2,4.7-9.3,7v-4.7c-2.3-.8-4.7-1.6-7-2.3v2.3c-2.7,2.7-.9,0-2.3,4.7H1363v-4.7h-2.3v4.7c2.6,2,.3-.3,2.3,2.3,3.1-.8,6.2-1.6,9.3-2.3v4.7h2.3V813c2-4.4,2.3,4.7,2.3,4.7-6.2,3.8-7,8.4-7,18.7-1.6-.8-3.1-1.5-4.7-2.3v2.3h-4.7v2.3c-2.3-.8-4.7-1.6-7-2.3v2.3h2.3c-.8,3.9-1.6,7.8-2.3,11.7h4.7c-2,7.9-4.3,7.2-14,7-1.6,7.7-4.1,9-4.7,18.7h2.3v-2.3c2-4.4,2.3,4.7,2.3,4.7h-4.7c-2.5,12.1-11.5,15.6-16.3,25.7h-4.7v-2.3c3.1-1.9,2.7-1.6,4.7-4.7h-4.7v2.3c-7.1,8.4,2.6,14.3-14,16.3-.8-2.3-1.6-4.7-2.3-7-9.3,3.1-18.7,6.2-28,9.3v-4.7h-2.3v4.7c-3.8,4.3-10.5,4.6-18.7,4.7v4.7c-3.1-.8-6.2-1.6-9.3-2.3-.8,1.5-1.6,3.1-2.3,4.7h-14v2.3h-2.3s-1.5-3.1-4.7-2.3v2.3h-4.7v-4.7c-5.8,1-8.6,2.1-16.3,2.3-2.3-3.1-4.7-6.2-7-9.3h-4.7c-2.3-3.1-4.7-6.2-7-9.3h-4.7v-2.3c-1.6-.8-3.1-1.6-4.7-2.3.8-1.5,1.6-3.1,2.3-4.7h-7c-3.9-5.4-7.8-10.9-11.7-16.3-2.3-.8-4.7-1.6-7-2.3V881h-7c-6.3-4-4.9-17.6-4.7-28,4.1-5,0-13.3,2.3-21h2.3v-16.3h2.3v-16.3h2.3v-11.7h2.3v-9.3h2.3c.8-4.7,1.6-9.3,2.3-14h-2.3v-2.3h2.3v-4.7h2.3v-7h2.3c.8-3.1,1.6-6.2,2.3-9.3h2.3v-7h2.3c.8-3.1,1.6-6.2,2.3-9.3h2.3v-7h2.3v-4.7h2.3v-7h2.3c.8-3.1,1.6-6.2,2.3-9.3h2.3v-4.7h2.3c2.3-7,4.7-14,7-21,1.6-.8,3.1-1.5,4.7-2.3.8-3.1,1.6-6.2,2.3-9.3h2.3c.8-2.3,1.6-4.7,2.3-7,1.5-.8,3.1-1.6,4.7-2.3v-4.7c3.1-2.3,6.2-4.7,9.3-7v-4.7c12.4-11.7,24.9-23.3,37.3-35h4.7c1.5-2.3,3.1-4.7,4.7-7h4.7c.8-1.6,1.6-3.1,2.3-4.7,4.7-1.5,9.3-3.1,14-4.7.8-1.6,1.6-3.1,2.3-4.7,3.9-.8,7.8-1.6,11.7-2.3v-2.3h4.7v-2.3c3-1.4-.3,2,2.3,2.3h2.3v-4.7c7.8-.7,14.2-3.1,23.3,0v2.3h7c.8,1.6,1.6,3.1,2.3,4.7,6,2.7,11.6-.8,16.3,2.3V580c1.5.8,3.1,1.6,4.7,2.3V587c2.3.8,4.7,1.6,7,2.3.8,1.5,1.6,3.1,2.3,4.7h4.7c2.3,3.1,4.7,6.2,7,9.3,4.7,1.5,9.3,3.1,14,4.7.8,1.6,1.6,3.1,2.3,4.7h9.3c3.3,2.1.3,5.6,2.3,9.3,1.6.8,3.1,1.6,4.7,2.3v9.3c3.9,2.3,7.8,4.7,11.7,7-1.1-3.5-2.7-3.7-2.3-9.3,1.9-2.7,2.7.9,2.3-2.3h-2.3c-.8-7.8-1.5-15.5-2.3-23.3h-2.3c-.2-3.1,3.9-3.8,2.3-9.3h-2.3v-9.3h-2.3c-3.3-11,2.7-18.3-4.7-25.6v-2.3h-7c-1.5-6.4-3.1-5.3-4.7-11.7h7c-2.5-6.9-2.4-4.8,0-11.7,3.6-1.3,3.8-1.8,9.3-2.3v-4.7c3.9.8,7.8,1.6,11.7,2.3v7h4.7c.9,12.6,6.7,20.5,9.3,30.3a6.15,6.15,0,0,1-2.3,7c1.5,4.7,3.1,9.3,4.7,14,2.3-1.6,4.7-3.1,7-4.7-1.9-2.5-5.9-3-7-4.7.8-2.3,1.6-4.7,2.3-7h2.3c1.9-9-3.7-7.2-4.7-9.3V559h-4.7v-4.7h4.7v-4.7a29.07,29.07,0,0,0,11.7-2.3c2.5,11,6.4,9.3,11.7,16.3h2.3v9.3c-1,1.2-4.3,2.9-2.3,7h2.3c2.7,2.7,0,.9,4.7,2.3v16.3h2.3v9.3h2.3c-.8,2.3-1.6,4.7-2.3,7v21h2.3c1.4,5.5-2.6,6.2-2.3,9.3h2.3c.7,5.5-4.9,13.4-4.7,14h2.3a15.8,15.8,0,0,0,7,7c-1.7,3.7-5,6.4-4.7,11.7a4.14,4.14,0,0,1,2.3,4.7h-2.3c-2.5,7.2-1.8,5.8,0,11.7h-7v2.3c2.7,2.7.9,0,2.3,4.7,7.8-.8,15.5-1.6,23.3-2.3v-2.3h4.7v-2.3h7c4.3-2.6,10.1-26.9,16.3-18.7,1.9-5-1.8-6.6-2.3-9.3,1.5-.8,3.1-1.6,4.7-2.3.8-2.3,1.6-4.7,2.3-7h4.7v2.3c-4,2.6-3.2,1.5-4.7,7,2.6,2,.3-.3,2.3,2.3,1.6-.8,3.1-1.5,4.7-2.3,1.3-3.6,1.8-3.8,2.3-9.3,2.3-.8,4.7-1.5,7-2.3V657h2.3v-7h-7v2.3c-4.2,1.9-1.8,2.9-4.7,0h-2.3c.8-2.3,1.5-4.7,2.3-7,8-5.5,6.7-13,11.7-21,1.5-.8,3.1-1.6,4.7-2.3v-7c3.1-2.3,6.2-4.7,9.3-7v-7c2.3-1.5,4.7-3.1,7-4.7.8-3.1,1.6-6.2,2.3-9.3h2.3c.8-2.3,1.6-4.7,2.3-7,1.5-.8,3.1-1.6,4.7-2.3V573c1.6-.8,3.1-1.5,4.7-2.3V566c2.3-1.6,4.7-3.1,7-4.7v-4.7c1.5-.8,3.1-1.5,4.7-2.3v-4.7c2.3-1.6,4.7-3.1,7-4.7v-4.7h2.3c.8-2.3,1.5-4.7,2.3-7,1.6-.8,3.1-1.6,4.7-2.3v-4.7c2.3-1.6,4.7-3.1,7-4.7v-4.7c4.7-3.9,9.3-7.8,14-11.7.8-3.1,1.5-6.2,2.3-9.3,3.1-2.3,6.2-4.7,9.3-7v-4.7c1.8-3,9-11.8,11.7-14v2.3c3.1-.8,6.2-1.5,9.3-2.3,2.2-12,8.8-12.2,4.7-25.7,1.6-.8,3.1-1.5,4.7-2.3v-2.3h2.3v2.3h9.3c1.4-6.7,3.7-9.4,7-14h2.3c.8-3.9,1.6-7.8,2.3-11.7,1.6-.8,3.1-1.5,4.7-2.3,3.2-4,3.8-7.4,4.7-14-5.4-.4-6-.5-9.3-2.3v-2.3c-3.1.8-6.2,1.6-9.3,2.3v-2.3h2.3c2.9-4.5,2.4-3.9,9.3-4.7,2.7,2.7,0,.9,4.7,2.3v-7c3.9.8,7.8,1.6,11.7,2.3v-2.3c2.7-2.7.9,0,2.3-4.7h4.7c4-6.1,11.5-8.6,16.3-14h2.3c7.5-10.1,12.2-21.6,21-30.3,7.6-7.5,15.4-8.4,18.7-21h4.7c-2.5,12.4-11,17.5-14,28h-4.7c-.8,3.9-1.5,7.8-2.3,11.7h-2.3c-3.4,4.8-4,5.5-4.7,14,2.6,2,.3-.3,2.3,2.3,3.9-.8,7.8-1.6,11.7-2.3v-2.3c12.4-1.6,24.9-3.1,37.3-4.7v-2.3h9.3v-2.3h11.7v-2.3h4.7v-2.3h18.7v-2.3h7V349c7.8-1.5,15.5-3.1,23.3-4.7V342c7.8-.8,15.5-1.6,23.3-2.3V335c15.8,6,14.9-.9,25.7-4.7h11.7V328h7v-2.3c7-.8,14-1.6,21-2.3v-2.3h7v-2.3c7.8-.8,15.5-1.5,23.3-2.3v-2.3h7v-2.3h7v-2.3h11.7v-2.3h7V305h14v-2.3c9.3-.8,18.7-1.6,28-2.3v-2.3h4.7v-2.3c4.7.8,9.3,1.5,14,2.3v-2.3c12.4-.8,24.9-1.6,37.3-2.3v4.7c9-5.2,7.3-7.1,23.3-7v4.7c4.2-1.9,7.2-5.8,14-4.7a6.45,6.45,0,0,0,7,2.3v-2.3c3.1-.8,6.2-1.5,9.3-2.3.8,1.6,1.6,3.1,2.3,4.7h39.6v2.3C2239.4,294.37,2244.8,295.17,2250.3,295.87Zm-1282.7-9.3v4.7h2.3v-4.7Zm-599.3,0v4.7h2.3v-4.7Zm515.4-7h4.7c-.8,2.3-1.6,4.7-2.3,7h-2.3C883.7,284.27,883.7,281.87,883.7,279.57Zm-25.7,0c1,1.3,3.8.3,2.3,4.7H858v2.3h-7v-2.3h2.3C855.2,281.87,856.2,282,858,279.57Zm-468.7,4.7c-1.9-7.5-2.7-6.8-11.7-7v2.3c2.4,2,3.2,4,4.7,7C384.6,285.77,387,285.07,389.3,284.27Zm2518.6-11.7c.8,3.9,1.5,7.8,2.3,11.7-6.6,4-21.8,20.1-30.3,14-2.7-2.7-.9,0-2.3-4.7h2.3C2882.3,284,2897,273.77,2907.9,272.57Zm-2518.6,0c2.7,2.7,0,.9,4.7,2.3C391.3,272.27,394,274,389.3,272.57Zm142.3,2.3h4.7c-.8-2.3-1.6-4.7-2.3-7h-2.3C531.6,270.27,531.6,272.57,531.6,274.87Zm2276-9.3c-.3,7.4-4.6,4.4,2.3,7v-4.7h2.3v2.3c2,4.4,2.3-4.7,2.3-4.7C2812.3,265.57,2809.9,265.57,2807.6,265.57Zm-2010.2,0h4.7v4.7h-4.7Zm-109.6,0h4.7v2.3C687.8,266.57,690.5,268.17,687.8,265.57ZM401,274.87c3.1.8,6.2,1.6,9.3,2.3.8-3.1,1.6-6.2,2.3-9.3-3.1-.8-6.2-1.6-9.3-2.3v2.3H401Zm298.5-11.6c2.3.8,4.7,1.6,7,2.3v2.3C700.9,266.47,702.1,267.17,699.5,263.27ZM816.1,261c2.7,2.7.9,0,2.3,4.7h-2.3Zm-46.7,0h4.7v4.7h-4.7Zm-88.6-2.4h4.7v7h-4.7Zm151.6-2.3c2.7,2.7.9,0,2.3,4.7h-2.3ZM802.1,261h-4.7c2-2.6-.3-.3,2.3-2.3v-2.3C802.4,258.87,800.7,256.27,802.1,261Zm-95.6-4.7c6.1,1.5,6.6,2.5,9.3,7h2.3v2.3h-2.3c-2.7,2.7,0,.9-4.7,2.3C708.6,263.07,707.4,263.77,706.5,256.27Zm-49,7v-7c-5.6,1.1-7.3,2.7-11.7,4.7,2,2.6-.3.3,2.3,2.3v2.3C651.3,264.77,654.4,264.07,657.5,263.27Zm135.2,7c-6.8-1.6-7.6-2.6-9.3-9.3,3.9-2.3,7.8-4.7,11.7-7v7h-2.3C792.7,264.07,792.7,267.17,792.7,270.27Zm2049.9-21V254h2.3v-4.7ZM746.1,261h-4.7v-4.7h-7v-4.7c6.6-.2,10-.5,14-2.3v2.3h2.3C748.6,255.77,747.5,255.27,746.1,261ZM415,270.27c2.3-.8,4.7-1.6,7-2.3v-2.3c12,4.3,7.9-.7,16.3-4.7,9.7-4.5,13.2.5,16.3-11.7-3.6-1.3-3.8-1.8-9.3-2.3v2.3h-4.7c-.8,1.6-1.6,3.1-2.3,4.7h-4.7c-.8,1.6-1.6,3.1-2.3,4.7C420.2,264,417.2,252.57,415,270.27Zm298.5-35h4.7V240h-4.7Zm-240.2,2.3h7v-9.3c-2.3.8-4.7,1.6-7,2.3ZM401,288.87v4.7c-10.5.3-12.5,3.5-18.7,7h-4.7c-1.6,2.3-3.1,4.7-4.7,7h-4.7v2.3H356.5v2.3c-3.1.8-6.2,1.6-9.3,2.3-.8,1.6-1.5,3.1-2.3,4.7h-4.7c-.8,1.6-1.6,3.1-2.3,4.7h-4.7v2.3h-4.7v2.3h-4.7v2.3h-4.7v2.3h-4.7c-.8,1.6-1.6,3.1-2.3,4.7-3.1.8-6.2,1.6-9.3,2.3-1.5,2.3-3.1,4.7-4.7,7-3.1.8-6.2,1.6-9.3,2.3v2.3c-2.3.8-4.7,1.6-7,2.3-.8,1.6-1.6,3.1-2.3,4.7h-4.7V361c-2.3.8-4.7,1.6-7,2.3-.8,1.5-1.6,3.1-2.3,4.7h-4.7c-1.5,2.3-3.1,4.7-4.7,7-8.5,4.7-7.7-6-11.7,7-2.3.8-4.7,1.6-7,2.3,1.3,4.7-.3,2,2.3,4.7v2.3h14v2.3c3.9.8,7.8,1.6,11.7,2.3-.8-3.1-1.6-6.2-2.3-9.3h2.3v-2.3h4.7c2.6,4.6,3.3,5.5,9.3,7,1.5-7.5,3.4-4.5,4.7-7v-7c3.5-8.7,3.7-16,14-18.7,2.7-2.4,14.5-4,18.7-4.7,1.6-4.7,3.1-9.3,4.7-14h4.7c1,11.2,6.8,13.8,18.7,14v-4.7c1.6.8,3.1,1.5,4.7,2.3v-2.3h2.3v-7h-4.7c-.8,2.3-1.5,4.7-2.3,7-2.4-1.8-2.3-2.9-4.7-4.7v-4.7c5.7-3.5,1.5-3.2,4.7-7h2.3c6.4-6.3,8.7-3.4,9.3-16.3,2.3.8,4.7,1.6,7,2.3-.8,2.3-1.6,4.7-2.3,7,1.1,2.2,6.1.3,4.7,7-1.6.8-3.1,1.6-4.7,2.3v2.3h2.3v2.3h2.3v-2.3c6.4-3.6,7-6.1,7-16.3h2.3v-7c2.3.8,4.7,1.6,7,2.3-.8,1.6-1.6,3.1-2.3,4.7h2.3c2.9-4.5,2.4-3.9,9.3-4.7.8,3.1,1.5,6.2,2.3,9.3H403c.8-1.6,1.6-3.1,2.3-4.7-2.6-2-.3.3-2.3-2.3-3.1.8-6.2,1.6-9.3,2.3,1.4-8.7,1.4-5.3,0-14,13.2,1.3,14.2,8.3,28,9.3,1.3-3.6,1.8-3.8,2.3-9.3-1.5-1.1-8.2-8.5-7-11.7h2.3c1.7-6.4.7-5.2,7-7,.8-2.3,1.6-4.7,2.3-7,1.6.8,3.1,1.6,4.7,2.3v-2.3c5-1,4.5.9,7-2.3h2.3v2.3h2.3c-.8,1.6-1.5,3.1-2.3,4.7-2.3.8-4.7,1.6-7,2.3-1.7,6.4-.7,5.2-7,7V307c2.6,2,.3-.3,2.3,2.3,4.7-1.3,2,.3,4.7-2.3,2.3-.8,4.7-1.6,7-2.3-2.7-2.6,0-.9-4.7-2.3v-4.7h4.7v-2.3c1.6.8,3.1,1.6,4.7,2.3v-7c-2.7-2.7-.9,0-2.3-4.7,5.7,1.3,5.1,2.4,9.3,4.7.5-5.5,1-5.8,2.3-9.3,2.6,2,.3-.3,2.3,2.3h2.3V293h2.3c2-2.6,8-5,9.3-7,4.5-7-4.2-6,7-9.3.8,2.3,1.6,4.7,2.3,7,7-2.3,14-4.7,21-7V272h9.3c.8-2.3,1.6-4.7,2.3-7,5.4-.8,10.9-1.6,16.3-2.3.8-1.5,1.5-3.1,2.3-4.7H538v-2.3h11.7c.1,0-.1-1.4,4.7-2.3-.8-3.9-1.5-7.8-2.3-11.7h2.3c3.9-6.4,4.2-5.5,4.7-16.3-14.2.4-25.5,6.6-35,11.7h-4.7v2.3h-4.7v2.3H510c-.8,1.6-1.6,3.1-2.3,4.7H503v2.3c-7.8,1.6-15.5,3.1-23.3,4.7v2.3H475c-1.6,2.3-3.1,4.7-4.7,7-2.8-.6-6.2-4.3-11.7-2.3v2.3c-3.1.8-6.2,1.6-9.3,2.3-.8,1.5-1.6,3.1-2.3,4.7-3.1.8-6.2,1.6-9.3,2.3v2.3c-4.7,1.6-9.3,3.1-14,4.7v2.3c-4.7.8-9.3,1.6-14,2.3v2.3C407,288.57,406.3,288.17,401,288.87Zm363.8-65.3v4.7c-2.6-2-.3.3-2.3-2.3-2.6-2-.3.3-2.3-2.3C761.7,223.57,763.2,223.57,764.8,223.57Zm-14,0h4.7v7h-2.3v-2.3C750.5,225.67,752.2,228.27,750.8,223.57Zm-53.7,4.7c.5-5.5,1-5.8,2.3-9.3,6.3.9,6.6,3.5,11.7,0v2.3h2.3v9.3h-2.3C706.2,223.47,706.7,227.27,697.1,228.27Zm137.6-11.7h4.7v4.7h-4.7Zm-37.3,0c-1.7,6.4-.7,5.2-7,7C792.1,217.17,791.1,218.37,797.4,216.57ZM491.9,226v7h2.3v2.3h7V233c3.9-.8,7.8-1.5,11.7-2.3v-2.3h7c.8-1.6,1.6-3.1,2.3-4.7,1.5-.8,7.4-1.5,9.3-2.3v-7C515.7,217,507.1,224.17,491.9,226Zm270.5-14v7c-9,1.4-6.4.8-16.3,0v7h-2.3c-5.5-5.1-15.3-.7-23.3,0-.8-2.3-1.6-4.7-2.3-7h2.3c1.8-1.8,14.3-8.3,18.7-7,.7.2.7,4.8,4.7,4.7v-2.3h4.7v-2.3h7v2.3C757.8,213.47,760.1,212.77,762.4,212Zm-216.8-2.3c-2.3,3.1-4.7,6.2-7,9.3h7c2.7-3.2,4.2-3.6,9.3-4.7V212C551.8,211.17,548.7,210.37,545.6,209.67Zm261.1-2.4c9.3,1.6,18.7,3.1,28,4.7v2.3c-3.1,2.3-6.2,4.7-9.3,7V219c-2.7-2.7-.9,0-2.3-4.7-3.9-.8-7.8-1.6-11.7-2.3v7c-5.7,1.3-5.1,2.4-9.3,4.7v-7C806.5,213.67,805.9,214.27,806.7,207.27ZM783.4,198h4.7v2.3C783.4,199,786.1,200.57,783.4,198Zm16.3-2.3c2.3.8,4.7,1.5,7,2.3v4.7h-2.3C802.8,200.27,801.3,198,799.7,195.67Zm2047.6-2.4V198h2.3v-4.7ZM851,179.27c1.6,2.3,3.1,4.7,4.7,7H858v-4.7c2.6-2,.3.3,2.3-2.3-2.3.8-4.7,1.6-7,2.3v-2.3ZM711.1,198c-3.1-.8-6.2-1.6-9.3-2.3-3.8,19.2-11.1,25.9-7,49h-2.3c-4.2-7.3-7-7.9-7-21h2.3V212h2.3v-4.7h2.3V191h-7v2.3h-2.3c.8,3.9,1.6,7.8,2.3,11.7-1.6.8-3.1,1.6-4.7,2.3v2.3H683c.5,4.8-1,2.7-2.3,4.7,0,1.8,1.9,4.2,2.3,9.3h-9.3c-2,2.6.3.3-2.3,2.3v4.7c1.5.8,3.1,1.6,4.7,2.3v9.3h-9.3c-3.7,6.4-5.8,4.2-7,14,8.6,6.8,1.3,12.2-11.7,11.7-.5,7.3-2.4,11-4.7,16.3-5-2.8-5.1-5.3-11.7-7-1.1,12.3-6.1,13.1-7,25.7H620c.8,3.9,1.6,7.8,2.3,11.7h-4.7v7h2.3c1.9,4.2,2.9,1.8,0,4.7-1.6,3.1-3.1,6.2-4.7,9.3-2.3.8-4.7,1.5-7,2.3-1.7,3.1,3,9.7-2.3,9.3v2.3h4.7c-.1,12-3.5,15.3-4.7,25.6a29.07,29.07,0,0,0-11.7,2.3c4,5,4.7,1.3,7,9.3-5.8,3.6-1.5,2.1-4.7,7-1.5.8-3.1,1.6-4.7,2.3-3.2,6.9,1.7,19.6,2.3,23.3-1.6.8-3.1,1.5-4.7,2.3-2.3,4.3-2.3,9.7-2.3,16.3-1.6-.8-3.1-1.6-4.7-2.3-3.9,8.5-7.8,17.1-11.7,25.7,2.3-.8,4.7-1.6,7-2.3v2.3c1,1.3,3.8.3,2.3,4.7h-2.3v2.3c-2.3-.8-4.7-1.6-7-2.3v2.3c-9.5,8.8,1.1,7.7-2.3,18.7h-2.3v4.7h-2.3c.8,2.3,1.6,4.7,2.3,7h-2.3c-1.8,3.7-2,5.6-2.3,11.7h4.7c-1.3,5.5-2.2,5.5-4.7,9.3h-2.3c-2.2,4.8,1.7,6.1,2.3,7V529h-2.3v7h-2.3c-8.7-7.3-12.8,8.8-14,16.3h2.3v-4.7c2.3.8,4.7,1.6,7,2.3v-2.3c3.1-.8,6.2-1.6,9.3-2.3V543h7v-2.3h4.7v-2.3h4.7v-2.3h4.7c.8-1.6,1.6-3.1,2.3-4.7h4.7v-2.3h4.7v-2.3H599v-2.3h4.7c.8-1.6,1.6-3.1,2.3-4.7h4.7v-2.3h4.7v-2.3h4.7v-2.3h4.7v-2.3h4.7v-2.3c3.1-.8,6.2-1.6,9.3-2.3.8-1.6,1.6-3.1,2.3-4.7h4.7V499h4.7v-2.3h4.7v-2.3h4.7v-2.3h4.7c.8-1.6,1.6-3.1,2.3-4.7,4.7-1.5,9.3-3.1,14-4.7.8-1.6,1.6-3.1,2.3-4.7,3.1-.8,6.2-1.6,9.3-2.3.8-1.6,1.6-3.1,2.3-4.7,3.1-.8,6.2-1.5,9.3-2.3.8-1.6,1.6-3.1,2.3-4.7h4.7v-2.3h4.7v-2.3h4.7v-2.3h4.7v-2.3h4.7c.8-1.6,1.6-3.1,2.3-4.7,2.3-.8,4.7-1.6,7-2.3,1.6-2.3,3.1-4.7,4.7-7h4.7c1.6-2.3,3.1-4.7,4.7-7H758v-2.3c2.3-.8,4.7-1.5,7-2.3.8-1.5,1.6-3.1,2.3-4.7H772c2.3-3.1,4.7-6.2,7-9.3h4.7c1.5-2.3,3.1-4.7,4.7-7h4.7c1.6-2.3,3.1-4.7,4.7-7h4.7c1.6-2.3,3.1-4.7,4.7-7h4.7c1.5-2.3,3.1-4.7,4.7-7h4.7c2.3-3.1,4.7-6.2,7-9.3H833c9.3-10.1,18.7-20.2,28-30.3,4.7-3.9,9.3-7.8,14-11.7v-4.7c3.1-2.3,6.2-4.7,9.3-7,2.2-3.4,6.2-14.5,4.7-21a5.87,5.87,0,0,1-2.3-7H889c.8-2.3,1.6-4.7,2.3-7,1.6.8,3.1,1.6,4.7,2.3v2.3c3.1,1.2.5-1.1,2.3-2.3,11.3-9.8,8-30.3,7-46.6-2.6-2-.3.3-2.3-2.3h-7v-11.7c-5.4-3.1-10.9-6.2-16.3-9.3v-7h-2.3c-4.3,5.7-2.7,3-11.7,2.3v4.7h-7v-4.7c-4.7-.8-9.3-1.6-14-2.3v-2.3H847V210h11.7c2.7,2.7,0,.9,4.7,2.3v-4.7h2.3v-2.3h-2.3c-6.6-9.8-21.4-6.8-32.6-11.7v-2.3c-3.1-.8-6.2-1.5-9.3-2.3v-2.3c-3.9.8-7.8,1.6-11.7,2.3v2.3h-2.3V189h-14c-5.5-1.8-14.2-9-23.3-7v2.3c-8.6,1.7-7.3-6.8-14-4.7-1.6,2.3-3.1,4.7-4.7,7h-7v2.3c-6.8,1.3-5.2-4-7-4.7-8.8-3.1-10.1,4-11.7,4.7h-14v2.3h-2.3A25.67,25.67,0,0,0,711.1,198Zm135.3-11.7c-.5-5.5-1-5.8-2.3-9.3-2.6,2-.3-.3-2.3,2.3-1,1.4-3.8.3-2.3,4.7h2.3C844.4,186.67,841.7,184.87,846.4,186.27Zm2017.2-11.6c2.7,2.7,0,.9,4.7,2.3C2865.6,174.27,2868.2,176.07,2863.6,174.67Zm-2028.9-2.4V177H837v-4.7Zm-11.6-4.6v7h2.3v-7Zm-9.4-2.4c2.7,2.7,0,.9,4.7,2.3C815.7,165,818.4,166.67,813.7,165.27ZM781.1,163c2.7,2.7,0,.9,4.7,2.3C783.1,162.67,785.7,164.37,781.1,163Zm-70,4.7v4.7c7-.8,14-1.6,21-2.3.8-1.6,1.6-3.1,2.3-4.7-2.6-2-.3.3-2.3-2.3-4.2,2.2-3.7,3.2-9.3,4.7v-4.7C718.4,164.87,716.7,166.47,711.1,167.67Zm49,0v-7c-5.6,1.4-4.3.7-7,4.7-2.6,2-.3-.3-2.3,2.3Zm11.7-7v7h2.3v-2.3h2.3c-.8-2.3-1.6-4.7-2.3-7h-7v2.3Zm2115.1-7v4.7h2.3v-4.7Zm30.3-42c-.9,5.3-4.6,13.1-2.3,21,1,3.3,6.8,12.5,4.7,18.7h-2.3v4.7c-2.3,1.6-4.7,3.1-7,4.7v4.7c-1.6.8-3.1,1.6-4.7,2.3-.8,3.1-1.5,6.2-2.3,9.3-1.6.8-3.1,1.6-4.7,2.3v4.7c-2.3,1.6-4.7,3.1-7,4.7.8,3.1,1.6,6.2,2.3,9.3-3.9.8-7.8,1.6-11.7,2.3-1.3,6.6-3.6,9.7-7,14h-2.3v4.7c-3.3,5.5-7.8,8.9-14,11.7,1.3,3.6,1.8,3.8,2.3,9.3-2.3-.8-4.7-1.6-7-2.3v7h-4.7c.8,3.1,1.6,6.2,2.3,9.3h-2.3c-3.1,4.7-6.2,9.3-9.3,14-2.8,1.9-9.8,1.8-11.7,4.7v7h-2.3v2.3h2.3v2.3h-7v4.7c1.6-.8,3.1-1.5,4.7-2.3v9.3c-2.7,2.7-.9,0-2.3,4.7h-4.7v-11.7c-6.4,1.7-5.2.7-7,7h-2.3c-4.3,2.2,4.7,2.3,4.7,2.3-.8,4.7-1.6,9.3-2.3,14h-4.7v4.7h-7c-.8,4.7-1.6,9.3-2.3,14-3.1,2.3-6.2,4.7-9.3,7-1,2,2.6.7,0,7-2.3.8-4.7,1.6-7,2.3-.8,3.1-1.6,6.2-2.3,9.3H2775c.8,2.3,1.6,4.7,2.3,7-2.3.8-4.7,1.5-7,2.3-1.1,10.8-5.6,10.7-7,21-5.5-.5-5.8-1-9.3-2.3.8-2.3,1.5-4.7,2.3-7H2754c-2,2.6.3.3-2.3,2.3-.8,2.3-1.5,4.7-2.3,7,8.1,4.8,5.6,3.3,4.7,11.7-6.4-1.7-5.2-.7-7-7-3.9.8-7.8,1.5-11.7,2.3v4.7c2.3-.8,4.7-1.6,7-2.3v2.3c4,2.6,3.2,1.5,4.7,7h-2.3v-2.3c-3.3,1.5-1.7,2.7-4.7,4.7.8,3.1,1.5,6.2,2.3,9.3h-4.7v2.3c-2.3-.8-4.7-1.6-7-2.3v2.3h-2.3c.8,2.3,1.5,4.7,2.3,7h-2.3v4.7c-1.6.8-3.1,1.6-4.7,2.3v4.7c-1.5.8-3.1,1.6-4.7,2.3v7h-2.3c-1.5,3.6-1.1,6.4-2.3,9.3h-7c.2,3.6,2.3,16.3,2.3,16.3h-2.3v2.3c-1.6-.8-3.1-1.6-4.7-2.3-4.5,5,2.6,4.5-7,7V492h-7v2.3h-2.3V513c2.7,2.7.9,0,2.3,4.7H2684V513h-2.3c.8,2.3,1.6,4.7,2.3,7h-2.3v2.3c-1.5-.8-3.1-1.6-4.7-2.3v2.3h2.3c-.8,4.7-1.6,9.3-2.3,14h-2.3V541c-2.3,1.6-4.7,3.1-7,4.7-.8,3.9-1.5,7.8-2.3,11.7l-11.7,9.3c-2.2,4.6,2,6.8,2.3,9.3h-2.3c-3.4,6.2-3.8,4-4.7,14h2.3c2-3.5,3.3-5.2,7-7v2.3h2.3v7c-10.7,6.7-9.5,22-23.3,25.7-.8,5.4-1.6,10.9-2.3,16.3-2.3,1.6-4.7,3.1-7,4.7v4.7h-2.3v4.7h-2.3c-.8,4.7-1.6,9.3-2.3,14h-2.3v4.7h-2.3v9.3h-2.3c-2.8,6.1-3.8,11.2-4.7,18.7h-4.7c.8,3.1,1.6,6.2,2.3,9.3h-2.3v4.7c-1.6.8-3.1,1.6-4.7,2.3-.8,3.9-1.6,7.8-2.3,11.7h-2.3v4.7h-2.3c-2.3,3.5-1.9,5.7-2.3,11.7h-4.7c.8,2.3,1.5,4.7,2.3,7h-14c-7.1,6.1-9.2-2.1-16.3-2.3v2.3h-2.3v-2.3h-7c-.8-1.6-1.6-3.1-2.3-4.7h-7c-6.7-2.7-12.3-5.9-21-7v-4.7c-7.8-.1-10.6-1.2-16.3-2.3a30.78,30.78,0,0,0-7-9.3c2.2-9.3,6.3-15.1,7-28-2.3-.8-4.7-1.6-7-2.3-.1-11.9-3-9.6-2.3-11.7,1.6-.8,3.1-1.6,4.7-2.3v-9.3h-2.3c.8-2.3,1.6-4.7,2.3-7-1.6-.8-3.1-1.5-4.7-2.3v-11.7h-2.3v-7h-2.3v-14h-2.3c.5-3.6,4.7-4.7,4.7-4.7-.8-3.9-1.6-7.8-2.3-11.7h-2.3c.8-4.7,1.6-9.3,2.3-14-1.6-.8-3.1-1.6-4.7-2.3v-28h-2.3c-.9-4.6,4.4-8.8,2.3-16.3h-2.3v-9.3h2.3V532h-2.3v-23.4c.2-.5,6.5-2.3,4.7-4.7-2.3-.8-4.7-1.6-7-2.3-4.3-6.8,1.7-5.8,0-11.7h-2.3v-4.7h-2.3v-2.3h2.3v-81.6h-2.3c-1.6-5.8,2-8.5,2.3-11.7-.8-1.5-1.6-3.1-2.3-4.7,0,0,4-3.3,4.7-4.7h-7c-1.5-16.3-3.1-32.7-4.7-49h-2.3v-4.7c-1.6-.8-3.1-1.6-4.7-2.3-5.9-7.3-3.5-10.6-2.3-18.7H2456v-4.7h-2.3c-.8-2.3-1.6-4.7-2.3-7,1.6.8,3.1,1.5,4.7,2.3v-4.7c2.6-3,4.4-2.4,7-7,4.8,2.6,4.1,3.8,11.7,4.7.8-2.3,1.5-4.7,2.3-7,2.6,2,.3-.3,2.3,2.3,3.1,2.7,8.6,8.5,4.7,11.7h4.7v-2.3h2.3c1.5,2.3,3.1,4.7,4.7,7h4.7c.8,1.6,1.6,3.1,2.3,4.7,12.4,7.9,27.3,10.9,37.3,21v2.3c2.3,1.6,4.7,3.1,7,4.7,4.6,7.4-4.1,5.8,7,9.3.9,5.1,2.2,4.3,2.3,4.7v11.7h2.3c1.5,4.7,3.1,9.3,4.7,14h2.3v11.7h2.3v23.3h2.3v2.3c-.8,2.3-1.5,4.7-2.3,7h2.3v9.3h2.3c1,5.9-4.7,7.2-4.7,11.7h2.3v7h2.3c-.8,6.2-1.6,12.4-2.3,18.7,0,0,2.9.2,2.3,4.7h-2.3v9.3h2.3v11.7h2.3c.4,3.6-4.3,3.1-4.7,4.7.8,2.3,1.6,4.7,2.3,7-.3,3.3-2.3-1-2.3,2.3h2.3c3.6,17.9-7.8,36.4,2.3,46.6,1.6-3,3.6-3.1,4.7-4.7v-4.7c2.3-1.5,4.7-3.1,7-4.7v-4.7c1.5-.8,3.1-1.6,4.7-2.3.8-2.3,1.6-4.7,2.3-7h2.3v-4.7c1.6-.8,3.1-1.6,4.7-2.3.8-3.9,1.5-7.8,2.3-11.7,1.5-.8,3.1-1.6,4.7-2.3.8-2.3,1.6-4.7,2.3-7h2.3c.8-3.1,1.6-6.2,2.3-9.3,1.5-.8,3.1-1.5,4.7-2.3v-4.7c1.6-.8,3.1-1.6,4.7-2.3v-4.7c1.6-.8,3.1-1.5,4.7-2.3.8-3.1,1.5-6.2,2.3-9.3,1.5-.8,3.1-1.5,4.7-2.3v-4.7c1.6-.8,3.1-1.6,4.7-2.3v-4.7c3.4-5.8,7.4-8.1,9.3-16.3h4.7c2.2-4.2,3.2-3.7,4.7-9.3h2.3v-7h4.7v-7h2.3c2.7-2.7,0-.9,4.7-2.3,2.4-9.3,9.1-11.5,11.7-21h4.7c1.6-4.7,3.1-9.3,4.7-14,8.5-2.2,9.5-7.2,18.7-9.3V364h2.3v-4.7h-2.3c-2.2-7.3,9.3-8.2,11.7-11.7.8-3.1,1.6-6.2,2.3-9.3h4.7c1.6-3.1,3.1-6.2,4.7-9.3h4.7v-2.3c-4-2.6-3.2-1.5-4.7-7h9.3c2.5-9.6,1.7-2.4,7-7v-2.3h2.3c5.5-7.3-.2-10.9,11.7-14-.8-3.1-1.5-6.2-2.3-9.3h2.3c1.5-6.4,3.1-5.3,4.7-11.7h2.3v7h2.3v-2.3c2.8-2.2,2.5-5.3,4.7-7h4.7c2.3-3.9,4.7-7.8,7-11.7-4-2.6-3.2-1.5-4.7-7h2.3v-2.3c3.9.8,7.8,1.5,11.7,2.3v-2.3c6.1-4,4.9-6.6,4.7-16.3h-2.3v-9.3h2.3c1.9,3.1,1.6,2.7,4.7,4.7.5-5.5,1-5.8,2.3-9.3h2.3v14h4.7c1.5-6.4,3.1-5.3,4.7-11.7-4.5-2.9-3.9-2.4-4.7-9.3h2.3v-4.7c1.6-.8,3.1-1.6,4.7-2.3-.8-1.5-1.6-3.1-2.3-4.7h7v2.3h2.3v-4.7h-2.3c-.5-3.7,4-2.9,4.7-4.7v-7h4.7c3.7-6.7,17.6-21.2,25.7-23.3.8-3.9,1.5-7.8,2.3-11.7,13-4,1.9-3.7,7-11.7h2.3v-2.3h7v-2.3c7.3-3.4,4,2,9.3-4.7h2.3v-9.3h2.3c2.6-3.5,6.2-5.6,2.3-9.3h4.7v4.7C2910.5,115.87,2910.6,113.47,2917.2,111.67Zm-2271.4-56v4.7h4.7v-4.7Zm23.3-18.6c2.6,2.7,3.6,2.8,7,4.7v-2.3h2.3v-2.3C675.4,37.07,672.3,37.07,669.1,37.07Zm-23.3-21v-4.7h2.3v14h2.3c4.6-5.5,10.7-6.9,21-7-.8,2.3-1.6,4.7-2.3,7-2.3-.8-4.7-1.5-7-2.3v2.3h-2.3c.8,1.6,1.6,3.1,2.3,4.7,3.6,1.3,3.8,1.8,9.3,2.3.8-3.9,1.5-7.8,2.3-11.7H676V23h11.7c3.2,7.2,7.4,12.5,9.3,21,3.1-.8,6.2-1.6,9.3-2.3-1.3,3.6-1.8,3.8-2.3,9.3,6.5-1.3.2-1.8,7,0-2.1,9.4-4.9,7.7-2.3,16.3,2.3-.8,4.7-1.5,7-2.3v11.7s3.1-.1,2.3,4.7c0,0-3.2,2-2.3,7H718v2.3h-2.3c-.8,10.9-1.6,21.8-2.3,32.6,6.8,1,18,2.8,28,0V121h21v-2.3a4.06,4.06,0,0,1,4.7,2.3c4.1.6,4.7-2.3,4.7-2.3,3.1.8,6.2,1.6,9.3,2.3v-2.3c15.2-3.6,36.3,2.3,46.6,4.7,5.4-.8,10.9-1.5,16.3-2.3v2.3h11.7v2.3h7V128h14v2.3h7v2.3c3.1.8,6.2,1.6,9.3,2.3v2.3h7c.8,1.6,1.6,3.1,2.3,4.7,3.9.8,7.8,1.6,11.7,2.3.8,1.6,1.6,3.1,2.3,4.7,2.3.8,4.7,1.6,7,2.3,1.5,2.3,3.1,4.7,4.7,7h4.7c1.6,3.1,3.1,6.2,4.7,9.3h4.7c.8,1.5,1.6,3.1,2.3,4.7,2.3,1.6,4.7,3.1,7,4.7v4.7c2.3,1.5,4.7,3.1,7,4.7V191c2.3,1.6,4.7,3.1,7,4.7.8,2.3,1.5,4.7,2.3,7,1.6.8,3.1,1.6,4.7,2.3v11.7h2.3c.8,4.7,1.6,9.3,2.3,14h4.7c-.9,5.7-3,11.3,0,18.7,1.6.8,3.1,1.6,4.7,2.3V254h-2.3c-.8,6.2-1.6,12.4-2.3,18.7h-9.3v7h2.3v-2.3h9.3c-.8,2.3-1.6,4.7-2.3,7h-2.3v7c-1.6.8-3.1,1.6-4.7,2.3v4.7h-2.3v14c-.3.6-8.3,4.4-7,7h2.3c2.7,2.7,0,.9,4.7,2.3v4.7h-9.3v2.3c2.7,2.7.9,0,2.3,4.7h-4.7v-2.3c-2.3.8-4.7,1.6-7,2.3v9.3c-10.3,4.7-17.5,14.2-18.7,28-2.3-.8-4.7-1.6-7-2.3v4.7c5.6,2.5,7.5,2.6,9.3,9.3h-4.7l-9.3,11.7h-2.3c-2.3,7-4.7,14-7,21h-4.7c-2.3,9.2-8.6,9.4-14,16.3h-2.3c-4.6,7.4,3.9,8.2-9.3,11.7v4.7h4.7v4.7c-8.9,1.2-9.6,4.6-16.3,7v-2.3c-2.7-2.7-.9,0-2.3-4.7h-7v2.3c2.7,2.1,2.7,1.7,4.7,4.7h-2.3c-11.2,10.9-25.9,5-30.3,25.7h-4.7v-7H828c-2.6,4-1.5,3.2-7,4.7v4.7h-2.3c-6.9,7.2-8.2-1.3-9.3,14-3.9-.8-7.8-1.5-11.7-2.3v2.3h-7c-.8,2.3-1.6,4.7-2.3,7h-7v4.7c-11,1.7-9.6-1.7-9.3,14h2.3c-.8,2.3-1.6,4.7-2.3,7-3.1-.8-6.2-1.6-9.3-2.3v2.3c-3.9.8-7.8,1.6-11.7,2.3.8,3.1,1.6,6.2,2.3,9.3h-4.7c-.8,2.3-1.6,4.7-2.3,7-2.6-2-.3.3-2.3-2.3h-2.3c.4-2.1,4.9-7.1,2.3-11.7h-2.3c-5.7,8.2-5.3.6-11.7,4.7v2.3h2.3v11.7c-7.8.1-10.6,1.2-16.3,2.3v-2.3h2.3c2.7-2.6,0-.9,4.7-2.3V546h-2.3v2.3h-2.3v7c-5.7,1.3-5.1,2.4-9.3,4.7.8,2.3,1.6,4.7,2.3,7H699.8l-9.3-11.7c-2.6,2-.3-.3-2.3,2.3-2.6,2-.3-.3-2.3,2.3h-2.3v2.3h2.3c.9,4.6-.8,3-2.3,4.7v2.3h-4.7c-.8,1.6-1.6,3.1-2.3,4.7h-7c-.8,1.5-1.5,3.1-2.3,4.7h-7v2.3H658c-.4-.2-2.3-3.5-4.7-4.7v4.7H651c-3.9,4.7-7.8,9.3-11.7,14h-4.7v-4.7h-7v2.3h-4.7c-.8,1.6-1.6,3.1-2.3,4.7-3.1.8-6.2,1.6-9.3,2.3-.8,1.6-1.5,3.1-2.3,4.7h-2.3v-2.3h-2.3v-7h-4.7c.8,2.3,1.6,4.7,2.3,7-1.6.8-3.1,1.5-4.7,2.3v4.7c-4.7.8-9.3,1.6-14,2.3v2.3c-8.6,2.3-7.2-7-14-4.7v2.3c-2.3.8-4.7,1.6-7,2.3,2.2,4.2,3.2,3.7,4.7,9.3-3.9-.8-7.8-1.6-11.7-2.3v2.3c2.7,2.7.9,0,2.3,4.7h-4.7v-2.3c-2.3.8-4.7,1.6-7,2.3v2.3c4.2,2.5,4.6,5.1,7,9.3h-2.3v2.3h-7c.8,3.1,1.6,6.2,2.3,9.3h-7c-1.3,9.9-4.9,8-9.3,14h-2.3v14H525v2.3h-2.3v2.3h-9.3v2.3h4.7c0,11.4-2.7,13.3-4.7,21h-7v2.3a15.8,15.8,0,0,1,7,7h-7c.2,5.5.7,5.9,2.3,9.3h-2.3c-1.4,1-.3,3.8-4.7,2.3v-2.3h-2.3v-9.3c4.8-3.1,4.4-3.8,4.7-11.7h-4.7v4.7h-7c.8,3.9,1.6,7.8,2.3,11.7h-2.3v7h-4.7v2.3h4.7v-2.3h7c1.9,3.1,1.6,2.7,4.7,4.7-3.1,5.4-6.2,10.9-9.3,16.3-2.7,2.7,0,.9-4.7,2.3-.8-3.1-1.6-6.2-2.3-9.3,1.6-.8,3.1-1.6,4.7-2.3v-4.7h-7v4.7h-7c-.6,9.8-2.7,13.3,0,21h-4.7v-2.3h-2.3v2.3h-2.3c-.8,4.7-1.6,9.3-2.3,14h2.3v2.3c-1.6.8-3.1,1.6-4.7,2.3v4.7c-1.6-.8-3.1-1.6-4.7-2.3.8,3.9,1.6,7.8,2.3,11.7-1.6.8-3.1,1.6-4.7,2.3-2.6,4.7-2.3,11.3-2.3,18.7h-4.7c2.6,4.8,3.8,4.1,4.7,11.7,2.3.8,4.7,1.5,7,2.3v4.7c-4.2,2.2-3.7,3.2-9.3,4.7.8,2.3,1.6,4.7,2.3,7h-2.3c-2.7,2.7,0,.9-4.7,2.3v-16.3h4.7v-4.7h-4.7v-4.7c-3.1,1.6-6.2,3.1-9.3,4.7,1.3,2.7,4.1,3.7,4.7,4.7v2.3h-2.3v9.3h-2.3c-4.4,6.2-7.8,6.7-9.3,16.3,2.3.8,4.7,1.6,7,2.3v21h2.3c1.1,4.9-2.3,7-2.3,7,.8,4.7,1.6,9.3,2.3,14-8.3-.9-7.1-2.9-14-4.7v-4.7h-2.3c.8,2.3,1.6,4.7,2.3,7h-7c-2.7-2.7,0-.9-4.7-2.3.5,7.6,3,6.8-2.3,14-1.6.8-3.1,1.6-4.7,2.3-2.6,6.6,3.6,8,4.7,11.7h-2.3c-2.7,2.7,0,.9-4.7,2.3v7c-8.2.9-7.1,2.9-14,4.7.8,3.1,1.6,6.2,2.3,9.3h4.7v-7h4.7c-.8,3.1-1.5,6.2-2.3,9.3H411c.3,5.5.7,5.9,2.3,9.3H411V963c-1.6-.8-3.1-1.6-4.7-2.3v-2.3c-5.1-1.7-10.2,6.2-11.7,4.7v-4.7h-9.3v7H383v-2.3c-2.7-2.7-.9,0-2.3-4.7H376c2.8,5.3,5.5,9,7,16.3-2.6,2-.3-.3-2.3,2.3-3.3-2.8-5.1-7.6-7-11.7h-2.3v2.3h-2.3v9.3c3.1,1.9,2.7,1.6,4.7,4.7-4.7.8-9.3,1.6-14,2.3v4.7h7v-4.7h2.3v7h9.3v2.3c-11.7,7-3.4,11.8-9.3,21-2.3,1.6-4.7,3.1-7,4.7v2.3c-2.3.8-4.7,1.5-7,2.3-3.1,9.3-6.2,18.7-9.3,28h4.7c1.7,7.5,3.2,8.5,11.7,9.3-.8,2.3-1.5,4.7-2.3,7h7v7h-4.7v2.3h2.3c2.7,2.7,0,.9,4.7,2.3-.5,7.8-8.7,18.2-4.7,21h-4.7c-1.5,6.2-3.1,12.4-4.7,18.7-1.6.8-3.1,1.5-4.7,2.3v4.7h-2.3v9.3h-2.3v4.7h-2.3v11.7c-2.3,1.6-4.7,3.1-7,4.7v4.7c-1.6.8-3.1,1.5-4.7,2.3-4.3,7.3,4.2,6.1-7,9.3-.8,3.1-1.6,6.2-2.3,9.3h-4.7v9.3c-7.6,4.1-13.5,9.3-14,21h-9.3v2.3h-2.3v7c2.3.8,4.7,1.6,7,2.3-3.4,20.9-11.7,40.7-18.7,58.3-1.6,7-3.1,14-4.7,21h-2.3v4.7h-2.3v9.3h-2.3c-.8,3.1-1.6,6.2-2.3,9.3h-2.3v9.3c-2.3,1.6-4.7,3.1-7,4.7v4.7H255c-.8,9.3-1.6,18.7-2.3,28-1.6.8-3.1,1.6-4.7,2.3v4.7h-2.3c-.8,6.2-1.6,12.4-2.3,18.7h2.3v11.7h-2.3c-1.8,6.5-1.3,15.8-2.3,21,2.3.8,4.7,1.6,7,2.3v7c-5.7-1.3-5.1-2.4-9.3-4.7-.8,4.7-1.6,9.3-2.3,14h-2.3V1469h-2.3v4.7h-2.3c-2.4,5.6-3.5,13.1-4.7,18.7H213.2c-2.2-3.5-4.6-3.9-7-7,4.1-3.5,4.4-6.3,4.7-14h4.7c.8-7.8,1.6-15.5,2.3-23.3,2.3-1.6,4.7-3.1,7-4.7.8-7,1.5-14,2.3-21,1.6-.8,3.1-1.5,4.7-2.3v-7h2.3c-.8-3.9-1.5-7.8-2.3-11.7,1.6-.8,3.1-1.6,4.7-2.3v-21h2.3v-9.3h2.3v-9.3h2.3v-11.7h2.3v-4.7c1.6-.8,3.1-1.6,4.7-2.3.8-11.7,1.6-23.3,2.3-35,1.5-.8,3.1-1.6,4.7-2.3v-4.7h2.3v-18.7h2.3v-11.7h2.3c1.9-3.4,1.6-4,2.3-9.3-5.7-1.3-5.2-2.4-9.3-4.7v2.3h-2.3c.8,2.3,1.6,4.7,2.3,7h2.3v7c-2.7,2.7-.9,0-2.3,4.7-8.5-2.2-8.5-7.1-14-11.7,1.6-9,18.5-42.3,25.7-44.3,1.3-15.4,10.8-23.7,14-37.3,2.3-.8,4.7-1.6,7-2.3v-11.7c1.6-.8,3.1-1.6,4.7-2.3v-7c1.5-.8,3.1-1.6,4.7-2.3v-7h2.3v-4.7c1.6-.8,3.1-1.6,4.7-2.3.8-2.3,1.6-4.7,2.3-7h-2.3v-2.3h-9.3v-7c-6.3.9-6.6,3.5-11.7,0v2.3h-2.3c.8,4.7,1.6,9.3,2.3,14-1.6.8-3.1,1.6-4.7,2.3-.8,2.3-1.6,4.7-2.3,7h-2.3v4.7h-2.3v4.7h-2.3c-.8,5.4-1.6,10.9-2.3,16.3H267v7h-2.3v4.7h-2.3c-.8,3.9-1.5,7.8-2.3,11.7h-2.3c-3.9,8.1-6.3,14.7-7,25.6h-4.7c-1.9,3.1-1.6,2.8-4.7,4.7v4.7c1.6-.8,3.1-1.6,4.7-2.3v16.3c-7,4.6-7.3,13.8-7,25.7h4.7v2.3c3.2.7-.4-.5,2.3-2.3,1.6.8,3.1,1.6,4.7,2.3-5,9.6-4.2,2-2.3,14-4.7.8-9.3,1.6-14,2.3.8,4.7,1.6,9.3,2.3,14h-2.3c-.6,3.3-8,17.9-9.3,18.7h-4.7c.3,23.8-11.1,35.7-18.7,51.3-2.6-2-.3.3-2.3-2.3-3.1-2.3-6.2-4.7-9.3-7,.8-2.3,1.6-4.7,2.3-7-6,1.6-5,3.5-7-4.7h-2.3v-18.7c4-2.5,5-5,7-9.3h2.3c.5,11.3,2.5,7.9,4.7,16.3,2.6-2,.3.3,2.3-2.3h2.3c.8-5.4,1.6-10.9,2.3-16.3h2.3v-4.7h2.3v-9.3H211c2.7-2.7,0-.9,4.7-2.3-.1-8.9,1.2-20.1,2.3-21,2.7-2.7,0-.9,4.7-2.3v-11.7h4.7v-7h2.3c-.8-4.7-1.6-9.3-2.3-14h2.3c4.4-5.9,6.6-2,9.3-11.7h-4.7v4.7h-4.7c-.9.6-7.9,15.9-11.7,14v-2.3h-2.3V1250c7-5.1,1.1-2.7,4.7-9.3,1.6-.8,3.1-1.5,4.7-2.3v-11.7c2.3-1.5,4.7-3.1,7-4.7v-4.7h2.3c.8-10.1,1.6-20.2,2.3-30.3,3.3-10.6,8.3-24.6,11.7-35,.8-8.5,1.6-17.1,2.3-25.7,1.6-.8,3.1-1.6,4.7-2.3v-4.7h2.3v-4.7h2.3v-7h2.3v-7h2.3v-7h2.3v-7h2.3v-7h2.3c.8-4.7,1.6-9.3,2.3-14H276c2.7-2.7,0-.9,4.7-2.3v-11.7c2.3-.8,4.7-1.6,7-2.3,0-15.3,7.2-26.2,11.7-37.3,2.4-6,1.8-13.2,4.7-18.7h2.3v-4.7c1.6-.8,3.1-1.5,4.7-2.3v-7h2.3V970h2.3c.8-5.4,1.6-10.9,2.3-16.3h2.3v-7h2.3v-7h2.3v-7h2.3v-7h2.3v-7h2.3c.8-4.7,1.6-9.3,2.3-14h2.3V900c1.5-.8,3.1-1.6,4.7-2.3V879h2.3c.8-7.8,1.6-15.5,2.3-23.3H348V851h2.3v-7h2.3v-18.7c1.6-.8,3.1-1.6,4.7-2.3.8-4.7,1.6-9.3,2.3-14h2.3v-4.7h2.3v-7h2.3v-7h2.3v-7h2.3c.8-7.8,1.6-15.5,2.3-23.3h2.3v-7c1.6-.8,3.1-1.6,4.7-2.3,2.5-4.3,2-9.7,2.3-16.3-3.1-.8-6.2-1.6-9.3-2.3v-7h-2.3c-1.6,2.3-1.2,4.2-4.7,4.7-2.1-1.3.8-3.4-2.3-2.3v2.3H352.4c-1.6,6.8-2.6,7.6-9.3,9.3-7.4-8-7.6,2.6-9.3-9.3h2.3v-2.3h7v-7h-2.3c-3.9,5.4-7.8,10.9-11.7,16.3-2.9-1.8-6.3-7.8-7-7v2.3c-4.7,3.9-9.3,7.8-14,11.7,4,2.6,3.2,1.5,4.7,7-4.2,2.2-3.7,3.2-9.3,4.7v2.3c-3.1-.8-6.2-1.6-9.3-2.3v2.3c-2.7,2.7-.9,0-2.3,4.7h-4.7v7c-10.2,5-5.9,3.6-11.7,11.7-2.3,1.5-4.7,3.1-7,4.7v4.7c-5.6,10.4-5.1,13.6-21,14v-4.7c-5.4.8-10.9,1.6-16.3,2.3-2.4-10.1-7.7-8.1-11.7-14v-4.7h-2.3v-4.7h-2.3v-4.7h-2.3c-4.2-8.1-1.4-13.5-9.3-18.7v-2.3h-7v-7c7-1.8,6.1-1.4,7-9.3-5.2-2-12.7-2.4-21-2.3v2.3c-3.9.8-7.8,1.6-11.7,2.3-.8,1.6-1.6,3.1-2.3,4.7h-7v2.3h-7v2.3h-7v2.3h-4.7V753c-7,2.3-14,4.7-21,7v2.3c-5.5-.3-2.3-4.4-4.7-4.7-2.3.8-4.7,1.6-7,2.3v9.3c-3.1.8-6.2,1.5-9.3,2.3v-4.7h4.7v-2.3h-7v2.3H89v-2.3c-1.6.8-3.1,1.6-4.7,2.3-1.4,3.7-2.1,5.5-2.3,11.7H77.3c-.8-2.3-1.6-4.7-2.3-7-5.3,2.8-9,5.5-16.3,7v4.7H49.4c-.8,2.3-1.6,4.7-2.3,7-3.9.8-7.8,1.6-11.7,2.3a6.39,6.39,0,0,0-7-2.3v2.3H23.7c-.8,1.6-1.5,3.1-2.3,4.7-5.4,1.5-10.9,3.1-16.3,4.7v2.3H2.8v-2.3H.5v-7c7.2-.9,7.4-1.6,11.7-4.7v-2.3h7c.8-1.6,1.6-3.1,2.3-4.7,3.9-.8,7.8-1.6,11.7-2.3.8-1.6,1.6-3.1,2.3-4.7,4.7-.8,9.3-1.6,14-2.3.8-1.6,1.6-3.1,2.3-4.7h7c.8-1.6,1.6-3.1,2.3-4.7h4.7v-2.3h4.7v-2.3c5.9-2.9,6.8-1.3,11.7,0v-7H93.9c.8-2.3,1.6-4.7,2.3-7,10.4-.8,27.6-9.2,35-14,.8-1.6,1.6-3.1,2.3-4.7,4.7-.8,9.3-1.6,14-2.3v-2.3h4.7v-2.3h4.7V718h4.7v-2.3h7v-2.3c3.1-.8,6.2-1.6,9.3-2.3v-2.3h4.7c.8-1.5,1.5-3.1,2.3-4.7,2.3-.8,4.7-1.6,7-2.3v-11.7c9.2.3,16.7-.2,21-4.7h2.3v-2.3h-2.3c-1.5-3.8,4.4-3.9,7-4.7,7.8-7.3,36.6-4.3,42-7h2.3c.3,0,.9,3.5,4.7,2.3v-2.3h4.7c.8-1.6,1.6-3.1,2.3-4.7,5.4-.8,10.9-1.5,16.3-2.3.8-1.6,1.6-3.1,2.3-4.7h7v-2.3h7v-2.3h7v-2.3h7v-2.3c3.9-.8,7.8-1.6,11.7-2.3v-2.3h4.7v-2.3c4.7-.8,9.3-1.6,14-2.3V639c4.7-.8,9.3-1.5,14-2.3v-2.3h4.7v-2.3h7v-2.3h4.7v-2.3H388v-2.3c4.7-1.5,9.3-3.1,14-4.7v-2.3h7c9.3-3.1,18.7-6.2,28-9.3v-2.3l11.7-9.3v-4.7c1.5-.8,3.1-1.6,4.7-2.3.8-4.7,1.6-9.3,2.3-14H458v-7h2.3v-4.7h2.3v-7h2.3v-4.7h2.3c-.8-5.4-1.6-10.9-2.3-16.3,1.6-.8,3.1-1.6,4.7-2.3v-14h2.3v-7h2.3v-7h2.3v-7h2.3c.8-3.1,1.6-6.2,2.3-9.3h2.3v-7h2.3v-7H488v-7h2.3v-7h2.3v-7h2.3v-7h2.3v-7h2.3v-4.7h2.3c1.6-7,3.1-14,4.7-21h2.3c.8-6.2,1.6-12.4,2.3-18.7h2.3c.8-3.1,1.6-6.2,2.3-9.3H518v-4.7h2.3c1.6-7.8,3.1-15.5,4.7-23.3h2.3c.8-3.1,1.6-6.2,2.3-9.3h2.3v-11.7h2.3V329h2.3v-11.7h2.3c1-6.3-5.6-5-4.7-9.3,2.3-1.6,4.7-3.1,7-4.7v-11.7h-2.3v2.3c-3.9.8-7.8,1.5-11.7,2.3v2.3h-7v2.3h-4.7c-.8,1.6-1.5,3.1-2.3,4.7h-4.7v2.3h-4.7v2.3h-7v2.3h-7c-1.6,2.3-3.1,4.7-4.7,7-1.5-.8-3.1-1.5-4.7-2.3-1.8,1.3-1.5,3-4.7,4.7v2.3c.4.4,7.9-1.3,4.7,2.3H478v2.3c-2.3-.8-4.7-1.6-7-2.3v2.3c-6.7,3.1-3.1,1.9-9.3,0v4.7h-7v4.7c-12.4,3-8.4,6.4-16.3,11.7v2.3c-3.1-.8-6.2-1.6-9.3-2.3v4.7c-10.6.8-23.7,9.4-28,16.3-2.6,2-.3-.3-2.3,2.3h7v-2.3h7c1.7-6.4.7-5.2,7-7,4.1-5,9.6-6.7,18.7-7v2.3c-2.6,2-.3-.3-2.3,2.3h-2.3v2.3h-7c-1.6,2.3-3.1,4.7-4.7,7-4.7,1.6-9.3,3.1-14,4.7-1.6,2.3-3.1,4.7-4.7,7-3.1.8-6.2,1.6-9.3,2.3-1.6,2.3-3.1,4.7-4.7,7-3.9.8-7.8,1.5-11.7,2.3-1.6,2.3-3.1,4.7-4.7,7-2.3.8-4.7,1.6-7,2.3v2.3c-3.1.8-6.2,1.5-9.3,2.3v2.3c-2.3.8-4.7,1.6-7,2.3-.8,1.6-1.6,3.1-2.3,4.7-3.1.8-6.2,1.6-9.3,2.3-.8,1.5-1.6,3.1-2.3,4.7h-4.7v2.3c-2.3.8-4.7,1.6-7,2.3-.8,1.6-1.6,3.1-2.3,4.7h-4.7c-.8,1.5-1.5,3.1-2.3,4.7-2.3.8-4.7,1.6-7,2.3-1.6,2.3-3.1,4.7-4.7,7h-4.7c-1.6,2.3-3.1,4.7-4.7,7h-4.7c-1.5,2.3-3.1,4.7-4.7,7h-4.7c-1.6,2.3-3.1,4.7-4.7,7h-4.7v2.3c-2.3.8-4.7,1.6-7,2.3-.8,1.6-1.5,3.1-2.3,4.7h-4.7c-1.6,2.3-3.1,4.7-4.7,7h-4.7c-3.9,4.7-7.8,9.3-11.7,14-2.3.8-4.7,1.6-7,2.3-.8,1.6-1.6,3.1-2.3,4.7h-4.7c-2.3,3.1-4.7,6.2-7,9.3-6.2,5.4-12.4,10.9-18.7,16.3v4.7l-11.7,9.3v4.7c-2.3,1.6-4.7,3.1-7,4.7v4.7c-1.5.8-3.1,1.5-4.7,2.3v7c-1.6.8-3.1,1.6-4.7,2.3-7.3,11.1-10.7,22.2-25.7,25.7v4.7H137c.8,3.1,1.6,6.2,2.3,9.3h-4.7c-.8-3.1-1.5-6.2-2.3-9.3H130c.8-4.7,1.6-9.3,2.3-14-2.3-1.6-4.7-3.1-7-4.7v-4.7H123c-4.7-11.7-9.3-23.3-14-35-1.5-.8-3.1-1.5-4.7-2.3-.8-3.1-1.6-6.2-2.3-9.3-1.6-.8-3.1-1.6-4.7-2.3-.8-3.1-1.6-6.2-2.3-9.3H92.7v-4.7H90.4v-4.7c-1.6-.8-3.1-1.6-4.7-2.3-1.6-4.7-3.1-9.3-4.7-14-7.4.3-4.4,4.6-7-2.3H69.3c.8-1.6,1.5-3.1,2.3-4.7-5.6-9.6-2.9-11-2.3-25.6H74c6.2-5.4,12.4-10.9,18.7-16.3l9.3-11.7h4.7c2.3-3.1,4.7-6.2,7-9.3h4.7c1.6-2.3,3.1-4.7,4.7-7h4.7c2.3-3.1,4.7-6.2,7-9.3,2.3-.8,4.7-1.6,7-2.3,3.9-4.7,7.8-9.3,11.7-14,3.1-2.3,6.2-4.7,9.3-7v-2.3c8.7-5.7,12.7,1.2,16.3-11.7h7v-2.3c7.6-1.9,11.1-7.3,16.3-11.7v-2.3h4.7c1.6-2.3,3.1-4.7,4.7-7,3.1-.8,6.2-1.5,9.3-2.3,1.6-2.3,3.1-4.7,4.7-7h4.7c1.6-2.3,3.1-4.7,4.7-7h4.7c1.6-2.3,3.1-4.7,4.7-7h4.7c.8-1.6,1.6-3.1,2.3-4.7h4.7c.8-1.5,1.6-3.1,2.3-4.7h4.7v-2.3H268v-2.3c6.4-3.9,4.4,2.1,7-7a27,27,0,0,0,14-7c.8-1.6,1.6-3.1,2.3-4.7h7v-2.3c2.3-.8,4.7-1.5,7-2.3.8-1.6,1.6-3.1,2.3-4.7h7v-2.3h4.7v-2.3H324c2.3-3.1,4.7-6.2,7-9.3,4.7-1.6,9.3-3.1,14-4.7.8-1.5,1.6-3.1,2.3-4.7H352v-2.3h4.7v-2.3h4.7v-2.3h4.7c.8-1.6,1.6-3.1,2.3-4.7h4.7v-2.3h4.7v-2.3h4.7v-2.3h4.7V238h4.7c.8-1.6,1.5-3.1,2.3-4.7,4.7-.8,9.3-1.5,14-2.3v-2.3h4.7c.8-1.6,1.6-3.1,2.3-4.7h4.7c.8-1.6,1.5-3.1,2.3-4.7,9.3-3.1,18.7-6.2,28-9.3v-2.3h4.7v-2.3c4.7-1.5,9.3-3.1,14-4.7v-2.3h9.3v-2.3h4.7c.8-1.6,1.6-3.1,2.3-4.7h7v-2.3h4.7v-2.3c3.9-.8,7.8-1.6,11.7-2.3v-2.3c4.7-.8,9.3-1.6,14-2.3v-2.3h4.7v-2.3h7V173h7v-2.3h7v-2.3h7v-2.3h7c6.4-2.9,6.7-7.1,16.3-9.3v-4.7h-4.7c2-2.6-.3-.3,2.3-2.3v-2.3h11.7v-9.3h4.7c-.8-2.3-1.6-4.7-2.3-7H588v7h-2.3v-2.3h-2.3c-.8-5.4-1.5-10.9-2.3-16.3h4.7v4.7h4.7c-.9-7.3-1.7-7.2-4.7-11.7h-2.3v-9.3h4.7V108h4.7c3.1-5.9,4.6-8.2,4.7-18.7h2.3c-.8-3.1-1.5-6.2-2.3-9.3h2.3c.8-3.1,1.6-6.2,2.3-9.3h-4.7c1.5-6.8,4.2-5.9,4.7-7v-35h2.3c1.6-5.8-1-11-2.3-14h2.3c9.3-9.9,8.1.3,14-2.3v-2.3h-2.3v-7c6.6-.2,10-.5,14-2.3v2.3C637.6,11.67,624.9,15.87,645.8,16.07Z"/></g></g></svg>